<?xml version="1.0" encoding="UTF-8" standalone="no"?>
<!-- Created with Inkscape (http://www.inkscape.org/) -->

<svg
   width="148"
   height="205"
   viewBox="0 0 39.158332 54.239582"
   version="1.1"
   id="svg1"
   inkscape:version="1.4 (e7c3feb100, 2024-10-09)"
   sodipodi:docname="background.svg"
   xmlns:inkscape="http://www.inkscape.org/namespaces/inkscape"
   xmlns:sodipodi="http://sodipodi.sourceforge.net/DTD/sodipodi-0.dtd"
   xmlns="http://www.w3.org/2000/svg"
   xmlns:svg="http://www.w3.org/2000/svg">
  <sodipodi:namedview
     id="namedview1"
     pagecolor="#ffffff"
     bordercolor="#cccccc"
     borderopacity="1"
     inkscape:showpageshadow="0"
     inkscape:pageopacity="1"
     inkscape:pagecheckerboard="0"
     inkscape:deskcolor="#d1d1d1"
     inkscape:document-units="mm"
     showguides="true"
     inkscape:zoom="2.9433784"
     inkscape:cx="95.638401"
     inkscape:cy="83.237685"
     inkscape:window-width="1360"
     inkscape:window-height="1070"
     inkscape:window-x="26"
     inkscape:window-y="23"
     inkscape:window-maximized="0"
     inkscape:current-layer="layer1">
    <sodipodi:guide
       position="11.397552,39.936022"
       orientation="0,-1"
       id="guide1"
       inkscape:locked="false" />
  </sodipodi:namedview>
  <defs
     id="defs1" />
  <g
     inkscape:label="Layer 1"
     inkscape:groupmode="layer"
     id="layer1">
    <path
       id="rect1"
       style="fill:#5c5c5c;fill-opacity:1;stroke:none;stroke-width:0.110187;stroke-linecap:round"
       d="M 0,0 H 49.405911 V 54.239583 H 0 Z"
       sodipodi:nodetypes="ccccc" />
    <path
       style="fill:#bfbfbf;fill-opacity:1;stroke:none;stroke-width:0.102535;stroke-linecap:round"
       d="m -0.35956416,33.888921 3.40221286,-3.236076 2.8351774,2.786622 1.7011064,1.977602 c 0,0 4.1582605,0 4.5362835,-0.629237 0.378024,-0.629237 2.457154,-1.887712 2.457154,-1.887712 l 1.701107,2.42706 5.103319,3.415858 4.725296,-2.157386 2.929684,-2.157383 2.457151,-3.146187 2.362651,2.516949 1.984625,2.966405 2.835177,2.427058 4.063754,-0.08989 6.646543,-5.213683 0.18901,21.100589 H -0.35956416 Z"
       id="path63"
       sodipodi:nodetypes="ccccccccccccccccccc" />
    <g
       id="g1"
       transform="matrix(1.2619838,0,0,1,-0.01231324,0)">
      <path
         d="m 2.7484864,24.481796 c 1.563854,0.0058 2.777413,0.372925 3.884987,0.884801 0.301394,-1.0447 3.045297,-1.666017 5.0930926,-1.646967 1.065103,0.01087 1.451245,0.330804 2.067863,0.687343 0.616618,0.356545 -0.03877,0.852211 -0.114167,1.340586 -0.0082,0.02136 -0.04584,0.04212 -0.05494,0.06339 1.121993,0.05493 1.710551,0.217627 1.694971,0.35583 -0.01909,0.151648 -1.010748,0.258367 -2.273792,0.293827 -0.592655,0.679721 -1.824529,1.153875 -3.2229756,1.163575 -0.440302,-6.96e-4 -0.894048,-0.03965 -1.304932,-0.132636 0.046753,0.155688 0.142632,0.311961 0.152742,0.469072 0.057279,0.876939 0.592265,1.764385 -0.599084,2.407551 -1.19135,0.643168 -2.373152,1.178414 -4.414909,1.191084 C 0.94090931,31.573092 1.268741,30.985606 0.047,29.886394 v -4.558125"
         style="fill:#999999;fill-opacity:1;stroke-width:0.138551;stroke-linecap:round"
         id="path65"
         sodipodi:nodetypes="ccccccccccccccc" />
      <path
         d="m 39.091,35.590978 c -1.442087,-0.0094 -0.765697,-1.384173 -1.871129,-1.789474 -1.001727,0.387566 -2.641035,0.466896 -3.915633,0.455136 -1.983388,-0.02495 -2.393259,-0.70749 -3.062557,-1.474242 -0.101406,9.6e-4 -0.202461,-0.0094 -0.303965,-0.01001 -1.908439,-0.01619 -2.83956,-0.407315 -2.76434,-0.72611 0.07386,-0.298545 1.731558,-0.480434 3.413747,-0.501604 0.251128,-1.251684 2.153294,-2.322541 4.59933,-2.362201 0.163399,-0.484666 -0.02079,-0.96271 0.411702,-1.379115 -0.494522,-0.04916 -0.988907,-0.145279 -1.013397,-0.278507 -0.03429,-0.182417 0.336948,-0.373571 1.089515,-0.379071 0.142222,-7e-4 0.291301,-0.0077 0.428048,0.0024 C 37.343585,26.3896 39.091,25.791514 39.091,25.791514"
         style="fill:#999999;fill-opacity:1;stroke-width:0.138551;stroke-linecap:round"
         id="path66"
         sodipodi:nodetypes="ccccccccccccc" />
      <path
         d="m 38.318985,21.196971 c -0.75492,0.02178 -1.792958,0.0053 -2.203842,-0.08769 0.04675,0.155688 0.142632,0.311961 0.152742,0.469072 0.05728,0.876939 0.592265,1.764385 -0.599084,2.407551 -1.19135,0.643168 -2.373152,1.178414 -4.414909,1.191084 -2.716433,0.01384 -5.440659,-0.573646 -6.6624,-1.672858 -1.355001,0.935481 -3.615545,1.418673 -5.872194,1.410173 -1.442087,-0.0094 -2.507191,-0.32584 -3.612623,-0.731141 -1.001727,0.387566 -2.641035,0.466896 -3.915633,0.455136 -1.9833876,-0.02495 -2.3932587,-0.70749 -3.0625574,-1.474242 -0.1014059,9.6e-4 -0.2024609,-0.0094 -0.3039646,-0.01001 -1.9084386,-0.01619 -2.8395619,-0.407315 -2.7643399,-0.72611 0.073858,-0.298545 1.7315578,-0.480434 3.4137471,-0.501604 0.2511283,-1.251684 2.1532938,-2.322541 4.5993298,-2.362201 0.163399,-0.484666 -0.02079,-0.96271 0.411702,-1.379115 -0.494522,-0.04916 -0.988907,-0.145279 -1.013397,-0.278507 -0.03429,-0.182417 0.336948,-0.373571 1.089515,-0.379071 0.142222,-7e-4 0.291301,-0.0078 0.428048,0.0024 1.241264,-0.75858 2.484241,-1.342591 4.588926,-1.356641 l -10e-7,-2.5e-5 c 1.359093,0.0028 2.809753,0.143026 3.954539,0.500526 0.319706,-0.03476 0.678963,-0.05723 1.049323,-0.05765 0.573562,-2.87e-4 1.120238,0.04356 1.520603,0.12034 0.400362,0.07678 0.597308,0.183072 0.594408,0.291126 -0.007,0.171469 -0.580771,0.320507 -1.389291,0.378547 0.733708,0.436204 1.209663,0.963394 1.548656,1.539944 1.182778,-0.577999 2.861576,-0.851673 4.488748,-0.846473 1.563854,0.0058 2.777413,0.372925 3.884987,0.884801 0.301394,-1.0447 3.143545,-1.710963 4.921668,-1.646967 l 0.01062,3.574021"
         style="fill:#ffffff;stroke-width:0.138551;stroke-linecap:round"
         id="path64"
         sodipodi:nodetypes="cccccccccccccccccccccccccccccc" />
    </g>
  </g>
</svg>
