<?xml version="1.0" encoding="UTF-8" standalone="no"?>
<!-- Created with Inkscape (http://www.inkscape.org/) -->

<svg
   width="740"
   height="205"
   viewBox="0 0 195.79166 54.239583"
   version="1.1"
   id="svg1"
   inkscape:version="1.4 (e7c3feb100, 2024-10-09)"
   sodipodi:docname="cloud-roll.svg"
   inkscape:export-filename="/home/duhrer/Source/Projects/duhrer.github.io/assets/img/2025-03-12-updated-cloud-roll.png"
   inkscape:export-xdpi="180.55"
   inkscape:export-ydpi="180.55"
   xmlns:inkscape="http://www.inkscape.org/namespaces/inkscape"
   xmlns:sodipodi="http://sodipodi.sourceforge.net/DTD/sodipodi-0.dtd"
   xmlns="http://www.w3.org/2000/svg"
   xmlns:svg="http://www.w3.org/2000/svg">
  <sodipodi:namedview
     id="namedview1"
     pagecolor="#ffffff"
     bordercolor="#cccccc"
     borderopacity="1"
     inkscape:showpageshadow="0"
     inkscape:pageopacity="1"
     inkscape:pagecheckerboard="false"
     inkscape:deskcolor="#d1d1d1"
     inkscape:document-units="px"
     showguides="false"
     inkscape:zoom="1.4716891"
     inkscape:cx="237.48222"
     inkscape:cy="70.667099"
     inkscape:window-width="2752"
     inkscape:window-height="1086"
     inkscape:window-x="0"
     inkscape:window-y="0"
     inkscape:window-maximized="1"
     inkscape:current-layer="layer1">
    <sodipodi:guide
       position="13.878334,40.483445"
       orientation="0,-1"
       id="guide1"
       inkscape:locked="false" />
  </sodipodi:namedview>
  <defs
     id="defs1" />
  <g
     inkscape:label="Layer 1"
     inkscape:groupmode="layer"
     id="layer1">
    <path
       id="path1"
       style="fill:#595959;fill-opacity:1;stroke-width:0.031933;stroke-linecap:round"
       d="M 25.797391 24.975219 L 21.555273 25.339538 L 18.645373 26.475386 C 18.645373 26.475386 17.523687 26.727463 16.200561 26.979231 C 14.877435 27.230999 13.352944 27.610954 12.547554 27.6102 L 11.635465 27.690299 L 5.7696735 27.690299 L 5.7696735 27.691332 C 5.767845 27.691312 5.7663393 27.690299 5.7645059 27.690299 C 5.4968299 27.690299 5.279781 27.907349 5.279781 28.175024 C 5.279781 28.4427 5.4968299 28.659232 5.7645059 28.659232 C 5.7663393 28.659232 5.767845 28.658219 5.7696735 28.658198 L 5.7696735 28.659232 L 46.343424 28.659232 L 46.343424 28.650964 C 46.59096 28.629202 46.787324 28.428209 46.787324 28.175024 C 46.787324 27.92184 46.59096 27.720329 46.343424 27.698567 L 46.343424 27.690299 L 35.990051 27.690299 L 35.037137 26.807665 L 33.247582 26.991117 L 31.014127 27.045377 L 28.405501 26.010298 L 25.797391 24.975219 z " />
    <path
       id="path2"
       style="fill:#595959;fill-opacity:1;stroke-width:0.0806682;stroke-linecap:round"
       d="M 95.641705 21.622969 L 91.560818 22.956221 L 89.06588 24.288956 L 85.80458 25.918831 L 78.04278 26.863993 L 75.497716 26.863993 L 75.497716 26.865026 C 75.496063 26.86501 75.494722 26.863993 75.493065 26.863993 C 75.225389 26.863993 75.00834 27.081043 75.00834 27.348718 C 75.00834 27.616394 75.225389 27.832926 75.493065 27.832926 C 75.494722 27.832926 75.496063 27.831909 75.497716 27.831892 L 75.497716 27.832926 L 131.94698 27.832926 L 131.94698 27.824658 C 131.99809 27.820121 132.04947 27.814366 132.09478 27.795202 C 132.26873 27.721625 132.39037 27.549475 132.39037 27.348718 C 132.39037 27.095671 132.19433 26.894213 131.94698 26.872261 L 131.94698 26.863993 L 131.90564 26.863993 L 125.1598 26.863993 L 120.77454 26.717748 L 117.59282 25.427905 L 113.55379 25.483199 L 109.51528 25.538492 L 106.64258 23.510709 L 103.77041 22.631693 L 100.49929 21.897371 L 95.641705 21.622969 z " />
    <path
       id="path3"
       style="fill:#595959;fill-opacity:1;stroke-width:0.0459694;stroke-linecap:round"
       d="M 46.839001 31.326253 L 45.054613 31.879707 L 42.973603 33.915242 L 39.982572 34.237186 L 34.817512 34.237186 L 34.817512 34.23822 C 34.81586 34.238203 34.814518 34.237186 34.812861 34.237186 C 34.545185 34.237186 34.328137 34.454236 34.328137 34.721911 C 34.328137 34.989587 34.545185 35.206636 34.812861 35.206636 C 34.814518 35.206636 34.81586 35.205619 34.817512 35.205602 L 34.817512 35.206636 L 75.391779 35.206636 L 75.391779 35.198368 C 75.639326 35.176617 75.83568 34.975104 75.83568 34.721911 C 75.83568 34.468719 75.639326 34.267205 75.391779 34.245454 L 75.391779 34.237186 L 63.113459 34.237186 L 63.813675 34.210831 L 55.825532 33.99224 L 54.022024 34.03048 L 52.514623 33.179369 L 51.295576 33.364371 L 50.076529 33.845479 L 48.824926 33.326131 L 48.276639 32.029569 L 46.839001 31.326253 z " />
    <path
       id="path4"
       style="fill:#595959;fill-opacity:1;stroke-width:0.0726727;stroke-linecap:round"
       d="M 137.65464 30.539221 L 135.07909 31.281294 L 133.97528 32.116385 L 132.50354 31.281294 L 130.84782 31.838366 L 130.66386 32.487939 L 130.11195 32.858976 L 126.47445 33.213993 L 123.12271 33.213993 L 123.12271 33.214509 C 123.12112 33.214494 123.11966 33.213993 123.11806 33.213993 C 122.85039 33.213993 122.63334 33.431043 122.63334 33.698718 C 122.63334 33.966394 122.85039 34.182926 123.11806 34.182926 C 123.11966 34.182926 123.12112 34.182424 123.12271 34.182409 L 123.12271 34.182926 L 147.82198 34.182926 L 147.82198 34.178792 C 148.07022 34.15773 148.26537 33.952407 148.26537 33.698718 C 148.26537 33.445029 148.07022 33.239188 147.82198 33.218127 L 147.82198 33.213993 L 141.61203 33.213993 L 148.14031 33.137512 L 139.67829 32.858976 L 139.12639 31.55983 L 137.65464 30.539221 z " />
  </g>
</svg>
