<?xml version="1.0" encoding="UTF-8" standalone="no"?>
<!-- Created with Inkscape (http://www.inkscape.org/) -->

<svg
   width="1440"
   height="205"
   viewBox="0 0 380.99999 54.239583"
   version="1.1"
   id="svg1"
   inkscape:version="1.4 (e7c3feb100, 2024-10-09)"
   sodipodi:docname="sky-roll-3.svg"
   inkscape:export-filename="/home/duhrer/Source/Projects/duhrer.github.io/assets/img/2025-03-12-updated-sky-roll.png"
   inkscape:export-xdpi="96.343193"
   inkscape:export-ydpi="96.343193"
   xmlns:inkscape="http://www.inkscape.org/namespaces/inkscape"
   xmlns:sodipodi="http://sodipodi.sourceforge.net/DTD/sodipodi-0.dtd"
   xmlns="http://www.w3.org/2000/svg"
   xmlns:svg="http://www.w3.org/2000/svg">
  <sodipodi:namedview
     id="namedview1"
     pagecolor="#ffffff"
     bordercolor="#cccccc"
     borderopacity="1"
     inkscape:showpageshadow="0"
     inkscape:pageopacity="1"
     inkscape:pagecheckerboard="0"
     inkscape:deskcolor="#d1d1d1"
     inkscape:document-units="px"
     showguides="true"
     inkscape:zoom="2.9530177"
     inkscape:cx="287.67183"
     inkscape:cy="166.60923"
     inkscape:window-width="2752"
     inkscape:window-height="1086"
     inkscape:window-x="0"
     inkscape:window-y="0"
     inkscape:window-maximized="1"
     inkscape:current-layer="layer1">
    <sodipodi:guide
       position="92.795978,40.956287"
       orientation="0,-1"
       id="guide1"
       inkscape:locked="false" />
    <sodipodi:guide
       position="190.73767,53.169847"
       orientation="1,0"
       id="guide10"
       inkscape:locked="false" />
    <sodipodi:guide
       position="95.30164,35.408657"
       orientation="1,0"
       id="guide11"
       inkscape:locked="false" />
    <sodipodi:guide
       position="275.4219,38.309772"
       orientation="1,0"
       id="guide12"
       inkscape:locked="false" />
    <sodipodi:guide
       position="47.636333,49.390232"
       orientation="1,0"
       id="guide13"
       inkscape:locked="false" />
    <sodipodi:guide
       position="142.91217,59.849542"
       orientation="1,0"
       id="guide14"
       inkscape:locked="false" />
    <sodipodi:guide
       position="232.88083,52.357493"
       orientation="1,0"
       id="guide15"
       inkscape:locked="false" />
    <sodipodi:guide
       position="322.40853,-15.11555"
       orientation="1,0"
       id="guide16"
       inkscape:locked="false" />
  </sodipodi:namedview>
  <defs
     id="defs1">
    <inkscape:path-effect
       effect="fillet_chamfer"
       id="path-effect157"
       is_visible="true"
       lpeversion="1"
       nodesatellites_param="F,0,0,1,0,0,0,1 @ F,0,0,1,0,0,0,1 @ F,0,0,1,0,0,0,1 @ F,0,0,1,0,0,0,1 @ F,0,0,1,0,0,0,1 @ F,0,0,1,0,0,0,1 @ F,0,0,1,0,0,0,1 @ F,0,0,1,0,0,0,1 @ F,0,0,1,0,0,0,1 @ F,0,0,1,0,0,0,1 @ F,0,0,1,0,0,0,1 @ F,0,0,1,0,0,0,1 @ F,0,0,1,0,0,0,1 @ F,0,0,1,0,0,0,1 @ F,0,0,1,0,0,0,1 @ F,0,0,1,0,0,0,1 @ F,0,0,1,0,0,0,1 @ F,0,0,1,0,0,0,1 @ F,0,0,1,0,0,0,1"
       radius="0"
       unit="px"
       method="auto"
       mode="F"
       chamfer_steps="1"
       flexible="false"
       use_knot_distance="true"
       apply_no_radius="true"
       apply_with_radius="true"
       only_selected="false"
       hide_knots="false" />
  </defs>
  <g
     inkscape:label="Layer 1"
     inkscape:groupmode="layer"
     id="layer1"
     transform="translate(-0.13232601,-0.06088688)">
    <path
       id="rect9"
       style="stroke:none;stroke-width:0.403368;stroke-linecap:round;stroke-opacity:1"
       d="m 290.64942,0.13232601 h 90.35051 V 54.107256 h -90.35051 z" />
    <path
       id="rect1"
       style="stroke:none;stroke-width:0.426067;stroke-linecap:round;stroke-opacity:1"
       d="M 0.13232601,0.13232601 H 100.93849 V 54.107256 H 0.13232601 Z" />
    <path
       id="path23"
       style="fill:#ffffff;stroke:none;stroke-width:0.0374177;stroke-linecap:round;stroke-opacity:1"
       d="M 4.4369447,2.9810658 A 0.26458336,0.26458336 0 0 1 4.1723612,3.2456498 0.26458336,0.26458336 0 0 1 3.9077778,2.9810658 0.26458336,0.26458336 0 0 1 4.1723612,2.7164828 0.26458336,0.26458336 0 0 1 4.4369447,2.9810658 Z" />
    <path
       id="path18"
       style="fill:#ffffff;stroke:none;stroke-width:0.0232644;stroke-linecap:round;stroke-opacity:1"
       inkscape:transform-center-x="-0.050497848"
       inkscape:transform-center-y="-0.16587428"
       d="m 338.67657,41.106324 -1.28294,-1.487365 -1.80974,0.763545 1.48737,-1.282937 -0.76355,-1.809747 1.28294,1.487366 1.80974,-0.763546 -1.48736,1.282938 z" />
    <path
       id="path19"
       style="fill:#ffffff;stroke:none;stroke-width:0.0337937;stroke-linecap:round;stroke-opacity:1"
       d="m 368.82946,29.603879 -2.30906,-1.292522 -1.18079,2.368149 0.51572,-2.595462 -2.61713,-0.391199 2.6278,-0.311562 -0.43668,-2.609923 1.10834,2.402906 2.34725,-1.221822 -1.94281,1.79664 z" />
    <path
       id="path20"
       style="fill:#ffffff;stroke:none;stroke-width:0.0275999;stroke-linecap:round;stroke-opacity:1"
       inkscape:transform-center-x="-0.059908615"
       inkscape:transform-center-y="-0.19678551"
       d="M 11.169493,41.2503 9.6474715,39.485753 7.5004663,40.391591 9.265013,38.86957 8.3591745,36.722565 l 1.5220215,1.764546 2.147005,-0.905838 -1.764546,1.522022 z" />
    <path
       id="path21"
       style="fill:#ffffff;stroke:none;stroke-width:0.0198168;stroke-linecap:round;stroke-opacity:1"
       d="m 29.437672,21.582085 -1.354045,-0.75794 -0.692419,1.388692 0.302421,-1.521989 -1.534694,-0.229401 1.540951,-0.182701 -0.256074,-1.530469 0.649939,1.409074 1.376432,-0.716481 -1.139266,1.053556 z" />
    <path
       id="path24"
       style="fill:#ffffff;stroke:none;stroke-width:0.0374177;stroke-linecap:round;stroke-opacity:1"
       d="M 6.0244448,7.7435657 A 0.26458336,0.26458336 0 0 1 5.7598613,8.0081497 0.26458336,0.26458336 0 0 1 5.4952779,7.7435657 0.26458336,0.26458336 0 0 1 5.7598613,7.4789827 0.26458336,0.26458336 0 0 1 6.0244448,7.7435657 Z" />
    <path
       id="path25"
       style="fill:#ffffff;stroke:none;stroke-width:0.0374177;stroke-linecap:round;stroke-opacity:1"
       d="m 14.49111,4.0393992 a 0.26458336,0.26458336 0 0 1 -0.264583,0.264584 0.26458336,0.26458336 0 0 1 -0.264584,-0.264584 0.26458336,0.26458336 0 0 1 0.264584,-0.264583 0.26458336,0.26458336 0 0 1 0.264583,0.264583 z" />
    <path
       id="path26"
       style="fill:#ffffff;stroke:none;stroke-width:0.0374177;stroke-linecap:round;stroke-opacity:1"
       d="m 25.074444,9.3310658 a 0.26458336,0.26458336 0 0 1 -0.264583,0.264584 0.26458336,0.26458336 0 0 1 -0.264584,-0.264584 0.26458336,0.26458336 0 0 1 0.264584,-0.264583 0.26458336,0.26458336 0 0 1 0.264583,0.264583 z" />
    <path
       id="path27"
       style="fill:#ffffff;stroke:none;stroke-width:0.0374177;stroke-linecap:round;stroke-opacity:1"
       d="m 22.428609,4.0393992 a 0.26458336,0.26458336 0 0 1 -0.264583,0.264584 0.26458336,0.26458336 0 0 1 -0.264584,-0.264584 0.26458336,0.26458336 0 0 1 0.264584,-0.264583 0.26458336,0.26458336 0 0 1 0.264583,0.264583 z" />
    <path
       id="path28"
       style="fill:#ffffff;stroke:none;stroke-width:0.0374177;stroke-linecap:round;stroke-opacity:1"
       d="m 29.307777,3.5102325 a 0.26458336,0.26458336 0 0 1 -0.264583,0.264584 0.26458336,0.26458336 0 0 1 -0.264584,-0.264584 0.26458336,0.26458336 0 0 1 0.264584,-0.264583 0.26458336,0.26458336 0 0 1 0.264583,0.264583 z" />
    <path
       id="path29"
       style="fill:#ffffff;stroke:none;stroke-width:0.0374177;stroke-linecap:round;stroke-opacity:1"
       d="M 16.078599,10.3894 A 0.26458336,0.26458336 0 0 1 15.814016,10.653984 0.26458336,0.26458336 0 0 1 15.549432,10.3894 0.26458336,0.26458336 0 0 1 15.814016,10.124817 0.26458336,0.26458336 0 0 1 16.078599,10.3894 Z" />
    <path
       id="path30"
       style="fill:#ffffff;stroke:none;stroke-width:0.0374177;stroke-linecap:round;stroke-opacity:1"
       d="m 8.1410982,14.622733 a 0.26458336,0.26458336 0 0 1 -0.2645827,0.264584 0.26458336,0.26458336 0 0 1 -0.264584,-0.264584 0.26458336,0.26458336 0 0 1 0.264584,-0.264583 0.26458336,0.26458336 0 0 1 0.2645827,0.264583 z" />
    <path
       id="path31"
       style="fill:#ffffff;stroke:none;stroke-width:0.0374177;stroke-linecap:round;stroke-opacity:1"
       d="M 4.4369447,18.856066 A 0.26458336,0.26458336 0 0 1 4.1723612,19.12065 0.26458336,0.26458336 0 0 1 3.9077778,18.856066 0.26458336,0.26458336 0 0 1 4.1723612,18.591483 0.26458336,0.26458336 0 0 1 4.4369447,18.856066 Z" />
    <path
       id="path32"
       style="fill:#ffffff;stroke:none;stroke-width:0.0374177;stroke-linecap:round;stroke-opacity:1"
       d="M 6.0244448,23.618566 A 0.26458336,0.26458336 0 0 1 5.7598613,23.88315 0.26458336,0.26458336 0 0 1 5.4952779,23.618566 0.26458336,0.26458336 0 0 1 5.7598613,23.353983 0.26458336,0.26458336 0 0 1 6.0244448,23.618566 Z" />
    <path
       id="path33"
       style="fill:#ffffff;stroke:none;stroke-width:0.0374177;stroke-linecap:round;stroke-opacity:1"
       d="m 14.49111,19.914399 a 0.26458336,0.26458336 0 0 1 -0.264583,0.264584 0.26458336,0.26458336 0 0 1 -0.264584,-0.264584 0.26458336,0.26458336 0 0 1 0.264584,-0.264583 0.26458336,0.26458336 0 0 1 0.264583,0.264583 z" />
    <path
       id="path34"
       style="fill:#ffffff;stroke:none;stroke-width:0.0374177;stroke-linecap:round;stroke-opacity:1"
       d="m 25.074444,25.206066 a 0.26458336,0.26458336 0 0 1 -0.264583,0.264584 0.26458336,0.26458336 0 0 1 -0.264584,-0.264584 0.26458336,0.26458336 0 0 1 0.264584,-0.264583 0.26458336,0.26458336 0 0 1 0.264583,0.264583 z" />
    <path
       id="path35"
       style="fill:#ffffff;stroke:none;stroke-width:0.0374177;stroke-linecap:round;stroke-opacity:1"
       d="m 22.428609,19.914399 a 0.26458336,0.26458336 0 0 1 -0.264583,0.264584 0.26458336,0.26458336 0 0 1 -0.264584,-0.264584 0.26458336,0.26458336 0 0 1 0.264584,-0.264583 0.26458336,0.26458336 0 0 1 0.264583,0.264583 z" />
    <path
       id="path36"
       style="fill:#ffffff;stroke:none;stroke-width:0.0374177;stroke-linecap:round;stroke-opacity:1"
       d="m 29.307777,19.385233 a 0.26458336,0.26458336 0 0 1 -0.264583,0.264584 0.26458336,0.26458336 0 0 1 -0.264584,-0.264584 0.26458336,0.26458336 0 0 1 0.264584,-0.264583 0.26458336,0.26458336 0 0 1 0.264583,0.264583 z" />
    <path
       id="path37"
       style="fill:#ffffff;stroke:none;stroke-width:0.0374177;stroke-linecap:round;stroke-opacity:1"
       d="m 16.078599,26.264401 a 0.26458336,0.26458336 0 0 1 -0.264583,0.264584 0.26458336,0.26458336 0 0 1 -0.264584,-0.264584 0.26458336,0.26458336 0 0 1 0.264584,-0.264583 0.26458336,0.26458336 0 0 1 0.264583,0.264583 z" />
    <path
       id="path38"
       style="fill:#ffffff;stroke:none;stroke-width:0.0374177;stroke-linecap:round;stroke-opacity:1"
       d="m 8.1410982,30.497734 a 0.26458336,0.26458336 0 0 1 -0.2645827,0.264584 0.26458336,0.26458336 0 0 1 -0.264584,-0.264584 0.26458336,0.26458336 0 0 1 0.264584,-0.264583 0.26458336,0.26458336 0 0 1 0.2645827,0.264583 z" />
    <path
       id="path39"
       style="fill:#ffffff;stroke:none;stroke-width:0.0374177;stroke-linecap:round;stroke-opacity:1"
       d="M 4.4369447,34.731067 A 0.26458336,0.26458336 0 0 1 4.1723612,34.995651 0.26458336,0.26458336 0 0 1 3.9077778,34.731067 0.26458336,0.26458336 0 0 1 4.1723612,34.466484 0.26458336,0.26458336 0 0 1 4.4369447,34.731067 Z" />
    <path
       id="path40"
       style="fill:#ffffff;stroke:none;stroke-width:0.0374177;stroke-linecap:round;stroke-opacity:1"
       d="M 6.0244448,39.493567 A 0.26458336,0.26458336 0 0 1 5.7598613,39.758151 0.26458336,0.26458336 0 0 1 5.4952779,39.493567 0.26458336,0.26458336 0 0 1 5.7598613,39.228984 0.26458336,0.26458336 0 0 1 6.0244448,39.493567 Z" />
    <path
       id="path41"
       style="fill:#ffffff;stroke:none;stroke-width:0.0374177;stroke-linecap:round;stroke-opacity:1"
       d="M 14.49111,35.7894 A 0.26458336,0.26458336 0 0 1 14.226527,36.053984 0.26458336,0.26458336 0 0 1 13.961943,35.7894 0.26458336,0.26458336 0 0 1 14.226527,35.524817 0.26458336,0.26458336 0 0 1 14.49111,35.7894 Z" />
    <path
       id="path42"
       style="fill:#ffffff;stroke:none;stroke-width:0.0374177;stroke-linecap:round;stroke-opacity:1"
       d="m 25.074444,41.081067 a 0.26458336,0.26458336 0 0 1 -0.264583,0.264584 0.26458336,0.26458336 0 0 1 -0.264584,-0.264584 0.26458336,0.26458336 0 0 1 0.264584,-0.264583 0.26458336,0.26458336 0 0 1 0.264583,0.264583 z" />
    <path
       id="path43"
       style="fill:#ffffff;stroke:none;stroke-width:0.0374177;stroke-linecap:round;stroke-opacity:1"
       d="M 22.428609,35.7894 A 0.26458336,0.26458336 0 0 1 22.164026,36.053984 0.26458336,0.26458336 0 0 1 21.899442,35.7894 0.26458336,0.26458336 0 0 1 22.164026,35.524817 0.26458336,0.26458336 0 0 1 22.428609,35.7894 Z" />
    <path
       id="path44"
       style="fill:#ffffff;stroke:none;stroke-width:0.0374177;stroke-linecap:round;stroke-opacity:1"
       d="m 29.307777,35.260234 a 0.26458336,0.26458336 0 0 1 -0.264583,0.264584 0.26458336,0.26458336 0 0 1 -0.264584,-0.264584 0.26458336,0.26458336 0 0 1 0.264584,-0.264583 0.26458336,0.26458336 0 0 1 0.264583,0.264583 z" />
    <path
       id="path45"
       style="fill:#ffffff;stroke:none;stroke-width:0.0374177;stroke-linecap:round;stroke-opacity:1"
       d="m 16.078599,42.139402 a 0.26458336,0.26458336 0 0 1 -0.264583,0.264584 0.26458336,0.26458336 0 0 1 -0.264584,-0.264584 0.26458336,0.26458336 0 0 1 0.264584,-0.264583 0.26458336,0.26458336 0 0 1 0.264583,0.264583 z" />
    <path
       id="path46"
       style="fill:#ffffff;stroke:none;stroke-width:0.0374177;stroke-linecap:round;stroke-opacity:1"
       d="m 8.1410982,46.372735 a 0.26458336,0.26458336 0 0 1 -0.2645827,0.264584 0.26458336,0.26458336 0 0 1 -0.264584,-0.264584 0.26458336,0.26458336 0 0 1 0.264584,-0.264583 0.26458336,0.26458336 0 0 1 0.2645827,0.264583 z" />
    <path
       id="path47"
       style="fill:#ffffff;stroke:none;stroke-width:0.0374177;stroke-linecap:round;stroke-opacity:1"
       d="m 20.311945,45.314401 a 0.26458336,0.26458336 0 0 1 -0.264584,0.264584 0.26458336,0.26458336 0 0 1 -0.264583,-0.264584 0.26458336,0.26458336 0 0 1 0.264583,-0.264583 0.26458336,0.26458336 0 0 1 0.264584,0.264583 z" />
    <path
       id="path49"
       style="fill:#ffffff;stroke:none;stroke-width:0.0374177;stroke-linecap:round;stroke-opacity:1"
       d="m 30.366111,46.372734 a 0.26458336,0.26458336 0 0 1 -0.264583,0.264584 0.26458336,0.26458336 0 0 1 -0.264584,-0.264584 0.26458336,0.26458336 0 0 1 0.264584,-0.264583 0.26458336,0.26458336 0 0 1 0.264583,0.264583 z" />
    <path
       id="path71"
       style="fill:#ffffff;stroke:none;stroke-width:0.0374177;stroke-linecap:round;stroke-opacity:1"
       d="m 379.08713,2.9810658 a 0.26458336,0.26458336 0 0 0 0.26458,0.264584 0.26458336,0.26458336 0 0 0 0.26458,-0.264584 0.26458336,0.26458336 0 0 0 -0.26458,-0.264583 0.26458336,0.26458336 0 0 0 -0.26458,0.264583 z" />
    <path
       id="path72"
       style="fill:#ffffff;stroke:none;stroke-width:0.0374177;stroke-linecap:round;stroke-opacity:1"
       d="m 377.49963,7.7435657 a 0.26458336,0.26458336 0 0 0 0.26458,0.264584 0.26458336,0.26458336 0 0 0 0.26458,-0.264584 0.26458336,0.26458336 0 0 0 -0.26458,-0.264583 0.26458336,0.26458336 0 0 0 -0.26458,0.264583 z" />
    <path
       id="path73"
       style="fill:#ffffff;stroke:none;stroke-width:0.0374177;stroke-linecap:round;stroke-opacity:1"
       d="m 369.03296,4.0393992 a 0.26458336,0.26458336 0 0 0 0.26458,0.264584 0.26458336,0.26458336 0 0 0 0.26459,-0.264584 0.26458336,0.26458336 0 0 0 -0.26459,-0.264583 0.26458336,0.26458336 0 0 0 -0.26458,0.264583 z" />
    <path
       id="path74"
       style="fill:#ffffff;stroke:none;stroke-width:0.0374177;stroke-linecap:round;stroke-opacity:1"
       d="m 358.44963,9.3310658 a 0.26458336,0.26458336 0 0 0 0.26458,0.264584 0.26458336,0.26458336 0 0 0 0.26458,-0.264584 0.26458336,0.26458336 0 0 0 -0.26458,-0.264583 0.26458336,0.26458336 0 0 0 -0.26458,0.264583 z" />
    <path
       id="path75"
       style="fill:#ffffff;stroke:none;stroke-width:0.0374177;stroke-linecap:round;stroke-opacity:1"
       d="m 361.09546,4.0393992 a 0.26458336,0.26458336 0 0 0 0.26458,0.264584 0.26458336,0.26458336 0 0 0 0.26459,-0.264584 0.26458336,0.26458336 0 0 0 -0.26459,-0.264583 0.26458336,0.26458336 0 0 0 -0.26458,0.264583 z" />
    <path
       id="path76"
       style="fill:#ffffff;stroke:none;stroke-width:0.0374177;stroke-linecap:round;stroke-opacity:1"
       d="m 354.21629,3.5102325 a 0.26458336,0.26458336 0 0 0 0.26459,0.264584 0.26458336,0.26458336 0 0 0 0.26458,-0.264584 0.26458336,0.26458336 0 0 0 -0.26458,-0.264583 0.26458336,0.26458336 0 0 0 -0.26459,0.264583 z" />
    <path
       id="path77"
       style="fill:#ffffff;stroke:none;stroke-width:0.0374177;stroke-linecap:round;stroke-opacity:1"
       d="m 367.44547,10.3894 a 0.26458336,0.26458336 0 0 0 0.26458,0.264584 0.26458336,0.26458336 0 0 0 0.26459,-0.264584 0.26458336,0.26458336 0 0 0 -0.26459,-0.264583 0.26458336,0.26458336 0 0 0 -0.26458,0.264583 z" />
    <path
       id="path78"
       style="fill:#ffffff;stroke:none;stroke-width:0.0374177;stroke-linecap:round;stroke-opacity:1"
       d="m 375.38297,14.622733 a 0.26458336,0.26458336 0 0 0 0.26458,0.264584 0.26458336,0.26458336 0 0 0 0.26459,-0.264584 0.26458336,0.26458336 0 0 0 -0.26459,-0.264583 0.26458336,0.26458336 0 0 0 -0.26458,0.264583 z" />
    <path
       id="path79"
       style="fill:#ffffff;stroke:none;stroke-width:0.0374177;stroke-linecap:round;stroke-opacity:1"
       d="m 379.08713,18.856066 a 0.26458336,0.26458336 0 0 0 0.26458,0.264584 0.26458336,0.26458336 0 0 0 0.26458,-0.264584 0.26458336,0.26458336 0 0 0 -0.26458,-0.264583 0.26458336,0.26458336 0 0 0 -0.26458,0.264583 z" />
    <path
       id="path80"
       style="fill:#ffffff;stroke:none;stroke-width:0.0374177;stroke-linecap:round;stroke-opacity:1"
       d="m 377.49963,23.618566 a 0.26458336,0.26458336 0 0 0 0.26458,0.264584 0.26458336,0.26458336 0 0 0 0.26458,-0.264584 0.26458336,0.26458336 0 0 0 -0.26458,-0.264583 0.26458336,0.26458336 0 0 0 -0.26458,0.264583 z" />
    <path
       id="path81"
       style="fill:#ffffff;stroke:none;stroke-width:0.0374177;stroke-linecap:round;stroke-opacity:1"
       d="m 369.03296,19.914399 a 0.26458336,0.26458336 0 0 0 0.26458,0.264584 0.26458336,0.26458336 0 0 0 0.26459,-0.264584 0.26458336,0.26458336 0 0 0 -0.26459,-0.264583 0.26458336,0.26458336 0 0 0 -0.26458,0.264583 z" />
    <path
       id="path82"
       style="fill:#ffffff;stroke:none;stroke-width:0.0374177;stroke-linecap:round;stroke-opacity:1"
       d="m 358.44963,25.206066 a 0.26458336,0.26458336 0 0 0 0.26458,0.264584 0.26458336,0.26458336 0 0 0 0.26458,-0.264584 0.26458336,0.26458336 0 0 0 -0.26458,-0.264583 0.26458336,0.26458336 0 0 0 -0.26458,0.264583 z" />
    <path
       id="path83"
       style="fill:#ffffff;stroke:none;stroke-width:0.0374177;stroke-linecap:round;stroke-opacity:1"
       d="m 361.09546,17.268564 a 0.26458336,0.26458336 0 0 0 0.26458,0.264584 0.26458336,0.26458336 0 0 0 0.26459,-0.264584 0.26458336,0.26458336 0 0 0 -0.26459,-0.264583 0.26458336,0.26458336 0 0 0 -0.26458,0.264583 z" />
    <path
       id="path84"
       style="fill:#ffffff;stroke:none;stroke-width:0.0374177;stroke-linecap:round;stroke-opacity:1"
       d="m 354.21629,19.385233 a 0.26458336,0.26458336 0 0 0 0.26459,0.264584 0.26458336,0.26458336 0 0 0 0.26458,-0.264584 0.26458336,0.26458336 0 0 0 -0.26458,-0.264583 0.26458336,0.26458336 0 0 0 -0.26459,0.264583 z" />
    <path
       id="path85"
       style="fill:#ffffff;stroke:none;stroke-width:0.0374177;stroke-linecap:round;stroke-opacity:1"
       d="m 372.73714,20.972734 a 0.26458336,0.26458336 0 0 0 0.26458,0.264584 0.26458336,0.26458336 0 0 0 0.26459,-0.264584 0.26458336,0.26458336 0 0 0 -0.26459,-0.264583 0.26458336,0.26458336 0 0 0 -0.26458,0.264583 z" />
    <path
       id="path86"
       style="fill:#ffffff;stroke:none;stroke-width:0.0374177;stroke-linecap:round;stroke-opacity:1"
       d="m 375.38297,30.497734 a 0.26458336,0.26458336 0 0 0 0.26458,0.264584 0.26458336,0.26458336 0 0 0 0.26459,-0.264584 0.26458336,0.26458336 0 0 0 -0.26459,-0.264583 0.26458336,0.26458336 0 0 0 -0.26458,0.264583 z" />
    <path
       id="path87"
       style="fill:#ffffff;stroke:none;stroke-width:0.0374177;stroke-linecap:round;stroke-opacity:1"
       d="m 379.08713,34.731067 a 0.26458336,0.26458336 0 0 0 0.26458,0.264584 0.26458336,0.26458336 0 0 0 0.26458,-0.264584 0.26458336,0.26458336 0 0 0 -0.26458,-0.264583 0.26458336,0.26458336 0 0 0 -0.26458,0.264583 z" />
    <path
       id="path88"
       style="fill:#ffffff;stroke:none;stroke-width:0.0374177;stroke-linecap:round;stroke-opacity:1"
       d="m 377.49963,39.493567 a 0.26458336,0.26458336 0 0 0 0.26458,0.264584 0.26458336,0.26458336 0 0 0 0.26458,-0.264584 0.26458336,0.26458336 0 0 0 -0.26458,-0.264583 0.26458336,0.26458336 0 0 0 -0.26458,0.264583 z" />
    <path
       id="path89"
       style="fill:#ffffff;stroke:none;stroke-width:0.0374177;stroke-linecap:round;stroke-opacity:1"
       d="m 369.03296,35.7894 a 0.26458336,0.26458336 0 0 0 0.26458,0.264584 0.26458336,0.26458336 0 0 0 0.26459,-0.264584 0.26458336,0.26458336 0 0 0 -0.26459,-0.264583 0.26458336,0.26458336 0 0 0 -0.26458,0.264583 z" />
    <path
       id="path90"
       style="fill:#ffffff;stroke:none;stroke-width:0.0374177;stroke-linecap:round;stroke-opacity:1"
       d="m 358.44963,41.081067 a 0.26458336,0.26458336 0 0 0 0.26458,0.264584 0.26458336,0.26458336 0 0 0 0.26458,-0.264584 0.26458336,0.26458336 0 0 0 -0.26458,-0.264583 0.26458336,0.26458336 0 0 0 -0.26458,0.264583 z" />
    <path
       id="path91"
       style="fill:#ffffff;stroke:none;stroke-width:0.0374177;stroke-linecap:round;stroke-opacity:1"
       d="m 361.09546,35.7894 a 0.26458336,0.26458336 0 0 0 0.26458,0.264584 0.26458336,0.26458336 0 0 0 0.26459,-0.264584 0.26458336,0.26458336 0 0 0 -0.26459,-0.264583 0.26458336,0.26458336 0 0 0 -0.26458,0.264583 z" />
    <path
       id="path92"
       style="fill:#ffffff;stroke:none;stroke-width:0.0374177;stroke-linecap:round;stroke-opacity:1"
       d="m 354.21629,35.260234 a 0.26458336,0.26458336 0 0 0 0.26459,0.264584 0.26458336,0.26458336 0 0 0 0.26458,-0.264584 0.26458336,0.26458336 0 0 0 -0.26458,-0.264583 0.26458336,0.26458336 0 0 0 -0.26459,0.264583 z" />
    <path
       id="path93"
       style="fill:#ffffff;stroke:none;stroke-width:0.0374177;stroke-linecap:round;stroke-opacity:1"
       d="m 367.44547,42.139402 a 0.26458336,0.26458336 0 0 0 0.26458,0.264584 0.26458336,0.26458336 0 0 0 0.26459,-0.264584 0.26458336,0.26458336 0 0 0 -0.26459,-0.264583 0.26458336,0.26458336 0 0 0 -0.26458,0.264583 z" />
    <path
       id="path94"
       style="fill:#ffffff;stroke:none;stroke-width:0.0374177;stroke-linecap:round;stroke-opacity:1"
       d="m 375.38297,46.372735 a 0.26458336,0.26458336 0 0 0 0.26458,0.264584 0.26458336,0.26458336 0 0 0 0.26459,-0.264584 0.26458336,0.26458336 0 0 0 -0.26459,-0.264583 0.26458336,0.26458336 0 0 0 -0.26458,0.264583 z" />
    <path
       id="path95"
       style="fill:#ffffff;stroke:none;stroke-width:0.0374177;stroke-linecap:round;stroke-opacity:1"
       d="m 363.21213,45.314401 a 0.26458336,0.26458336 0 0 0 0.26458,0.264584 0.26458336,0.26458336 0 0 0 0.26458,-0.264584 0.26458336,0.26458336 0 0 0 -0.26458,-0.264583 0.26458336,0.26458336 0 0 0 -0.26458,0.264583 z" />
    <path
       id="path96"
       style="fill:#ffffff;stroke:none;stroke-width:0.0374177;stroke-linecap:round;stroke-opacity:1"
       d="m 361.62462,50.076901 a 0.26458336,0.26458336 0 0 0 0.26459,0.264584 0.26458336,0.26458336 0 0 0 0.26458,-0.264584 0.26458336,0.26458336 0 0 0 -0.26458,-0.264583 0.26458336,0.26458336 0 0 0 -0.26459,0.264583 z" />
    <path
       id="path97"
       style="fill:#ffffff;stroke:none;stroke-width:0.0374177;stroke-linecap:round;stroke-opacity:1"
       d="m 353.15796,46.372734 a 0.26458336,0.26458336 0 0 0 0.26458,0.264584 0.26458336,0.26458336 0 0 0 0.26459,-0.264584 0.26458336,0.26458336 0 0 0 -0.26459,-0.264583 0.26458336,0.26458336 0 0 0 -0.26458,0.264583 z" />
    <path
       id="path98"
       style="fill:#ffffff;stroke:none;stroke-width:0.0374177;stroke-linecap:round;stroke-opacity:1"
       d="m 342.57462,51.664401 a 0.26458336,0.26458336 0 0 0 0.26459,0.264584 0.26458336,0.26458336 0 0 0 0.26458,-0.264584 0.26458336,0.26458336 0 0 0 -0.26458,-0.264583 0.26458336,0.26458336 0 0 0 -0.26459,0.264583 z" />
    <path
       id="path99"
       style="fill:#ffffff;stroke:none;stroke-width:0.0374177;stroke-linecap:round;stroke-opacity:1"
       d="m 345.22046,46.372734 a 0.26458336,0.26458336 0 0 0 0.26458,0.264584 0.26458336,0.26458336 0 0 0 0.26459,-0.264584 0.26458336,0.26458336 0 0 0 -0.26459,-0.264583 0.26458336,0.26458336 0 0 0 -0.26458,0.264583 z" />
    <path
       id="path101"
       style="fill:#ffffff;stroke:none;stroke-width:0.0374177;stroke-linecap:round;stroke-opacity:1"
       d="m 347.33712,24.147733 a 0.26458336,0.26458336 0 0 0 0.26459,0.264584 0.26458336,0.26458336 0 0 0 0.26458,-0.264584 0.26458336,0.26458336 0 0 0 -0.26458,-0.264583 0.26458336,0.26458336 0 0 0 -0.26459,0.264583 z" />
    <path
       id="path102"
       style="fill:#ffffff;stroke:none;stroke-width:0.0374177;stroke-linecap:round;stroke-opacity:1"
       d="m 345.74962,28.910233 a 0.26458336,0.26458336 0 0 0 0.26459,0.264584 0.26458336,0.26458336 0 0 0 0.26458,-0.264584 0.26458336,0.26458336 0 0 0 -0.26458,-0.264583 0.26458336,0.26458336 0 0 0 -0.26459,0.264583 z" />
    <path
       id="path107"
       style="fill:#ffffff;stroke:none;stroke-width:0.0374177;stroke-linecap:round;stroke-opacity:1"
       d="m 343.63297,35.789401 a 0.26458336,0.26458336 0 0 0 0.26458,0.264584 0.26458336,0.26458336 0 0 0 0.26459,-0.264584 0.26458336,0.26458336 0 0 0 -0.26459,-0.264583 0.26458336,0.26458336 0 0 0 -0.26458,0.264583 z" />
    <path
       id="path108"
       style="fill:#ffffff;stroke:none;stroke-width:0.0374177;stroke-linecap:round;stroke-opacity:1"
       d="m 347.33712,2.9810658 a 0.26458336,0.26458336 0 0 0 0.26459,0.264584 0.26458336,0.26458336 0 0 0 0.26458,-0.264584 0.26458336,0.26458336 0 0 0 -0.26458,-0.264583 0.26458336,0.26458336 0 0 0 -0.26459,0.264583 z" />
    <path
       id="path109"
       style="fill:#ffffff;stroke:none;stroke-width:0.0374177;stroke-linecap:round;stroke-opacity:1"
       d="m 345.74962,7.7435654 a 0.26458336,0.26458336 0 0 0 0.26459,0.264584 0.26458336,0.26458336 0 0 0 0.26458,-0.264584 0.26458336,0.26458336 0 0 0 -0.26458,-0.264583 0.26458336,0.26458336 0 0 0 -0.26459,0.264583 z" />
    <path
       id="path114"
       style="fill:#ffffff;stroke:none;stroke-width:0.0374177;stroke-linecap:round;stroke-opacity:1"
       d="m 343.63297,17.268568 a 0.26458336,0.26458336 0 0 0 0.26458,0.264584 0.26458336,0.26458336 0 0 0 0.26459,-0.264584 0.26458336,0.26458336 0 0 0 -0.26459,-0.264583 0.26458336,0.26458336 0 0 0 -0.26458,0.264583 z" />
    <path
       id="rect5"
       style="fill:#aaffff;fill-opacity:1;stroke:none;stroke-width:0.585882;stroke-linecap:round;stroke-opacity:1"
       d="M 99.519393,0.06088688 H 291.0908 L 291.67169,55.176015 99.519393,53.765276 Z"
       sodipodi:nodetypes="ccccc" />
    <path
       id="path17"
       style="fill:#ffffff;stroke:none;stroke-width:0.022057;stroke-linecap:round;stroke-opacity:1"
       d="m 328.27214,19.921962 -1.50712,-0.843624 -0.7707,1.545681 0.33661,-1.694048 -1.70819,-0.255334 1.71515,-0.203355 -0.28502,-1.703487 0.72342,1.568368 1.53203,-0.797479 -1.26806,1.17266 z" />
    <path
       id="path51"
       style="fill:#ffffff;stroke:none;stroke-width:0.0374177;stroke-linecap:round;stroke-opacity:1"
       d="m 38.30361,49.018567 a 0.26458336,0.26458336 0 0 1 -0.264583,0.264584 0.26458336,0.26458336 0 0 1 -0.264584,-0.264584 0.26458336,0.26458336 0 0 1 0.264584,-0.264583 0.26458336,0.26458336 0 0 1 0.264583,0.264583 z" />
    <path
       id="path55"
       style="fill:#ffffff;stroke:none;stroke-width:0.0374177;stroke-linecap:round;stroke-opacity:1"
       d="m 36.186946,26.793566 a 0.26458336,0.26458336 0 0 1 -0.264584,0.264584 0.26458336,0.26458336 0 0 1 -0.264583,-0.264584 0.26458336,0.26458336 0 0 1 0.264583,-0.264583 0.26458336,0.26458336 0 0 1 0.264584,0.264583 z" />
    <path
       id="path56"
       style="fill:#ffffff;stroke:none;stroke-width:0.0374177;stroke-linecap:round;stroke-opacity:1"
       d="m 37.774446,31.556066 a 0.26458336,0.26458336 0 0 1 -0.264583,0.264584 0.26458336,0.26458336 0 0 1 -0.264584,-0.264584 0.26458336,0.26458336 0 0 1 0.264584,-0.264583 0.26458336,0.26458336 0 0 1 0.264583,0.264583 z" />
    <path
       id="path62"
       style="fill:#ffffff;stroke:none;stroke-width:0.0374177;stroke-linecap:round;stroke-opacity:1"
       d="m 39.8911,38.435234 a 0.26458336,0.26458336 0 0 1 -0.264583,0.264584 0.26458336,0.26458336 0 0 1 -0.264584,-0.264584 0.26458336,0.26458336 0 0 1 0.264584,-0.264583 0.26458336,0.26458336 0 0 1 0.264583,0.264583 z" />
    <path
       id="path63"
       style="fill:#ffffff;stroke:none;stroke-width:0.0374177;stroke-linecap:round;stroke-opacity:1"
       d="m 36.186946,5.6268992 a 0.26458336,0.26458336 0 0 1 -0.264584,0.264584 0.26458336,0.26458336 0 0 1 -0.264583,-0.264584 0.26458336,0.26458336 0 0 1 0.264583,-0.264583 0.26458336,0.26458336 0 0 1 0.264584,0.264583 z" />
    <path
       id="path64"
       style="fill:#ffffff;stroke:none;stroke-width:0.0374177;stroke-linecap:round;stroke-opacity:1"
       d="m 37.774446,10.389399 a 0.26458336,0.26458336 0 0 1 -0.264583,0.264584 0.26458336,0.26458336 0 0 1 -0.264584,-0.264584 0.26458336,0.26458336 0 0 1 0.264584,-0.264583 0.26458336,0.26458336 0 0 1 0.264583,0.264583 z" />
    <path
       id="path70"
       style="fill:#ffffff;stroke:none;stroke-width:0.0374177;stroke-linecap:round;stroke-opacity:1"
       d="m 39.8911,17.268566 a 0.26458336,0.26458336 0 0 1 -0.264583,0.264584 0.26458336,0.26458336 0 0 1 -0.264584,-0.264584 0.26458336,0.26458336 0 0 1 0.264584,-0.264583 0.26458336,0.26458336 0 0 1 0.264583,0.264583 z" />
    <path
       id="path100"
       style="fill:#ffffff;stroke:none;stroke-width:0.0374177;stroke-linecap:round;stroke-opacity:1"
       d="m 338.34129,48.489401 a 0.26458336,0.26458336 0 0 0 0.26458,0.264584 0.26458336,0.26458336 0 0 0 0.26459,-0.264584 0.26458336,0.26458336 0 0 0 -0.26459,-0.264583 0.26458336,0.26458336 0 0 0 -0.26458,0.264583 z" />
    <path
       id="path103"
       style="fill:#ffffff;stroke:none;stroke-width:0.0374177;stroke-linecap:round;stroke-opacity:1"
       d="m 337.28296,27.851899 a 0.26458336,0.26458336 0 0 0 0.26458,0.264584 0.26458336,0.26458336 0 0 0 0.26458,-0.264584 0.26458336,0.26458336 0 0 0 -0.26458,-0.264583 0.26458336,0.26458336 0 0 0 -0.26458,0.264583 z" />
    <path
       id="path104"
       style="fill:#ffffff;stroke:none;stroke-width:0.0374177;stroke-linecap:round;stroke-opacity:1"
       d="m 326.69962,33.143566 a 0.26458336,0.26458336 0 0 0 0.26459,0.264584 0.26458336,0.26458336 0 0 0 0.26458,-0.264584 0.26458336,0.26458336 0 0 0 -0.26458,-0.264583 0.26458336,0.26458336 0 0 0 -0.26459,0.264583 z" />
    <path
       id="path105"
       style="fill:#ffffff;stroke:none;stroke-width:0.0374177;stroke-linecap:round;stroke-opacity:1"
       d="m 329.34546,27.851899 a 0.26458336,0.26458336 0 0 0 0.26458,0.264584 0.26458336,0.26458336 0 0 0 0.26459,-0.264584 0.26458336,0.26458336 0 0 0 -0.26459,-0.264583 0.26458336,0.26458336 0 0 0 -0.26458,0.264583 z" />
    <path
       id="path106"
       style="fill:#ffffff;stroke:none;stroke-width:0.0374177;stroke-linecap:round;stroke-opacity:1"
       d="m 335.69547,34.201901 a 0.26458336,0.26458336 0 0 0 0.26458,0.264584 0.26458336,0.26458336 0 0 0 0.26459,-0.264584 0.26458336,0.26458336 0 0 0 -0.26459,-0.264583 0.26458336,0.26458336 0 0 0 -0.26458,0.264583 z" />
    <path
       id="path110"
       style="fill:#ffffff;stroke:none;stroke-width:0.0374177;stroke-linecap:round;stroke-opacity:1"
       d="m 358.44964,6.6852324 a 0.26458336,0.26458336 0 0 0 0.26458,0.264584 0.26458336,0.26458336 0 0 0 0.26458,-0.264584 0.26458336,0.26458336 0 0 0 -0.26458,-0.264583 0.26458336,0.26458336 0 0 0 -0.26458,0.264583 z" />
    <path
       id="path111"
       style="fill:#ffffff;stroke:none;stroke-width:0.0374177;stroke-linecap:round;stroke-opacity:1"
       d="m 347.8663,11.976899 a 0.26458336,0.26458336 0 0 0 0.26459,0.264584 0.26458336,0.26458336 0 0 0 0.26458,-0.264584 0.26458336,0.26458336 0 0 0 -0.26458,-0.264583 0.26458336,0.26458336 0 0 0 -0.26459,0.264583 z" />
    <path
       id="path112"
       style="fill:#ffffff;stroke:none;stroke-width:0.0374177;stroke-linecap:round;stroke-opacity:1"
       d="m 350.51214,6.6852324 a 0.26458336,0.26458336 0 0 0 0.26458,0.264584 0.26458336,0.26458336 0 0 0 0.26459,-0.264584 0.26458336,0.26458336 0 0 0 -0.26459,-0.264583 0.26458336,0.26458336 0 0 0 -0.26458,0.264583 z" />
    <path
       id="path113"
       style="fill:#ffffff;stroke:none;stroke-width:0.0374177;stroke-linecap:round;stroke-opacity:1"
       d="m 356.86215,13.035233 a 0.26458336,0.26458336 0 0 0 0.26458,0.264584 0.26458336,0.26458336 0 0 0 0.26459,-0.264584 0.26458336,0.26458336 0 0 0 -0.26459,-0.264583 0.26458336,0.26458336 0 0 0 -0.26458,0.264583 z" />
    <path
       id="circle130"
       style="fill:#ffff00;stroke-width:0.264583;stroke-linecap:round"
       transform="scale(1,-1)"
       d="m 197.83801,-12.816959 c 0,1.059094 -0.21464,2.068056 -0.6028,2.9857585 -0.38815,0.9177024 -0.94982,1.7441453 -1.64388,2.4382013 -0.69406,0.694056 -1.5205,1.2557252 -2.4382,1.6438802 -0.9177,0.388155 -1.92667,0.6027959 -2.98576,0.6027953 -1.05909,-6e-7 -2.06805,-0.2146423 -2.98576,-0.6027979 -0.9177,-0.3881555 -1.74414,-0.9498249 -2.43819,-1.6438809 -0.69406,-0.6940559 -1.25573,-1.5204985 -1.64388,-2.4382003 -0.38816,-0.9177022 -0.6028,-1.9266632 -0.6028,-2.9857562 0,-1.059093 0.21464,-2.068054 0.6028,-2.985756 0.38815,-0.917702 0.94982,-1.744145 1.64388,-2.438201 0.69405,-0.694056 1.52049,-1.255725 2.43819,-1.643881 0.91771,-0.388155 1.92667,-0.602797 2.98576,-0.602798 1.05909,-1e-6 2.06806,0.21464 2.98576,0.602795 0.9177,0.388155 1.74414,0.949824 2.4382,1.64388 0.69406,0.694057 1.25573,1.5205 1.64388,2.438202 0.38816,0.917703 0.6028,1.926665 0.6028,2.985759 z"
       sodipodi:nodetypes="sssssssssssssssss" />
    <path
       id="path135"
       style="fill:#aaaaaa;stroke:#000000;stroke-width:0.432857;stroke-linecap:round"
       d="m 43.977273,25.519815 c 0,4.4e-4 -0.0051,9.15e-4 -0.01337,0.0014 -0.0083,5.15e-4 -0.01975,0.0011 -0.03249,0.0017 -0.01273,6e-4 -0.02674,0.0012 -0.04012,0.0019 -0.01337,6.5e-4 -0.0261,0.0013 -0.03627,0.002 -0.01018,7.5e-4 -0.02036,0.0015 -0.03053,0.0023 -0.01017,8e-4 -0.02034,0.0016 -0.03051,0.0025 -0.01017,8.5e-4 -0.02033,0.0018 -0.0305,0.0027 -0.01016,9.5e-4 -0.02032,0.002 -0.03047,0.003 0.12883,0.1029 0.250935,0.212426 0.365984,0.32789 0.115049,0.115465 0.223041,0.236868 0.323646,0.363521 0.100605,0.126654 0.193823,0.258557 0.279322,0.395023 0.0855,0.136466 0.16328,0.277494 0.23301,0.422395 0.06973,0.144902 0.131411,0.293677 0.184711,0.445638 0.0533,0.151961 0.09822,0.307107 0.134425,0.464751 0.0362,0.157644 0.0637,0.317785 0.08215,0.479736 0.01845,0.16195 0.02786,0.325709 0.02789,0.490589 -7.8e-5,0.286466 -0.028,0.566751 -0.08127,0.8382 -0.05327,0.271449 -0.131895,0.534064 -0.233373,0.785189 -0.101478,0.251126 -0.22581,0.490762 -0.370502,0.716256 -0.144693,0.225494 -0.309745,0.436845 -0.492662,0.631399 -0.182917,0.194555 -0.3837,0.372314 -0.599852,0.530622 -0.216152,0.158308 -0.447674,0.297166 -0.692072,0.413921 -0.244397,0.116754 -0.501669,0.211405 -0.769321,0.281298 -0.267653,0.06989 -0.545685,0.115028 -0.831602,0.132753 0.09542,0.07582 0.193688,0.147342 0.2945,0.214468 0.100813,0.06713 0.204171,0.129855 0.309779,0.188082 0.105608,0.05823 0.213465,0.111951 0.323272,0.161068 0.109808,0.04912 0.221567,0.09363 0.334979,0.133426 0.113412,0.0398 0.228477,0.07489 0.344898,0.10516 0.116421,0.03027 0.234197,0.05573 0.353031,0.07626 0.118834,0.02054 0.238727,0.03615 0.359379,0.04674 0.120652,0.01059 0.242065,0.01616 0.363939,0.0166 0.299563,6e-6 0.592036,-0.03034 0.874511,-0.08814 0.282476,-0.0578 0.554952,-0.143045 0.814523,-0.252831 0.259571,-0.109786 0.506235,-0.244112 0.737084,-0.400069 0.23085,-0.155958 0.445885,-0.333547 0.642197,-0.529858 0.196312,-0.196312 0.373901,-0.411347 0.529858,-0.642197 0.155957,-0.230849 0.290283,-0.477514 0.40007,-0.737084 0.109786,-0.259571 0.195032,-0.532048 0.252831,-0.814523 0.0578,-0.282475 0.08815,-0.574948 0.08814,-0.874511 6e-6,-0.299563 -0.03034,-0.592036 -0.08814,-0.874512 -0.0578,-0.282475 -0.143045,-0.554952 -0.252831,-0.814523 -0.109786,-0.259571 -0.244112,-0.506235 -0.400069,-0.737084 -0.155958,-0.23085 -0.333547,-0.445885 -0.529858,-0.642197 -0.196312,-0.196312 -0.486238,-0.373901 -0.810701,-0.529858 -0.324463,-0.155958 -0.683463,-0.290284 -1.017925,-0.40007 -0.334462,-0.109786 -0.644384,-0.195033 -0.870691,-0.252831 -0.226307,-0.0578 -0.368999,-0.08815 -0.368999,-0.08814 v 0 0 -1e-6 0 0 0 -2.7e-5 z"
       sodipodi:nodetypes="cscscscscscscscscscscscscscscscscscscscscscscscsccccccccc" />
    <path
       id="path136"
       style="fill:#ffffff;stroke:none;stroke-width:0.022057;stroke-linecap:round;stroke-opacity:1"
       d="m 333.56381,5.6344614 -1.50712,-0.843624 -0.7707,1.545681 0.33661,-1.6940476 -1.70819,-0.255334 1.71515,-0.203355 -0.28502,-1.703487 0.72342,1.568368 1.53203,-0.797479 -1.26806,1.17266 z" />
    <path
       id="path137"
       style="fill:#ffffff;stroke:none;stroke-width:0.0374177;stroke-linecap:round;stroke-opacity:1"
       d="m 343.63295,5.6268994 a 0.26458336,0.26458336 0 0 0 0.26459,0.264584 0.26458336,0.26458336 0 0 0 0.26458,-0.264584 0.26458336,0.26458336 0 0 0 -0.26458,-0.264583 0.26458336,0.26458336 0 0 0 -0.26459,0.264583 z" />
    <path
       id="path138"
       style="fill:#ffffff;stroke:none;stroke-width:0.0374177;stroke-linecap:round;stroke-opacity:1"
       d="m 336.75378,5.0977324 a 0.26458336,0.26458336 0 0 0 0.26459,0.264584 0.26458336,0.26458336 0 0 0 0.26458,-0.264584 0.26458336,0.26458336 0 0 0 -0.26458,-0.264583 0.26458336,0.26458336 0 0 0 -0.26459,0.264583 z" />
    <path
       id="path139"
       style="fill:#ffffff;stroke:none;stroke-width:0.0374177;stroke-linecap:round;stroke-opacity:1"
       d="m 335.16628,9.8602324 a 0.26458336,0.26458336 0 0 0 0.26459,0.2645836 0.26458336,0.26458336 0 0 0 0.26458,-0.2645836 0.26458336,0.26458336 0 0 0 -0.26458,-0.264583 0.26458336,0.26458336 0 0 0 -0.26459,0.264583 z" />
    <path
       id="path6"
       style="fill:#ffffff;stroke:none;stroke-width:0.0198168;stroke-linecap:round;stroke-opacity:1"
       d="m 61.187674,10.998751 -1.354045,-0.75794 -0.692419,1.388692 0.302421,-1.521989 -1.534694,-0.2294006 1.540951,-0.182701 -0.256074,-1.530469 0.649939,1.409074 1.376432,-0.716481 -1.139266,1.053556 z" />
    <path
       id="path7"
       style="fill:#ffffff;stroke:none;stroke-width:0.0374177;stroke-linecap:round;stroke-opacity:1"
       d="m 46.241112,4.0393992 a 0.26458336,0.26458336 0 0 1 -0.264583,0.264584 0.26458336,0.26458336 0 0 1 -0.264584,-0.264584 0.26458336,0.26458336 0 0 1 0.264584,-0.264583 0.26458336,0.26458336 0 0 1 0.264583,0.264583 z" />
    <path
       id="path8"
       style="fill:#ffffff;stroke:none;stroke-width:0.0374177;stroke-linecap:round;stroke-opacity:1"
       d="m 56.824446,9.3310658 a 0.26458336,0.26458336 0 0 1 -0.264583,0.264584 0.26458336,0.26458336 0 0 1 -0.264584,-0.264584 0.26458336,0.26458336 0 0 1 0.264584,-0.264583 0.26458336,0.26458336 0 0 1 0.264583,0.264583 z" />
    <path
       id="path9"
       style="fill:#ffffff;stroke:none;stroke-width:0.0374177;stroke-linecap:round;stroke-opacity:1"
       d="m 54.178611,4.0393992 a 0.26458336,0.26458336 0 0 1 -0.264583,0.264584 0.26458336,0.26458336 0 0 1 -0.264584,-0.264584 0.26458336,0.26458336 0 0 1 0.264584,-0.264583 0.26458336,0.26458336 0 0 1 0.264583,0.264583 z" />
    <path
       id="path10"
       style="fill:#ffffff;stroke:none;stroke-width:0.0374177;stroke-linecap:round;stroke-opacity:1"
       d="m 61.057779,3.5102325 a 0.26458336,0.26458336 0 0 1 -0.264583,0.264584 0.26458336,0.26458336 0 0 1 -0.264584,-0.264584 0.26458336,0.26458336 0 0 1 0.264584,-0.264583 0.26458336,0.26458336 0 0 1 0.264583,0.264583 z" />
    <path
       id="path11"
       style="fill:#ffffff;stroke:none;stroke-width:0.0374177;stroke-linecap:round;stroke-opacity:1"
       d="M 47.828601,10.3894 A 0.26458336,0.26458336 0 0 1 47.564018,10.653984 0.26458336,0.26458336 0 0 1 47.299434,10.3894 0.26458336,0.26458336 0 0 1 47.564018,10.124817 0.26458336,0.26458336 0 0 1 47.828601,10.3894 Z" />
    <path
       id="path12"
       style="fill:#ffffff;stroke:none;stroke-width:0.0374177;stroke-linecap:round;stroke-opacity:1"
       d="m 46.241112,19.914399 a 0.26458336,0.26458336 0 0 1 -0.264583,0.264584 0.26458336,0.26458336 0 0 1 -0.264584,-0.264584 0.26458336,0.26458336 0 0 1 0.264584,-0.264583 0.26458336,0.26458336 0 0 1 0.264583,0.264583 z" />
    <path
       id="path13"
       style="fill:#ffffff;stroke:none;stroke-width:0.0374177;stroke-linecap:round;stroke-opacity:1"
       d="m 56.824446,25.206066 a 0.26458336,0.26458336 0 0 1 -0.264583,0.264584 0.26458336,0.26458336 0 0 1 -0.264584,-0.264584 0.26458336,0.26458336 0 0 1 0.264584,-0.264583 0.26458336,0.26458336 0 0 1 0.264583,0.264583 z" />
    <path
       id="path14"
       style="fill:#ffffff;stroke:none;stroke-width:0.0374177;stroke-linecap:round;stroke-opacity:1"
       d="m 54.178611,19.914399 a 0.26458336,0.26458336 0 0 1 -0.264583,0.264584 0.26458336,0.26458336 0 0 1 -0.264584,-0.264584 0.26458336,0.26458336 0 0 1 0.264584,-0.264583 0.26458336,0.26458336 0 0 1 0.264583,0.264583 z" />
    <path
       id="path15"
       style="fill:#ffffff;stroke:none;stroke-width:0.0374177;stroke-linecap:round;stroke-opacity:1"
       d="m 61.057779,19.385233 a 0.26458336,0.26458336 0 0 1 -0.264583,0.264584 0.26458336,0.26458336 0 0 1 -0.264584,-0.264584 0.26458336,0.26458336 0 0 1 0.264584,-0.264583 0.26458336,0.26458336 0 0 1 0.264583,0.264583 z" />
    <path
       id="path16"
       style="fill:#ffffff;stroke:none;stroke-width:0.0374177;stroke-linecap:round;stroke-opacity:1"
       d="m 47.828601,26.264401 a 0.26458336,0.26458336 0 0 1 -0.264583,0.264584 0.26458336,0.26458336 0 0 1 -0.264584,-0.264584 0.26458336,0.26458336 0 0 1 0.264584,-0.264583 0.26458336,0.26458336 0 0 1 0.264583,0.264583 z" />
    <path
       id="path22"
       style="fill:#ffffff;stroke:none;stroke-width:0.0374177;stroke-linecap:round;stroke-opacity:1"
       d="M 46.241112,35.7894 A 0.26458336,0.26458336 0 0 1 45.976529,36.053984 0.26458336,0.26458336 0 0 1 45.711945,35.7894 0.26458336,0.26458336 0 0 1 45.976529,35.524817 0.26458336,0.26458336 0 0 1 46.241112,35.7894 Z" />
    <path
       id="path48"
       style="fill:#ffffff;stroke:none;stroke-width:0.0374177;stroke-linecap:round;stroke-opacity:1"
       d="m 56.824446,41.081067 a 0.26458336,0.26458336 0 0 1 -0.264583,0.264584 0.26458336,0.26458336 0 0 1 -0.264584,-0.264584 0.26458336,0.26458336 0 0 1 0.264584,-0.264583 0.26458336,0.26458336 0 0 1 0.264583,0.264583 z" />
    <path
       id="path50"
       style="fill:#ffffff;stroke:none;stroke-width:0.0374177;stroke-linecap:round;stroke-opacity:1"
       d="M 54.178611,35.7894 A 0.26458336,0.26458336 0 0 1 53.914028,36.053984 0.26458336,0.26458336 0 0 1 53.649444,35.7894 0.26458336,0.26458336 0 0 1 53.914028,35.524817 0.26458336,0.26458336 0 0 1 54.178611,35.7894 Z" />
    <path
       id="path58"
       style="fill:#ffffff;stroke:none;stroke-width:0.0374177;stroke-linecap:round;stroke-opacity:1"
       d="m 61.057779,35.260234 a 0.26458336,0.26458336 0 0 1 -0.264583,0.264584 0.26458336,0.26458336 0 0 1 -0.264584,-0.264584 0.26458336,0.26458336 0 0 1 0.264584,-0.264583 0.26458336,0.26458336 0 0 1 0.264583,0.264583 z" />
    <path
       id="path59"
       style="fill:#ffffff;stroke:none;stroke-width:0.0374177;stroke-linecap:round;stroke-opacity:1"
       d="m 47.828601,42.139402 a 0.26458336,0.26458336 0 0 1 -0.264583,0.264584 0.26458336,0.26458336 0 0 1 -0.264584,-0.264584 0.26458336,0.26458336 0 0 1 0.264584,-0.264583 0.26458336,0.26458336 0 0 1 0.264583,0.264583 z" />
    <path
       id="path60"
       style="fill:#ffffff;stroke:none;stroke-width:0.0374177;stroke-linecap:round;stroke-opacity:1"
       d="m 52.061947,45.314401 a 0.26458336,0.26458336 0 0 1 -0.264584,0.264584 0.26458336,0.26458336 0 0 1 -0.264583,-0.264584 0.26458336,0.26458336 0 0 1 0.264583,-0.264583 0.26458336,0.26458336 0 0 1 0.264584,0.264583 z" />
    <path
       id="path69"
       style="fill:#ffffff;stroke:none;stroke-width:0.0374177;stroke-linecap:round;stroke-opacity:1"
       d="m 62.116113,46.372734 a 0.26458336,0.26458336 0 0 1 -0.264583,0.264584 0.26458336,0.26458336 0 0 1 -0.264584,-0.264584 0.26458336,0.26458336 0 0 1 0.264584,-0.264583 0.26458336,0.26458336 0 0 1 0.264583,0.264583 z" />
    <path
       id="path121"
       style="fill:#ffffff;stroke:none;stroke-width:0.0374177;stroke-linecap:round;stroke-opacity:1"
       d="m 70.053612,49.018567 a 0.26458336,0.26458336 0 0 1 -0.264583,0.264584 0.26458336,0.26458336 0 0 1 -0.264584,-0.264584 0.26458336,0.26458336 0 0 1 0.264584,-0.264583 0.26458336,0.26458336 0 0 1 0.264583,0.264583 z" />
    <path
       id="path122"
       style="fill:#ffffff;stroke:none;stroke-width:0.0374177;stroke-linecap:round;stroke-opacity:1"
       d="m 67.936948,26.793566 a 0.26458336,0.26458336 0 0 1 -0.264584,0.264584 0.26458336,0.26458336 0 0 1 -0.264583,-0.264584 0.26458336,0.26458336 0 0 1 0.264583,-0.264583 0.26458336,0.26458336 0 0 1 0.264584,0.264583 z" />
    <path
       id="path123"
       style="fill:#ffffff;stroke:none;stroke-width:0.0374177;stroke-linecap:round;stroke-opacity:1"
       d="m 69.524448,31.556066 a 0.26458336,0.26458336 0 0 1 -0.264583,0.264584 0.26458336,0.26458336 0 0 1 -0.264584,-0.264584 0.26458336,0.26458336 0 0 1 0.264584,-0.264583 0.26458336,0.26458336 0 0 1 0.264583,0.264583 z" />
    <path
       id="path124"
       style="fill:#ffffff;stroke:none;stroke-width:0.0374177;stroke-linecap:round;stroke-opacity:1"
       d="m 67.936948,5.6268992 a 0.26458336,0.26458336 0 0 1 -0.264584,0.264584 0.26458336,0.26458336 0 0 1 -0.264583,-0.264584 0.26458336,0.26458336 0 0 1 0.264583,-0.264583 0.26458336,0.26458336 0 0 1 0.264584,0.264583 z" />
    <path
       id="path125"
       style="fill:#ffffff;stroke:none;stroke-width:0.0374177;stroke-linecap:round;stroke-opacity:1"
       d="m 69.524448,10.389399 a 0.26458336,0.26458336 0 0 1 -0.264583,0.264584 0.26458336,0.26458336 0 0 1 -0.264584,-0.264584 0.26458336,0.26458336 0 0 1 0.264584,-0.264583 0.26458336,0.26458336 0 0 1 0.264583,0.264583 z" />
    <path
       id="path126"
       style="fill:#ffffff;stroke:none;stroke-width:0.0374177;stroke-linecap:round;stroke-opacity:1"
       d="m 72.170278,2.9810658 a 0.26458336,0.26458336 0 0 1 -0.264584,0.264584 0.26458336,0.26458336 0 0 1 -0.264583,-0.264584 0.26458336,0.26458336 0 0 1 0.264583,-0.264583 0.26458336,0.26458336 0 0 1 0.264584,0.264583 z" />
    <path
       id="path130"
       style="fill:#ffffff;stroke:none;stroke-width:0.0275999;stroke-linecap:round;stroke-opacity:1"
       inkscape:transform-center-x="-0.059908615"
       inkscape:transform-center-y="-0.19678551"
       d="m 78.902827,41.2503 -1.522022,-1.764547 -2.147005,0.905838 1.764547,-1.522021 -0.905839,-2.147005 1.522022,1.764546 2.147005,-0.905838 -1.764546,1.522022 z" />
    <path
       id="path131"
       style="fill:#ffffff;stroke:none;stroke-width:0.0374177;stroke-linecap:round;stroke-opacity:1"
       d="m 73.757778,7.7435657 a 0.26458336,0.26458336 0 0 1 -0.264583,0.264584 0.26458336,0.26458336 0 0 1 -0.264584,-0.264584 0.26458336,0.26458336 0 0 1 0.264584,-0.264583 0.26458336,0.26458336 0 0 1 0.264583,0.264583 z" />
    <path
       id="path140"
       style="fill:#ffffff;stroke:none;stroke-width:0.0374177;stroke-linecap:round;stroke-opacity:1"
       d="m 82.224444,4.0393992 a 0.26458336,0.26458336 0 0 1 -0.264583,0.264584 0.26458336,0.26458336 0 0 1 -0.264584,-0.264584 0.26458336,0.26458336 0 0 1 0.264584,-0.264583 0.26458336,0.26458336 0 0 1 0.264583,0.264583 z" />
    <path
       id="path141"
       style="fill:#ffffff;stroke:none;stroke-width:0.0374177;stroke-linecap:round;stroke-opacity:1"
       d="m 90.161943,4.0393992 a 0.26458336,0.26458336 0 0 1 -0.264583,0.264584 0.26458336,0.26458336 0 0 1 -0.264584,-0.264584 0.26458336,0.26458336 0 0 1 0.264584,-0.264583 0.26458336,0.26458336 0 0 1 0.264583,0.264583 z" />
    <path
       id="path142"
       style="fill:#ffffff;stroke:none;stroke-width:0.0374177;stroke-linecap:round;stroke-opacity:1"
       d="M 83.811933,10.3894 A 0.26458336,0.26458336 0 0 1 83.54735,10.653984 0.26458336,0.26458336 0 0 1 83.282766,10.3894 0.26458336,0.26458336 0 0 1 83.54735,10.124817 0.26458336,0.26458336 0 0 1 83.811933,10.3894 Z" />
    <path
       id="path143"
       style="fill:#ffffff;stroke:none;stroke-width:0.0374177;stroke-linecap:round;stroke-opacity:1"
       d="m 75.874432,14.622733 a 0.26458336,0.26458336 0 0 1 -0.264583,0.264584 0.26458336,0.26458336 0 0 1 -0.264584,-0.264584 0.26458336,0.26458336 0 0 1 0.264584,-0.264583 0.26458336,0.26458336 0 0 1 0.264583,0.264583 z" />
    <path
       id="path144"
       style="fill:#ffffff;stroke:none;stroke-width:0.0374177;stroke-linecap:round;stroke-opacity:1"
       d="m 72.170278,18.856066 a 0.26458336,0.26458336 0 0 1 -0.264584,0.264584 0.26458336,0.26458336 0 0 1 -0.264583,-0.264584 0.26458336,0.26458336 0 0 1 0.264583,-0.264583 0.26458336,0.26458336 0 0 1 0.264584,0.264583 z" />
    <path
       id="path145"
       style="fill:#ffffff;stroke:none;stroke-width:0.0374177;stroke-linecap:round;stroke-opacity:1"
       d="m 73.757778,23.618566 a 0.26458336,0.26458336 0 0 1 -0.264583,0.264584 0.26458336,0.26458336 0 0 1 -0.264584,-0.264584 0.26458336,0.26458336 0 0 1 0.264584,-0.264583 0.26458336,0.26458336 0 0 1 0.264583,0.264583 z" />
    <path
       id="path146"
       style="fill:#ffffff;stroke:none;stroke-width:0.0374177;stroke-linecap:round;stroke-opacity:1"
       d="m 82.224444,19.914399 a 0.26458336,0.26458336 0 0 1 -0.264583,0.264584 0.26458336,0.26458336 0 0 1 -0.264584,-0.264584 0.26458336,0.26458336 0 0 1 0.264584,-0.264583 0.26458336,0.26458336 0 0 1 0.264583,0.264583 z" />
    <path
       id="path149"
       style="fill:#ffffff;stroke:none;stroke-width:0.0374177;stroke-linecap:round;stroke-opacity:1"
       d="m 75.874432,30.497734 a 0.26458336,0.26458336 0 0 1 -0.264583,0.264584 0.26458336,0.26458336 0 0 1 -0.264584,-0.264584 0.26458336,0.26458336 0 0 1 0.264584,-0.264583 0.26458336,0.26458336 0 0 1 0.264583,0.264583 z" />
    <path
       id="path150"
       style="fill:#ffffff;stroke:none;stroke-width:0.0374177;stroke-linecap:round;stroke-opacity:1"
       d="m 72.170278,34.731067 a 0.26458336,0.26458336 0 0 1 -0.264584,0.264584 0.26458336,0.26458336 0 0 1 -0.264583,-0.264584 0.26458336,0.26458336 0 0 1 0.264583,-0.264583 0.26458336,0.26458336 0 0 1 0.264584,0.264583 z" />
    <path
       id="path151"
       style="fill:#ffffff;stroke:none;stroke-width:0.0374177;stroke-linecap:round;stroke-opacity:1"
       d="m 73.757778,39.493567 a 0.26458336,0.26458336 0 0 1 -0.264583,0.264584 0.26458336,0.26458336 0 0 1 -0.264584,-0.264584 0.26458336,0.26458336 0 0 1 0.264584,-0.264583 0.26458336,0.26458336 0 0 1 0.264583,0.264583 z" />
    <path
       id="path155"
       style="fill:#ffffff;stroke:none;stroke-width:0.0374177;stroke-linecap:round;stroke-opacity:1"
       d="m 75.874432,46.372735 a 0.26458336,0.26458336 0 0 1 -0.264583,0.264584 0.26458336,0.26458336 0 0 1 -0.264584,-0.264584 0.26458336,0.26458336 0 0 1 0.264584,-0.264583 0.26458336,0.26458336 0 0 1 0.264583,0.264583 z" />
    <path
       id="path156"
       style="fill:#aaaaaa;stroke:#000000;stroke-width:0.432857;stroke-linecap:round"
       d="m 350.8941,4.3531478 c 7e-5,1.13e-5 -0.005,9.147e-4 -0.0134,0.00143 -0.008,5.114e-4 -0.0198,0.00106 -0.0325,0.00164 -0.0128,5.85e-4 -0.0267,0.00121 -0.0401,0.00186 -0.0134,6.55e-4 -0.0261,0.00134 -0.0363,0.00207 -0.0102,7.25e-4 -0.0204,0.00149 -0.0305,0.00229 -0.0102,7.988e-4 -0.0203,0.00163 -0.0305,0.0025 -0.0102,8.7e-4 -0.0203,0.00178 -0.0305,0.00272 -0.0102,9.425e-4 -0.0204,0.00192 -0.0305,0.00293 0.12883,0.1028994 0.25094,0.2124255 0.36598,0.3278902 0.11505,0.1154646 0.22305,0.2368677 0.32365,0.3635211 0.10061,0.1266534 0.19382,0.2585571 0.27932,0.3950227 0.0855,0.1364657 0.16328,0.2774934 0.23301,0.4223949 0.0697,0.1449015 0.13141,0.2936769 0.18471,0.4456378 0.0533,0.1519608 0.0982,0.3071073 0.13443,0.4647511 0.0362,0.1576416 0.0637,0.3177827 0.0821,0.4797334 0.0185,0.1619508 0.0279,0.3257112 0.0279,0.4905914 -8e-5,0.2864662 -0.028,0.5667509 -0.0813,0.8382004 -0.0533,0.2714496 -0.1319,0.5340639 -0.23338,0.7851892 -0.10148,0.2511236 -0.22581,0.4907601 -0.3705,0.716254 -0.14469,0.225495 -0.30974,0.436847 -0.49266,0.631401 -0.18292,0.194557 -0.3837,0.372316 -0.59985,0.530623 -0.21616,0.158308 -0.44768,0.297165 -0.69208,0.413919 -0.2444,0.116752 -0.50167,0.211403 -0.76932,0.281297 -0.26765,0.06989 -0.54568,0.11503 -0.8316,0.132754 0.0954,0.07582 0.19369,0.147343 0.2945,0.214469 0.10081,0.06713 0.20417,0.129855 0.30978,0.188081 0.10561,0.05823 0.21347,0.11195 0.32328,0.161068 0.1098,0.04912 0.22156,0.09363 0.33497,0.133427 0.11341,0.0398 0.22848,0.07489 0.3449,0.10516 0.11642,0.03027 0.2342,0.05573 0.35303,0.07626 0.11883,0.02054 0.23873,0.03615 0.35938,0.04674 0.12065,0.01059 0.24207,0.01616 0.36394,0.0166 0.29957,6e-6 0.59204,-0.03034 0.87451,-0.08814 0.28248,-0.0578 0.55495,-0.143045 0.81452,-0.252831 0.25957,-0.109788 0.50624,-0.244114 0.73709,-0.400071 0.23085,-0.155957 0.44589,-0.333544 0.6422,-0.529856 0.19631,-0.196309 0.3739,-0.411344 0.52986,-0.642195 0.15595,-0.23085 0.29028,-0.477515 0.40007,-0.737086 0.10979,-0.259569 0.19503,-0.5320461 0.25283,-0.8145217 0.0578,-0.2824757 0.0881,-0.5749499 0.0881,-0.8745129 1e-5,-0.2995631 -0.0303,-0.5920365 -0.0881,-0.8745118 -0.0578,-0.2824753 -0.14304,-0.5549525 -0.25283,-0.8145234 -0.10979,-0.2595726 -0.24411,-0.5062371 -0.40007,-0.7370863 -0.15596,-0.2308493 -0.33355,-0.4458833 -0.52986,-0.6421952 -0.19631,-0.1963144 -0.48624,-0.3739032 -0.8107,-0.5298599 -0.32447,-0.1559568 -0.68347,-0.2902815 -1.01793,-0.4000677 -0.33446,-0.1097862 -0.64438,-0.1950326 -0.87069,-0.2528309 -0.22631,-0.057798 -0.369,-0.088149 -0.369,-0.088142 v -2e-7 -3e-7 -2e-7 -3e-7 -2e-7 -3e-7 l 2e-5,3.3e-6 z"
       sodipodi:nodetypes="ccccccccccccccccccccccccccccccccccccccccccccccccccccccccc" />
    <g
       id="g165"
       transform="translate(154.84801,-1.4082961)">
      <path
         id="path159"
         style="fill:#000055;stroke-width:1.32292;stroke-linecap:round"
         d="m -29.963935,5.1283414 c 0,2.2686418 -1.839098,4.1077391 -4.10774,4.107739 -5.371246,-1.2e-6 -5.371247,-8.2154774 0,-8.2154786 2.268642,-10e-8 4.10774,1.8390976 4.10774,4.1077396 z m -3.761474,-4.1077386 v 8.2154796 l -24.667185,-1e-6 c -0.572347,-4e-7 -1.11655,-0.1149442 -1.61091,-0.3228073 -0.494361,-0.2078631 -0.938878,-0.5086454 -1.311852,-0.8803227 -0.372974,-0.3716774 -0.674404,-0.8142497 -0.882591,-1.3056927 -0.208187,-0.4914431 -0.323131,-1.0317569 -0.323131,-1.5989173 0,-0.5671604 0.114944,-1.1074743 0.323131,-1.5989174 0.208187,-0.4914431 0.509617,-0.9340155 0.882591,-1.3056927 0.372974,-0.3716773 0.817491,-0.6724596 1.311851,-0.8803225 0.494361,-0.2078629 1.038564,-0.3228065 1.610911,-0.3228065 z"
         sodipodi:nodetypes="sssscccssssssscc" />
      <path
         id="path160"
         style="fill:#000055;stroke-width:1.32292;stroke-linecap:round"
         d="m -31.716289,12.868615 c -1e-6,2.268642 -1.839098,4.107739 -4.10774,4.107739 -4.13085,0 -6.611643,-8.2154771 0,-8.2154786 2.268642,-10e-8 4.10774,1.8390976 4.10774,4.1077396 z m -37.84881,0 c 0,-0.56716 0.114944,-1.107474 0.323131,-1.598918 0.208187,-0.491443 0.509617,-0.934015 0.882591,-1.3056923 0.372974,-0.3716773 0.817491,-0.6724595 1.311851,-0.8803223 0.494361,-0.2078629 1.038564,-0.3228065 1.610911,-0.3228065 l 29.958852,5e-7 v 8.2154796 l -29.958852,-10e-7 c -0.572347,0 -1.11655,-0.114944 -1.61091,-0.322807 -0.494361,-0.207863 -0.938878,-0.508646 -1.311852,-0.880323 -0.372974,-0.371677 -0.674404,-0.81425 -0.882591,-1.305693 -0.208187,-0.491443 -0.323131,-1.031757 -0.323131,-1.598917 z"
         sodipodi:nodetypes="ssssssssccccssss" />
      <path
         id="path161"
         style="fill:#000055;stroke-width:1.32292;stroke-linecap:round"
         d="m -28.012123,20.806117 c -1e-6,2.268642 -1.839099,4.107739 -4.10774,4.107739 -5.371247,0 -5.371246,-8.215479 0,-8.215479 2.268642,0 4.10774,1.839098 4.10774,4.10774 z m -3.761474,-4.107739 v 8.21548 l -29.958852,-1e-6 c -0.587905,-1e-6 -1.128219,-0.114945 -1.619662,-0.322808 -0.491443,-0.207863 -0.934016,-0.508645 -1.305693,-0.880322 -0.371677,-0.371677 -0.672459,-0.81425 -0.880322,-1.305693 -0.207863,-0.491443 -0.322807,-1.031757 -0.322807,-1.598917 0,-0.56716 0.114944,-1.107474 0.322806,-1.598918 0.207863,-0.491443 0.508645,-0.934015 0.880323,-1.305693 0.371677,-0.371677 0.814249,-0.672459 1.305692,-0.880322 0.491444,-0.207863 1.031758,-0.322807 1.619663,-0.322807 z"
         sodipodi:nodetypes="sssscccssssssscc" />
      <path
         id="path162"
         style="fill:#000055;stroke-width:1.32292;stroke-linecap:round"
         d="m -26.424626,28.743619 c 0,2.268642 -1.839098,4.107739 -4.10774,4.107739 -5.371246,0 -5.371247,-8.215479 0,-8.215479 2.268643,0 4.10774,1.839098 4.10774,4.10774 z M -30.1861,24.63588 v 8.21548 l -35.250518,-10e-7 c -0.587905,-1e-6 -1.128219,-0.114945 -1.619662,-0.322808 -0.491443,-0.207863 -0.934016,-0.508645 -1.305693,-0.880322 -0.371677,-0.371677 -0.672459,-0.81425 -0.880322,-1.305693 -0.207863,-0.491443 -0.322807,-1.031757 -0.322807,-1.598917 0,-0.56716 0.114944,-1.107474 0.322806,-1.598918 0.207863,-0.491443 0.508646,-0.934015 0.880323,-1.305693 0.371677,-0.371677 0.814249,-0.672459 1.305692,-0.880322 0.491444,-0.207863 1.031757,-0.322807 1.619663,-0.322806 z"
         sodipodi:nodetypes="sssscccssssssscc" />
      <path
         id="path163"
         style="fill:#000055;stroke-width:1.32292;stroke-linecap:round"
         d="m -37.007958,36.151951 c -5e-6,2.268639 -1.839102,4.107731 -4.10774,4.107731 -5.371246,0 -5.371245,-8.215471 0,-8.215471 2.268642,0 4.10774,1.839098 4.10774,4.10774 z m -24.756653,3.784925 c -0.491443,-0.207862 -0.934015,-0.508644 -1.305692,-0.88032 -0.371677,-0.371677 -0.672459,-0.814248 -0.880323,-1.30569 -0.207863,-0.491443 -0.322808,-1.031755 -0.322809,-1.598915 -10e-7,-0.56716 0.114942,-1.107474 0.322804,-1.598918 0.207863,-0.491443 0.508645,-0.934015 0.880323,-1.305693 0.371677,-0.371677 0.81425,-0.672459 1.305694,-0.880322 0.491443,-0.207863 1.031758,-0.322807 1.619663,-0.322806 l 19.375519,0 v 8.21547 h -19.375519 c -0.587905,0 -1.128218,-0.114943 -1.61966,-0.322806 z"
         sodipodi:nodetypes="sssssssssssccccs" />
      <path
         id="path164"
         style="fill:#000055;stroke-width:1.32292;stroke-linecap:round"
         d="m -37.007959,44.089453 c -5e-6,2.268639 -1.839101,4.107731 -4.10774,4.107731 -5.371244,0 -5.371246,-8.215471 0,-8.215471 2.268642,0 4.10774,1.839098 4.10774,4.10774 z m -3.761474,-4.107739 v 8.21547 h -29.958852 c -0.587904,0 -1.128218,-0.114943 -1.61966,-0.322806 -0.491443,-0.207862 -0.934015,-0.508644 -1.305692,-0.88032 -0.371677,-0.371677 -0.672459,-0.814248 -0.880323,-1.30569 -0.207863,-0.491443 -0.322808,-1.031755 -0.322809,-1.598915 -10e-7,-0.56716 0.114942,-1.107474 0.322804,-1.598918 0.207863,-0.491443 0.508646,-0.934015 0.880323,-1.305693 0.371678,-0.371677 0.814251,-0.672459 1.305694,-0.880322 0.491444,-0.207863 1.031758,-0.322807 1.619663,-0.322806 z"
         sodipodi:nodetypes="sssscccssssssscc" />
      <path
         id="path165"
         style="fill:#000055;stroke-width:1.32292;stroke-linecap:round"
         d="m -52.882958,52.026955 c -5e-6,2.268639 -1.839101,4.107731 -4.10774,4.107731 -5.371244,0 -5.371246,-8.215471 0,-8.215471 2.268642,0 4.10774,1.839098 4.10774,4.10774 z m -30.048319,3.784925 c -0.491443,-0.207862 -0.934015,-0.508644 -1.305692,-0.88032 -0.371677,-0.371677 -0.672459,-0.814248 -0.880323,-1.30569 -0.207863,-0.491443 -0.322808,-1.031755 -0.322809,-1.598915 -10e-7,-0.56716 0.114942,-1.107474 0.322804,-1.598918 0.207863,-0.491443 0.508645,-0.934015 0.880323,-1.305693 0.371677,-0.371677 0.81425,-0.672459 1.305694,-0.880322 0.491443,-0.207863 1.031757,-0.322807 1.619663,-0.322806 l 24.667185,0 v 8.21547 h -24.667185 c -0.587904,0 -1.128218,-0.114943 -1.61966,-0.322806 z"
         sodipodi:nodetypes="sssssssssssccccs" />
    </g>
    <g
       id="g172"
       transform="matrix(1,0,0,-1,161.97394,55.321071)"
       style="fill:#0055aa;fill-opacity:1">
      <path
         id="path166"
         style="fill:#0055aa;fill-opacity:1;stroke-width:1.32292;stroke-linecap:round"
         d="m -29.963935,5.1283414 a 4.1077399,4.1077399 0 0 1 -4.10774,4.107739 4.1077399,4.1077399 0 0 1 -4.107739,-4.107739 4.1077399,4.1077399 0 0 1 4.107739,-4.1077396 4.1077399,4.1077399 0 0 1 4.10774,4.1077396 z M -58.371849,1.0206028 h 24.64644 v 8.2154796 h -24.64644 z m 4.066247,4.1077386 a 4.1077399,4.1077399 0 0 1 -4.10774,4.107739 4.1077399,4.1077399 0 0 1 -4.107739,-4.107739 4.1077399,4.1077399 0 0 1 4.107739,-4.1077396 4.1077399,4.1077399 0 0 1 4.10774,4.1077396 z" />
      <path
         id="path167"
         style="fill:#0055aa;fill-opacity:1;stroke-width:1.32292;stroke-linecap:round"
         d="m -42.299622,12.868615 c -10e-7,2.268642 -1.839098,4.107739 -4.10774,4.107739 -4.13085,0 -6.611643,-8.2154771 0,-8.2154786 2.268642,-10e-8 4.10774,1.8390976 4.10774,4.1077396 z m -27.265477,0 c 0,-0.56716 0.114944,-1.107474 0.323131,-1.598918 0.208187,-0.491443 0.509617,-0.934015 0.882591,-1.3056923 0.372974,-0.3716773 0.817491,-0.6724595 1.311851,-0.8803223 0.494361,-0.2078629 1.038564,-0.3228065 1.610911,-0.3228065 l 19.375519,5e-7 v 8.2154796 l -19.375519,-10e-7 c -0.572346,0 -1.11655,-0.114944 -1.61091,-0.322807 -0.494361,-0.207863 -0.938878,-0.508646 -1.311852,-0.880323 -0.372974,-0.371677 -0.674404,-0.81425 -0.882591,-1.305693 -0.208187,-0.491443 -0.323131,-1.031757 -0.323131,-1.598917 z"
         sodipodi:nodetypes="ssssssssccccssss" />
      <path
         id="path168"
         style="fill:#0055aa;fill-opacity:1;stroke-width:1.32292;stroke-linecap:round"
         d="m -38.595456,20.806117 c -1e-6,2.268642 -1.839099,4.107739 -4.10774,4.107739 -5.371247,0 -5.371246,-8.215479 0,-8.215479 2.268642,0 4.10774,1.839098 4.10774,4.10774 z m -27.265477,0 c 0,-0.567161 0.114944,-1.107474 0.323131,-1.598918 0.208187,-0.491443 0.509617,-0.934015 0.882591,-1.305693 0.372974,-0.371677 0.817491,-0.672459 1.311851,-0.880322 0.494361,-0.207863 1.038564,-0.322806 1.610911,-0.322806 h 19.375519 v 8.21548 l -19.375519,-1e-6 c -0.572347,0 -1.11655,-0.114944 -1.61091,-0.322807 -0.494361,-0.207863 -0.938878,-0.508646 -1.311852,-0.880323 -0.372974,-0.371677 -0.674404,-0.81425 -0.882591,-1.305693 -0.208187,-0.491443 -0.323131,-1.031757 -0.323131,-1.598917 z"
         sodipodi:nodetypes="ssssssssccccssss" />
      <path
         id="path169"
         style="fill:#0055aa;fill-opacity:1;stroke-width:1.32292;stroke-linecap:round"
         d="m -37.007959,28.743619 c 0,2.268642 -1.839098,4.107739 -4.10774,4.107739 -5.371246,0 -5.371247,-8.215479 0,-8.215479 2.268643,0 4.10774,1.839098 4.10774,4.10774 z m -32.557143,0 c 0,-0.56716 0.114944,-1.107474 0.323131,-1.598918 0.208186,-0.491443 0.509617,-0.934015 0.882591,-1.305693 0.372973,-0.371677 0.817491,-0.672459 1.311851,-0.880322 0.49436,-0.207863 1.038564,-0.322807 1.610911,-0.322806 l 24.667185,0 v 8.21548 l -24.667185,-10e-7 c -0.572347,0 -1.11655,-0.114944 -1.610911,-0.322807 -0.49436,-0.207863 -0.938877,-0.508646 -1.311851,-0.880323 -0.372974,-0.371677 -0.674404,-0.81425 -0.882591,-1.305693 -0.208187,-0.491443 -0.323131,-1.031757 -0.323131,-1.598917 z"
         sodipodi:nodetypes="ssssssssccccssss" />
      <path
         id="path170"
         style="fill:#0055aa;fill-opacity:1;stroke-width:1.32292;stroke-linecap:round"
         d="m -37.007958,36.151951 c -5e-6,2.268639 -1.839102,4.107731 -4.10774,4.107731 -5.371246,0 -5.371245,-8.215471 0,-8.215471 2.268642,0 4.10774,1.839098 4.10774,4.10774 z m -27.265477,0 c -0.04149,-1.065068 0.163496,-1.358134 0.502391,-1.984141 0.338896,-0.626008 0.811699,-1.055789 1.305836,-1.335955 0.494138,-0.280165 1.00961,-0.410714 1.433844,-0.438257 0.424233,-0.02754 0.757229,-0.481247 0.886413,-0.349386 h 19.375519 v 8.21547 h -19.375519 c -0.572346,0 -1.111029,-0.115051 -1.59849,-0.323048 -0.487461,-0.207996 -0.923699,-0.508939 -1.291153,-0.880723 -0.367455,-0.371784 -0.666126,-0.814409 -0.878453,-1.305771 -0.212327,-0.491362 -0.33831,-1.03146 -0.360388,-1.598189 z"
         sodipodi:nodetypes="ssssssssccccssss" />
      <path
         id="path171"
         style="fill:#0055aa;fill-opacity:1;stroke-width:1.32292;stroke-linecap:round"
         d="m -37.007959,44.089453 c -5e-6,2.268639 -1.839101,4.107731 -4.10774,4.107731 -5.371244,0 -5.371246,-8.215471 0,-8.215471 2.268642,0 4.10774,1.839098 4.10774,4.10774 z m -30.048319,3.784925 c -0.491443,-0.207862 -0.934015,-0.508644 -1.305692,-0.88032 -0.371677,-0.371677 -0.672459,-0.814248 -0.880323,-1.30569 -0.207863,-0.491443 -0.322808,-1.031755 -0.322809,-1.598915 -10e-7,-0.56716 0.114942,-1.107474 0.322804,-1.598918 0.207863,-0.491443 0.508646,-0.934015 0.880323,-1.305693 0.371678,-0.371677 0.814251,-0.672459 1.305694,-0.880322 0.491444,-0.207863 1.031758,-0.322807 1.619663,-0.322807 l 24.667185,10e-7 v 8.21547 l -24.667185,0 c -0.587905,0 -1.128218,-0.114943 -1.61966,-0.322806 z"
         sodipodi:nodetypes="sssssssssssccccs" />
      <path
         id="path172"
         style="fill:#0055aa;fill-opacity:1;stroke-width:1.32292;stroke-linecap:round"
         d="m -37.007958,52.026955 c -5e-6,2.268639 -1.839101,4.107731 -4.10774,4.107731 -5.371244,0 -5.371246,-8.215471 0,-8.215471 2.268642,0 4.10774,1.839098 4.10774,4.10774 z m -19.464986,3.784925 c -0.491443,-0.207862 -0.934015,-0.508644 -1.305692,-0.88032 -0.371677,-0.371677 -0.672459,-0.814248 -0.880323,-1.30569 -0.207863,-0.491443 -0.322808,-1.031755 -0.322809,-1.598915 -10e-7,-0.56716 0.114942,-1.107474 0.322804,-1.598918 0.207863,-0.491443 0.508645,-0.934015 0.880323,-1.305693 0.371677,-0.371677 0.81425,-0.672459 1.305694,-0.880322 0.491443,-0.207863 1.031757,-0.322807 1.619663,-0.322807 l 14.083852,10e-7 v 8.21547 h -14.083852 c -0.587904,0 -1.128218,-0.114943 -1.61966,-0.322806 z"
         sodipodi:nodetypes="sssssssssssccccs" />
    </g>
    <g
       id="g179"
       transform="translate(175.62847,-1.8342167)"
       style="fill:#55aaff;fill-opacity:1">
      <path
         id="path173"
         style="fill:#55aaff;fill-opacity:1;stroke-width:1.32292;stroke-linecap:round"
         d="m -58.392594,9.2360814 c -0.587905,-1.1e-6 -1.128219,-0.1149448 -1.619662,-0.3228077 -0.491443,-0.207863 -0.934016,-0.5086452 -1.305693,-0.8803225 -0.371677,-0.3716772 -0.672459,-0.8142495 -0.880322,-1.3056926 -0.207863,-0.491443 -0.322807,-1.0317568 -0.322807,-1.5989172 0,-0.5671604 0.114944,-1.1074743 0.322806,-1.5989174 0.207863,-0.4914431 0.508645,-0.9340155 0.880323,-1.3056928 0.371677,-0.3716773 0.814249,-0.6724596 1.305692,-0.8803226 0.491444,-0.207863 1.031757,-0.3228067 1.619663,-0.3228063 l 8.619052,0 c 0.394027,-6e-7 0.934341,0.1149429 1.425785,0.3228058 0.491443,0.2078629 0.934015,0.5086452 1.305693,0.8803226 0.371677,0.3716773 0.672459,0.8142498 0.880322,1.305693 0.207863,0.4914432 0.322807,1.0317572 0.322807,1.5989177 0,0.5671605 -0.114944,1.1074744 -0.322807,1.5989175 -0.207863,0.4914431 -0.508645,0.9340154 -0.880322,1.3056927 -0.371678,0.3716773 -0.81425,0.6724595 -1.305693,0.8803224 -0.491444,0.2078629 -1.031758,0.3228064 -1.425785,0.3228074 z"
         sodipodi:nodetypes="csssssssccssssssscc" />
      <path
         id="path174"
         style="fill:#55aaff;fill-opacity:1;stroke-width:1.32292;stroke-linecap:round"
         d="m -67.056277,16.653547 c -0.491443,-0.207863 -0.934016,-0.508645 -1.305693,-0.880322 -0.371677,-0.371677 -0.672459,-0.81425 -0.880322,-1.305693 -0.207863,-0.491443 -0.322807,-1.031757 -0.322807,-1.598917 0,-0.56716 0.114944,-1.107474 0.322806,-1.598918 0.207863,-0.491443 0.508646,-0.934015 0.880323,-1.3056924 0.371677,-0.3716773 0.814249,-0.6724595 1.305692,-0.8803225 0.491444,-0.2078629 1.031757,-0.3228066 1.619663,-0.3228062 l 24.494052,0 c 0.394027,-6e-7 0.934342,0.1149429 1.425785,0.3228058 0.491443,0.2078629 0.934016,0.5086452 1.305693,0.8803226 0.371678,0.3716777 0.67246,0.8142497 0.880323,1.3056927 0.207863,0.491443 0.322806,1.031758 0.322806,1.598918 0,0.567161 -0.114944,1.107474 -0.322807,1.598918 -0.207863,0.491443 -0.508645,0.934015 -0.880323,1.305692 -0.371677,0.371677 -0.814249,0.67246 -1.305692,0.880323 -0.491444,0.207862 -1.031758,0.322806 -1.425785,0.322807 l -24.494052,0 c -0.587905,-1e-6 -1.128219,-0.114945 -1.619662,-0.322808 z"
         sodipodi:nodetypes="sssssssccsssssssccs" />
      <path
         id="path175"
         style="fill:#55aaff;fill-opacity:1;stroke-width:1.32292;stroke-linecap:round"
         d="m -47.82173,16.698378 c 0.394027,-1e-6 0.934342,0.114943 1.425785,0.322806 0.491443,0.207863 0.934016,0.508645 1.305693,0.880322 0.371678,0.371678 0.67246,0.81425 0.880323,1.305693 0.207863,0.491444 0.322806,1.031758 0.322806,1.598918 0,0.56716 -0.114944,1.107474 -0.322807,1.598918 -0.207863,0.491443 -0.508646,0.934015 -0.880323,1.305692 -0.371677,0.371677 -0.81425,0.67246 -1.305693,0.880323 -0.491443,0.207862 -1.031757,0.322806 -1.425784,0.322807 l -13.889974,1e-6 -1.640407,-0.322809 c -0.491443,-0.207863 -0.934016,-0.508645 -1.305693,-0.880322 -0.371677,-0.371677 -0.672459,-0.81425 -0.880322,-1.305693 -0.207863,-0.491443 -0.322807,-1.031757 -0.322807,-1.598917 0,-0.56716 0.114944,-1.107474 0.322806,-1.598918 0.207863,-0.491443 0.508645,-0.934015 0.880323,-1.305693 0.371677,-0.371677 0.814249,-0.672459 1.305692,-0.880322 0.491444,-0.207863 1.031757,-0.322807 1.619663,-0.322806 z"
         sodipodi:nodetypes="cssssssscccsssssscc" />
      <path
         id="path176"
         style="fill:#55aaff;fill-opacity:1;stroke-width:1.32292;stroke-linecap:round"
         d="m -35.6509,24.63588 c 0.394028,-1e-6 0.934342,0.114943 1.425785,0.322806 0.491443,0.207863 0.934016,0.508645 1.305693,0.880322 0.371677,0.371678 0.67246,0.81425 0.880323,1.305693 0.207862,0.491443 0.322806,1.031757 0.322806,1.598918 0,0.567161 -0.114944,1.107474 -0.322807,1.598918 -0.207863,0.491443 -0.508645,0.934015 -0.880322,1.305692 -0.371678,0.371677 -0.81425,0.67246 -1.305693,0.880323 -0.491444,0.207862 -1.031758,0.322806 -1.425785,0.322807 l -29.785718,0 c -0.587905,-1e-6 -1.128219,-0.114945 -1.619662,-0.322808 -0.491443,-0.207863 -0.934016,-0.508645 -1.305693,-0.880322 -0.371677,-0.371677 -0.672459,-0.81425 -0.880322,-1.305693 -0.207863,-0.491443 -0.322807,-1.031757 -0.322807,-1.598917 0,-0.567161 0.114944,-1.107474 0.322806,-1.598918 0.207863,-0.491443 0.508645,-0.934015 0.880323,-1.305693 0.371677,-0.371677 0.814249,-0.672459 1.305692,-0.880322 0.491444,-0.207863 1.031758,-0.322807 1.619663,-0.322806 z"
         sodipodi:nodetypes="csssssssccssssssscc" />
      <path
         id="path177"
         style="fill:#55aaff;fill-opacity:1;stroke-width:1.32292;stroke-linecap:round"
         d="m -61.764615,39.936874 c -0.491443,-0.207862 -0.934015,-0.508644 -1.305692,-0.88032 -0.371677,-0.371677 -0.672459,-0.814248 -0.880323,-1.30569 -0.207863,-0.491443 -0.322808,-1.031756 -0.322809,-1.598915 -10e-7,-0.56716 0.114942,-1.107474 0.322804,-1.598918 0.207863,-0.491443 0.508645,-0.934015 0.880323,-1.305693 0.371677,-0.371677 0.81425,-0.672459 1.305694,-0.880322 l 1.640408,-0.322806 h 13.889976 c 0.394029,10e-7 0.934344,0.114945 1.425787,0.322808 0.491444,0.207863 0.934017,0.508645 1.305695,0.880322 0.371677,0.371678 0.67246,0.81425 0.880322,1.305693 0.207863,0.491444 0.322806,1.031758 0.322805,1.598918 -2e-6,0.71805 -0.160146,1.330298 -0.41975,1.846405 -0.259605,0.516106 -0.618671,0.936071 -1.016515,1.269554 -0.397844,0.333484 -0.834467,0.580486 -1.249186,0.750667 -0.41472,0.170182 -0.807536,0.263542 -1.117767,0.289743 l -14.042112,-0.04864 c -0.587905,0 -1.128218,-0.114943 -1.61966,-0.322806 z"
         sodipodi:nodetypes="sssssscccsssssssccs" />
      <path
         id="path178"
         style="fill:#55aaff;fill-opacity:1;stroke-width:1.32292;stroke-linecap:round"
         d="m -55.391781,40.30452 c 0.491444,0.207863 0.934017,0.508645 1.305695,0.880322 0.371677,0.371678 0.67246,0.81425 0.880323,1.305693 0.207862,0.491444 0.322805,1.031758 0.322804,1.598918 -10e-7,0.56716 -0.114946,1.107473 -0.322809,1.598915 -0.207864,0.491442 -0.508646,0.934014 -0.880323,1.30569 -0.371678,0.371677 -0.81425,0.672458 -1.305692,0.88032 -0.491443,0.207863 -1.031756,0.322806 -1.425783,0.322806 h -13.910719 c -0.587905,0 -1.128218,-0.114943 -1.61966,-0.322806 -0.491443,-0.207862 -0.934015,-0.508644 -1.305692,-0.88032 -0.371677,-0.371677 -0.672459,-0.814248 -0.880323,-1.30569 -0.207863,-0.491443 -0.322808,-1.031756 -0.322809,-1.598915 -10e-7,-0.56716 0.114942,-1.107474 0.322804,-1.598918 0.207863,-0.491443 0.508646,-0.934015 0.880323,-1.305693 0.371678,-0.371677 0.814251,-0.672459 1.305694,-0.880322 0.491444,-0.207863 1.031758,-0.322807 1.619663,-0.322807 l 13.910719,0 c 0.394027,0 0.934342,0.114944 1.425785,0.322807 z"
         sodipodi:nodetypes="sssssssccsssssssccs" />
      <path
         id="path179"
         style="fill:#55aaff;fill-opacity:1;stroke-width:1.32292;stroke-linecap:round"
         d="m -46.234232,47.919215 c 0.394027,0 0.934342,0.114944 1.425785,0.322807 0.491444,0.207863 0.934017,0.508645 1.305695,0.880322 0.371677,0.371678 0.67246,0.81425 0.880323,1.305693 0.207862,0.491444 0.322805,1.031758 0.322804,1.598918 -1e-6,0.56716 -0.114946,1.107473 -0.322809,1.598915 -0.207864,0.491442 -0.508646,0.934014 -0.880323,1.30569 -0.371678,0.371677 -0.81425,0.672458 -1.305692,0.88032 -0.491443,0.207863 -1.031756,0.322806 -1.425783,0.322806 l -35.077385,0 c -0.587905,0 -1.128218,-0.114943 -1.61966,-0.322806 -0.491443,-0.207862 -0.934015,-0.508644 -1.305692,-0.88032 -0.371677,-0.371677 -0.672459,-0.814248 -0.880323,-1.30569 -0.207863,-0.491443 -0.322808,-1.031756 -0.322809,-1.598915 -10e-7,-0.56716 0.114942,-1.107474 0.322804,-1.598918 0.207863,-0.491443 0.508645,-0.934015 0.880323,-1.305693 0.371677,-0.371677 0.81425,-0.672459 1.305694,-0.880322 0.491443,-0.207863 1.031757,-0.322807 1.619663,-0.322807 z"
         sodipodi:nodetypes="csssssssccssssssscc" />
    </g>
    <path
       id="path183"
       style="fill:#ff5500;fill-opacity:1;stroke-width:1.32292;stroke-linecap:round"
       d="m 312.2422,27.451954 c 0,-2.268642 -1.8391,-4.107739 -4.10774,-4.107739 -2.26864,0 -4.10774,1.839098 -4.10774,4.107739 0,2.268642 1.8391,4.10774 4.10774,4.10774 2.26864,0 4.10774,-1.839098 4.10774,-4.10774 z m -40.63167,-3.784932 c -0.49144,0.207863 -0.93401,0.508645 -1.30569,0.880322 -0.37168,0.371677 -0.67246,0.81425 -0.88032,1.305693 -0.20787,0.491443 -0.32281,1.031757 -0.32281,1.598917 0,0.567161 0.11494,1.107475 0.32281,1.598918 0.20786,0.491443 0.50864,0.934015 0.88032,1.305693 0.37168,0.371677 0.81425,0.672459 1.30569,0.880322 0.49145,0.207863 1.03176,0.322807 1.61967,0.322807 l 35.25052,-1e-6 v -8.21548 l -35.25052,1e-6 c -0.58791,10e-7 -1.12822,0.114945 -1.61967,0.322808 z"
       sodipodi:nodetypes="ssssssssssssccccs" />
    <g
       id="g200"
       transform="matrix(1,0,0,-1,357.28122,55.321071)">
      <path
         id="path194"
         style="fill:#000055;stroke-width:1.32292;stroke-linecap:round"
         d="M -58.371849,9.2360824 V 1.0206028 h 24.64644 l 1.252652,0.3228055 c 0.491443,0.2078629 0.934016,0.5086452 1.305693,0.8803225 0.371677,0.3716773 0.67246,0.8142497 0.880323,1.3056929 0.207863,0.4914432 0.322806,1.0317572 0.322806,1.5989177 0,0.5671604 -0.114944,1.1074744 -0.322807,1.5989175 -0.207863,0.4914431 -0.508645,0.9340154 -0.880323,1.3056927 -0.371677,0.3716773 -0.814249,0.6724595 -1.305692,0.8803224 -0.491444,0.2078628 -1.031758,0.3228064 -1.425785,0.3228074 z m -0.04149,-2e-6 c -2.268641,-5e-7 -4.107739,-1.8390976 -4.107739,-4.107739 0,-2.2686416 1.839097,-4.1077391 4.107739,-4.1077396 5.371248,-2e-7 5.371247,8.2154788 0,8.2154786 z"
         sodipodi:nodetypes="ccccssssssccssss" />
      <path
         id="path195"
         style="fill:#000055;stroke-width:1.32292;stroke-linecap:round"
         d="M -65.41587,16.976356 V 8.7608764 l 35.05664,-5e-7 c 0.394028,-5e-7 0.934342,0.1149431 1.425785,0.322806 0.491443,0.2078629 0.934016,0.5086452 1.305693,0.8803225 0.371678,0.3716776 0.67246,0.8142496 0.880323,1.3056926 0.207863,0.491444 0.322806,1.031758 0.322806,1.598918 0,0.567161 -0.114944,1.107474 -0.322807,1.598918 -0.207863,0.491443 -0.508645,0.934015 -0.880323,1.305692 -0.371677,0.371677 -0.814249,0.67246 -1.305692,0.880323 -0.491444,0.207862 -1.031757,0.322806 -1.425785,0.322807 z m -0.04149,-2e-6 c -2.268641,0 -4.107739,-1.839098 -4.107739,-4.107739 0,-2.268642 1.839097,-4.1077391 4.107739,-4.1077396 5.371251,-2e-7 5.371245,8.2154786 0,8.2154786 z"
         sodipodi:nodetypes="cccsssssssccssss" />
      <path
         id="path196"
         style="fill:#000055;stroke-width:1.32292;stroke-linecap:round"
         d="m -61.711704,24.913858 v -8.21548 l 29.764974,0 c 0.394027,-1e-6 0.934342,0.114943 1.425785,0.322806 0.491443,0.207863 0.934016,0.508645 1.305693,0.880322 0.371678,0.371678 0.67246,0.81425 0.880323,1.305693 0.207863,0.491444 0.322806,1.031758 0.322806,1.598918 0,0.567161 -0.114944,1.107474 -0.322807,1.598918 -0.207863,0.491443 -0.508646,0.934015 -0.880323,1.305692 -0.371677,0.371678 -0.81425,0.67246 -1.305693,0.880323 -0.491443,0.207862 -1.031757,0.322806 -1.425784,0.322807 z m -0.04149,-2e-6 c -2.268641,0 -4.107739,-1.839098 -4.107739,-4.107739 0,-2.268642 1.839097,-4.10774 4.107739,-4.10774 5.371247,0 5.371249,8.215479 0,8.215479 z"
         sodipodi:nodetypes="cccsssssssccssss" />
      <path
         id="path197"
         style="fill:#000055;stroke-width:1.32292;stroke-linecap:round"
         d="m -65.415873,32.85136 v -8.21548 l 40.348306,0 c 0.394028,-1e-6 0.934342,0.114943 1.425785,0.322806 0.491443,0.207863 0.934016,0.508645 1.305693,0.880322 0.371677,0.371678 0.67246,0.81425 0.880323,1.305693 0.207862,0.491444 0.322806,1.031758 0.322806,1.598918 0,0.567161 -0.114944,1.107474 -0.322807,1.598918 -0.207863,0.491443 -0.508645,0.934015 -0.880322,1.305692 -0.371678,0.371677 -0.81425,0.67246 -1.305693,0.880323 -0.491444,0.207862 -1.031758,0.322806 -1.425785,0.322807 z m -0.04149,-2e-6 c -2.268641,0 -4.107739,-1.839098 -4.107739,-4.107739 0,-2.268642 1.839097,-4.10774 4.107739,-4.10774 5.371247,0 5.371249,8.215479 0,8.215479 z"
         sodipodi:nodetypes="cccsssssssccssss" />
      <path
         id="path198"
         style="fill:#000055;stroke-width:1.32292;stroke-linecap:round"
         d="m -60.124206,40.259682 v -8.21547 l 29.764974,-1e-6 c 0.394027,0 0.934342,0.114944 1.425785,0.322807 0.491444,0.207863 0.934017,0.508645 1.305695,0.880322 0.371677,0.371678 0.67246,0.81425 0.880323,1.305693 0.207862,0.491444 0.322805,1.031758 0.322804,1.598918 -1e-6,0.56716 -0.114946,1.107473 -0.322809,1.598915 -0.207864,0.491442 -0.508646,0.934014 -0.880324,1.30569 -0.371677,0.371677 -0.814249,0.672458 -1.305692,0.88032 -0.491442,0.207863 -1.031756,0.322806 -1.425782,0.322806 z m -0.04149,0 c -2.268638,0 -4.107734,-1.839093 -4.107739,-4.107731 0,-2.268642 1.839097,-4.10774 4.107739,-4.10774 5.371246,0 5.371247,8.215471 0,8.215471 z"
         sodipodi:nodetypes="cccsssssssccssss" />
      <path
         id="path199"
         style="fill:#000055;stroke-width:1.32292;stroke-linecap:round"
         d="m -37.007959,44.089453 c -5e-6,2.268639 -1.839101,4.107731 -4.10774,4.107731 -2.268638,0 -4.107734,-1.839093 -4.107739,-4.107731 0,-2.268642 1.839097,-4.10774 4.107739,-4.10774 2.268642,0 4.10774,1.839098 4.10774,4.10774 z M -70.70754,39.981714 h 29.938107 v 8.21547 H -70.70754 Z m 4.066247,4.107739 c -4e-6,2.268639 -1.839101,4.107731 -4.10774,4.107731 -2.268638,0 -4.107734,-1.839093 -4.107739,-4.107731 0,-2.268642 1.839098,-4.10774 4.107739,-4.10774 2.268643,0 4.10774,1.839098 4.10774,4.10774 z"
         sodipodi:nodetypes="ssssscccccsssss" />
      <path
         id="path200"
         style="fill:#000055;stroke-width:1.32292;stroke-linecap:round"
         d="m -70.707539,56.134686 v -8.21547 l 40.348307,-10e-7 c 0.394027,0 0.934342,0.114944 1.425785,0.322807 0.491444,0.207863 0.934017,0.508645 1.305695,0.880322 0.371677,0.371678 0.67246,0.81425 0.880323,1.305693 0.207862,0.491444 0.322805,1.031758 0.322804,1.598918 -1e-6,0.56716 -0.114946,1.107473 -0.322809,1.598915 -0.207864,0.491442 -0.508646,0.934014 -0.880323,1.30569 -0.371678,0.371677 -0.81425,0.672458 -1.305692,0.88032 -0.491443,0.207863 -1.031756,0.322806 -1.425783,0.322806 z m 4.066247,-4.107731 c -5e-6,2.268639 -1.839101,4.107731 -4.10774,4.107731 -2.268638,0 -4.107734,-1.839093 -4.107739,-4.107731 0,-2.268642 1.839097,-4.10774 4.107739,-4.10774 2.268642,0 4.10774,1.839098 4.10774,4.10774 z"
         sodipodi:nodetypes="cccsssssssccsssss" />
    </g>
    <path
       id="path184"
       style="fill:#ff5500;fill-opacity:1;stroke-width:1.32292;stroke-linecap:round"
       d="m 312.24219,20.043622 c 0,-2.268639 -1.8391,-4.107731 -4.10774,-4.107731 -2.26863,0 -4.10773,1.839093 -4.10773,4.107731 0,2.268642 1.83909,4.10774 4.10773,4.10774 2.26865,0 4.10774,-1.839098 4.10774,-4.10774 z m -3.76147,4.107739 v -8.21547 h -35.25053 c -0.58791,0 -1.12822,0.114943 -1.61967,0.322806 -0.49144,0.207862 -0.93401,0.508644 -1.30569,0.88032 -0.37167,0.371677 -0.67246,0.814248 -0.88032,1.30569 -0.20786,0.491443 -0.32281,1.031756 -0.32281,1.598915 0,0.56716 0.11494,1.107474 0.3228,1.598918 0.20787,0.491443 0.50865,0.934015 0.88033,1.305693 0.37167,0.371677 0.81425,0.672459 1.30569,0.880322 0.49145,0.207863 1.03176,0.322807 1.61967,0.322807 z"
       sodipodi:nodetypes="ssssscccssssssscc" />
    <path
       id="path190"
       style="fill:#550000;fill-opacity:1;stroke-width:1.32292;stroke-linecap:round"
       d="m 284.87188,31.017142 c -0.58791,-1e-6 -1.12822,-0.114945 -1.61967,-0.322808 -0.49144,-0.207863 -0.93401,-0.508645 -1.30569,-0.880322 -0.37168,-0.371677 -0.67246,-0.81425 -0.88032,-1.305693 -0.20787,-0.491443 -0.32281,-1.031757 -0.32281,-1.598917 0,-0.56716 0.11494,-1.107474 0.32281,-1.598918 0.20786,-0.491443 0.50864,-0.934015 0.88032,-1.305693 0.37168,-0.371677 0.81425,-0.672459 1.30569,-0.880322 0.49145,-0.207863 1.03176,-0.322807 1.61967,-0.322806 h 29.78572 c 0.39403,-1e-6 0.93434,0.114943 1.42579,0.322806 0.49144,0.207863 0.93401,0.508645 1.30569,0.880322 0.37168,0.371678 0.67246,0.81425 0.88032,1.305693 0.20787,0.491444 0.32281,1.031758 0.32281,1.598918 0,0.567161 -0.11494,1.107474 -0.32281,1.598918 -0.20786,0.491443 -0.50864,0.934015 -0.88032,1.305692 -0.37168,0.371677 -0.81425,0.67246 -1.30569,0.880323 -0.49145,0.207862 -1.03176,0.322806 -1.42579,0.322807 z"
       sodipodi:nodetypes="csssssssccssssssscc" />
    <path
       id="path182"
       style="fill:#ff5500;fill-opacity:1;stroke-width:1.32292;stroke-linecap:round"
       d="m 305.36303,35.389456 c 0,-2.268642 -1.8391,-4.107739 -4.10774,-4.107739 -5.37125,0 -5.37125,8.215479 0,8.215479 2.26864,0 4.10774,-1.839098 4.10774,-4.10774 z m -3.76148,4.107739 v -8.21548 l -24.66718,1e-6 c -0.58791,1e-6 -1.12822,0.114945 -1.61967,0.322808 -0.49144,0.207863 -0.93401,0.508645 -1.30569,0.880322 -0.37168,0.371677 -0.67246,0.81425 -0.88032,1.305693 -0.20787,0.491443 -0.32281,1.031757 -0.32281,1.598917 0,0.567161 0.11494,1.107474 0.32281,1.598918 0.20786,0.491443 0.50864,0.934015 0.88032,1.305693 0.37168,0.371677 0.81425,0.672459 1.30569,0.880322 0.49145,0.207863 1.03176,0.322807 1.61967,0.322807 z"
       sodipodi:nodetypes="sssscccssssssscc" />
    <path
       id="path181"
       style="fill:#ff5500;fill-opacity:1;stroke-width:1.32292;stroke-linecap:round"
       d="m 306.95053,43.326958 c 0,-2.268642 -1.83909,-4.107739 -4.10774,-4.107739 -4.75105,0 -5.99145,8.215476 0,8.215479 2.26865,0 4.10774,-1.839098 4.10774,-4.10774 z m -35.34,-3.784932 c -0.49144,0.207863 -0.93401,0.508645 -1.30569,0.880322 -0.37168,0.371677 -0.67246,0.81425 -0.88032,1.305693 -0.20787,0.491443 -0.32281,1.031757 -0.32281,1.598917 0,0.56716 0.11494,1.107474 0.32281,1.598918 0.20786,0.491443 0.50864,0.934015 0.88032,1.305692 0.37167,0.371678 0.81425,0.67246 1.30569,0.880323 0.49144,0.207863 1.03176,0.322807 1.61967,0.322807 l 29.95886,-10e-7 v -8.21548 l -29.95886,10e-7 c -0.58791,1e-6 -1.12822,0.114945 -1.61967,0.322808 z"
       sodipodi:nodetypes="sssssssssssccccs" />
    <path
       id="path192"
       style="fill:#550000;fill-opacity:1;stroke-width:1.32292;stroke-linecap:round"
       d="m 310.79172,38.470303 c 0.49144,0.207863 0.93401,0.508645 1.30569,0.880322 0.37168,0.371678 0.67246,0.81425 0.88032,1.305693 0.20787,0.491444 0.32281,1.031757 0.32281,1.598918 0,0.56716 -0.11494,1.107473 -0.32281,1.598915 -0.20786,0.491442 -0.50864,0.934014 -0.88032,1.30569 -0.37168,0.371677 -0.81425,0.672458 -1.30569,0.88032 -0.49145,0.207863 -1.03176,0.322806 -1.42579,0.322806 h -29.78572 c -0.58791,0 -1.12822,-0.114943 -1.61967,-0.322806 -0.49144,-0.207862 -0.93401,-0.508644 -1.30569,-0.88032 -0.37168,-0.371677 -0.67246,-0.814248 -0.88032,-1.30569 -0.20787,-0.491443 -0.32281,-1.031756 -0.32281,-1.598915 0,-0.567161 0.11494,-1.107475 0.32281,-1.598918 0.20786,-0.491443 0.50864,-0.934015 0.88032,-1.305693 0.37168,-0.371677 0.81425,-0.672459 1.30569,-0.880322 0.49145,-0.207863 1.03176,-0.322807 1.61967,-0.322806 l 29.78572,-1e-6 c 0.39403,0 0.93434,0.114944 1.42579,0.322807 z"
       sodipodi:nodetypes="sssssssccsssssssccs" />
    <path
       id="path180"
       style="fill:#ff5500;fill-opacity:1;stroke-width:1.32292;stroke-linecap:round"
       d="m 280.29497,46.959491 v 8.215479 l 24.54174,-0.0981 c 1.64413,-0.0039 3.86617,0.05795 3.86617,-4.009641 0,-2.268642 -1.8391,-4.107744 -3.9346,-4.10774 z m -0.0415,2e-6 c -0.56716,0 -1.10747,0.114944 -1.59892,0.322806 -0.49144,0.207863 -0.93401,0.508646 -1.30569,0.880323 -0.37168,0.371677 -0.67246,0.814249 -0.88032,1.305693 -0.20787,0.491443 -0.32281,1.031757 -0.32281,1.598917 0,0.56716 0.11494,1.107474 0.32281,1.598917 0.20786,0.491444 0.50864,0.934016 0.88032,1.305693 0.37168,0.371677 0.81425,0.67246 1.30569,0.880323 0.49145,0.207862 1.03176,0.322806 1.59892,0.322806 5.37125,0 5.37125,-8.215478 0,-8.215478 z"
       sodipodi:nodetypes="cccsccssssssssss" />
    <path
       id="path193"
       style="fill:#550000;fill-opacity:1;stroke-width:1.32292;stroke-linecap:round"
       d="m 316.08338,46.407805 c 0.49144,0.207863 0.93402,0.508645 1.30569,0.880322 0.37168,0.371678 0.67246,0.81425 0.88032,1.305693 0.20787,0.491443 0.32281,1.031757 0.32281,1.598918 0,0.56716 -0.11494,1.107473 -0.32281,1.598915 -0.20786,0.491442 -0.50864,0.934014 -0.88032,1.30569 -0.37168,0.371677 -0.81425,0.672458 -1.30569,0.88032 -0.49145,0.207863 -1.03176,0.322806 -1.42578,0.322806 h -29.78572 c -0.58791,0 -1.12822,-0.114943 -1.61966,-0.322806 -0.49144,-0.207862 -0.93401,-0.508644 -1.30569,-0.88032 -0.37168,-0.371677 -0.67246,-0.814248 -0.88032,-1.30569 -0.20787,-0.491443 -0.32281,-1.031756 -0.32281,-1.598915 0,-0.567161 0.11494,-1.107475 0.32281,-1.598918 0.20786,-0.491443 0.50864,-0.934015 0.88031,-1.305693 0.37168,-0.371677 0.81425,-0.672459 1.30569,-0.880322 0.49145,-0.207863 1.03176,-0.322807 1.61967,-0.322807 l 29.78572,0 c 0.39402,0 0.93434,0.114944 1.42578,0.322807 z"
       sodipodi:nodetypes="sssssssccsssssssccs" />
    <path
       id="path185"
       style="fill:#ff5500;fill-opacity:1;stroke-width:1.32292;stroke-linecap:round"
       d="m 301.65886,12.10612 c 0,-2.268639 -1.8391,-4.107731 -4.10774,-4.107731 -2.26864,0 -4.10773,1.839093 -4.10774,4.107731 0,2.268642 1.8391,4.10774 4.10774,4.10774 2.26864,0 4.10774,-1.839098 4.10774,-4.10774 z m -3.76147,4.107739 v -8.21547 h -29.95886 c -0.58791,0 -1.12822,0.1149433 -1.61967,0.3228058 -0.49144,0.2078624 -0.93401,0.5086439 -1.30569,0.8803205 -0.37168,0.3716765 -0.67246,0.8142477 -0.88032,1.3056897 -0.20787,0.491443 -0.32281,1.031756 -0.32281,1.598915 0,0.567161 0.11494,1.107475 0.32281,1.598918 0.20786,0.491443 0.50864,0.934015 0.88032,1.305693 0.37168,0.371677 0.81425,0.672459 1.30569,0.880322 0.49145,0.207863 1.03176,0.322807 1.61967,0.322807 z"
       sodipodi:nodetypes="ssssscccssssssscc" />
    <path
       id="path186"
       style="fill:#ff5500;fill-opacity:1;stroke-width:1.32292;stroke-linecap:round"
       d="m 312.24219,4.168618 c 0,-2.268639 -1.8391,-4.107731 -4.10774,-4.107731 -5.37123,0 -5.37124,8.215471 0,8.215471 2.26865,0 4.10774,-1.839098 4.10774,-4.10774 z m -3.76147,4.107739 v -8.21547 l -29.95886,-10e-9 c -0.58791,-1e-8 -1.12822,0.11494332 -1.61967,0.32280576 -0.49144,0.20786244 -0.93401,0.508644 -1.30569,0.88032055 -0.37167,0.3716765 -0.67246,0.8142479 -0.88032,1.3056901 -0.20786,0.4914422 -0.32281,1.0317551 -0.32281,1.5989146 0,0.5671605 0.11494,1.1074745 0.3228,1.5989177 0.20787,0.4914432 0.50865,0.9340157 0.88033,1.305693 0.37167,0.3716774 0.81425,0.6724597 1.30569,0.8803227 0.49145,0.207863 1.03176,0.322807 1.61967,0.3228063 z"
       sodipodi:nodetypes="sssscccssssssscc" />
    <path
       id="path191"
       style="fill:#550000;fill-opacity:1;stroke-width:1.32292;stroke-linecap:round"
       d="m 290.16354,38.425465 c -0.58791,0 -1.12822,-0.114943 -1.61967,-0.322806 -0.49144,-0.207862 -0.93401,-0.508644 -1.30569,-0.88032 -0.37167,-0.371677 -0.67246,-0.814248 -0.88032,-1.30569 -0.20786,-0.491443 -0.32281,-1.031755 -0.32281,-1.598915 0,-0.56716 0.11494,-1.107474 0.3228,-1.598918 0.20787,-0.491443 0.50865,-0.934015 0.88033,-1.305693 0.37167,-0.371677 0.81425,-0.672459 1.30569,-0.880322 0.49145,-0.207863 1.03176,-0.322807 1.61967,-0.322806 l 29.78573,0 c 0.39402,-1e-6 0.93434,0.114943 1.42578,0.322806 0.49144,0.207863 0.93402,0.508645 1.30569,0.880322 0.37168,0.371678 0.67246,0.81425 0.88032,1.305693 0.20787,0.491444 0.32281,1.031758 0.32281,1.598918 0,0.56716 -0.11494,1.107473 -0.32281,1.598915 -0.20786,0.491442 -0.50864,0.934014 -0.88032,1.30569 -0.37168,0.371677 -0.81425,0.672458 -1.30569,0.88032 -0.49145,0.207863 -1.03176,0.322806 -1.42578,0.322806 z"
       sodipodi:nodetypes="csssssssccssssssscc" />
    <path
       id="path189"
       style="fill:#550000;fill-opacity:1;stroke-width:1.32292;stroke-linecap:round"
       d="m 313.0701,14.864161 c 0.39403,-10e-7 0.93434,0.114943 1.42579,0.322806 0.49144,0.207863 0.93401,0.508645 1.30569,0.880322 0.37168,0.371678 0.67246,0.81425 0.88032,1.305693 0.20787,0.491443 0.32281,1.031758 0.32281,1.598918 0,0.567161 -0.11494,1.107474 -0.32281,1.598918 -0.20786,0.491443 -0.50864,0.934015 -0.88032,1.305692 -0.37168,0.371678 -0.81425,0.67246 -1.30569,0.880323 -0.49145,0.207862 -1.03176,0.322806 -1.42579,0.322807 l -24.49405,0 c -0.58791,-1e-6 -1.12822,-0.114945 -1.61967,-0.322808 -0.49144,-0.207863 -0.93401,-0.508645 -1.30569,-0.880322 -0.37168,-0.371677 -0.67246,-0.81425 -0.88032,-1.305693 -0.20787,-0.491443 -0.32281,-1.031757 -0.32281,-1.598917 0,-0.56716 0.11494,-1.107474 0.32281,-1.598918 0.20786,-0.491443 0.50864,-0.934015 0.88032,-1.305693 0.37168,-0.371677 0.81425,-0.672459 1.30569,-0.880322 0.49145,-0.207863 1.03176,-0.322807 1.61967,-0.322806 z"
       sodipodi:nodetypes="csssssssccssssssscc" />
    <path
       id="path188"
       style="fill:#550000;fill-opacity:1;stroke-width:1.32292;stroke-linecap:round"
       d="m 284.89263,15.142139 -1.64041,-0.322809 c -0.49144,-0.207863 -0.93401,-0.508645 -1.30569,-0.880322 -0.37168,-0.371677 -0.67246,-0.81425 -0.88032,-1.305693 -0.20787,-0.491443 -0.32281,-1.031757 -0.32281,-1.598917 0,-0.56716 0.11494,-1.1074743 0.32281,-1.5989174 0.20786,-0.4914431 0.50864,-0.9340154 0.88032,-1.3056927 0.37167,-0.3716773 0.81425,-0.6724595 1.30569,-0.8803225 0.49144,-0.2078629 1.03176,-0.3228066 1.61967,-0.3228062 h 35.07738 c 0.39402,-6e-7 0.93434,0.1149429 1.42578,0.3228058 0.49144,0.2078629 0.93402,0.5037787 1.30569,0.8754564 0.37168,0.3716774 0.67246,0.8191159 0.88032,1.310559 0.20787,0.4914432 0.32281,1.0317576 0.32281,1.5989176 0,0.567161 -0.11494,1.107474 -0.32281,1.598918 -0.20786,0.491443 -0.50864,0.934015 -0.88032,1.305692 -0.37167,0.371677 -0.81425,0.67246 -1.30569,0.880323 -0.49144,0.207862 -1.03176,0.322806 -1.42578,0.322807 z"
       sodipodi:nodetypes="ccssssssccssssssscc" />
    <path
       id="path187"
       style="fill:#550000;fill-opacity:1;stroke-width:1.32292;stroke-linecap:round"
       d="m 312.54407,-0.49080842 c 0.49144,0.2078629 0.93402,0.5086452 1.30569,0.8803225 0.37168,0.3716774 0.67246,0.81424972 0.88032,1.30569292 0.20787,0.4914432 0.32281,1.0317572 0.32281,1.5989177 0,0.5671605 -0.11494,1.1074744 -0.32281,1.5989175 -0.20786,0.4914431 -0.50864,0.9340154 -0.88032,1.3056927 -0.37167,0.3716773 -0.81425,0.6724595 -1.30569,0.8803224 -0.49144,0.2078629 -1.03176,0.3228064 -1.42578,0.3228074 H 291.9159 c -0.58791,-1e-6 -1.12822,-0.1149445 -1.61967,-0.3228074 -0.49144,-0.2078629 -0.93401,-0.5086451 -1.30569,-0.8803224 -0.37168,-0.3716773 -0.67246,-0.8142496 -0.88032,-1.3056927 -0.20787,-0.4914431 -0.32281,-1.031757 -0.32281,-1.5989175 0,-0.5671605 0.11494,-1.1074745 0.32281,-1.5989177 0.20786,-0.4914432 0.50864,-0.93401552 0.88032,-1.30569292 0.37168,-0.3716773 0.81425,-0.6724596 1.30569,-0.8803225 0.49145,-0.2078629 1.03176,-0.3228065 1.61967,-0.322806 h 19.20239 c 0.39402,-5e-7 0.93434,0.1149431 1.42578,0.322806 z"
       sodipodi:nodetypes="sssssssccsssssssccs" />
  </g>
</svg>
