<?xml version="1.0" encoding="UTF-8" standalone="no"?>
<!-- Created with Inkscape (http://www.inkscape.org/) -->

<svg
   width="1440"
   height="205"
   viewBox="0 0 380.99999 54.239583"
   version="1.1"
   id="svg1"
   inkscape:version="1.4 (e7c3feb100, 2024-10-09)"
   sodipodi:docname="sky-roll-2.svg"
   inkscape:export-filename="/home/duhrer/Source/Projects/duhrer.github.io/assets/img/2025-03-08-sky-roll.png"
   inkscape:export-xdpi="96.343193"
   inkscape:export-ydpi="96.343193"
   xmlns:inkscape="http://www.inkscape.org/namespaces/inkscape"
   xmlns:sodipodi="http://sodipodi.sourceforge.net/DTD/sodipodi-0.dtd"
   xmlns="http://www.w3.org/2000/svg"
   xmlns:svg="http://www.w3.org/2000/svg">
  <sodipodi:namedview
     id="namedview1"
     pagecolor="#ffffff"
     bordercolor="#cccccc"
     borderopacity="1"
     inkscape:showpageshadow="0"
     inkscape:pageopacity="1"
     inkscape:pagecheckerboard="0"
     inkscape:deskcolor="#d1d1d1"
     inkscape:document-units="px"
     showguides="true"
     inkscape:zoom="1.1272487"
     inkscape:cx="131.29312"
     inkscape:cy="181.85871"
     inkscape:window-width="1360"
     inkscape:window-height="1070"
     inkscape:window-x="26"
     inkscape:window-y="23"
     inkscape:window-maximized="0"
     inkscape:current-layer="layer1">
    <sodipodi:guide
       position="92.795978,40.956287"
       orientation="0,-1"
       id="guide1"
       inkscape:locked="false" />
    <sodipodi:guide
       position="190.73767,53.169847"
       orientation="1,0"
       id="guide10"
       inkscape:locked="false" />
    <sodipodi:guide
       position="95.30164,35.408657"
       orientation="1,0"
       id="guide11"
       inkscape:locked="false" />
    <sodipodi:guide
       position="275.4219,38.309772"
       orientation="1,0"
       id="guide12"
       inkscape:locked="false" />
    <sodipodi:guide
       position="47.636333,49.390232"
       orientation="1,0"
       id="guide13"
       inkscape:locked="false" />
    <sodipodi:guide
       position="142.91217,59.849542"
       orientation="1,0"
       id="guide14"
       inkscape:locked="false" />
    <sodipodi:guide
       position="232.88083,52.357493"
       orientation="1,0"
       id="guide15"
       inkscape:locked="false" />
    <sodipodi:guide
       position="322.40853,-15.11555"
       orientation="1,0"
       id="guide16"
       inkscape:locked="false" />
  </sodipodi:namedview>
  <defs
     id="defs1" />
  <g
     inkscape:label="Layer 1"
     inkscape:groupmode="layer"
     id="layer1"
     transform="translate(-0.13232601,-0.06088688)">
    <path
       id="rect9"
       style="stroke:none;stroke-width:0.393287;stroke-linecap:round;stroke-opacity:1"
       d="m 295.10902,0.13232601 h 85.89091 V 54.107256 h -85.89091 z" />
    <path
       id="rect1"
       style="stroke:none;stroke-width:0.426067;stroke-linecap:round;stroke-opacity:1"
       d="M 0.13232601,0.13232601 H 100.93849 V 54.107256 H 0.13232601 Z" />
    <path
       id="path23"
       style="fill:#ffffff;stroke:none;stroke-width:0.0374177;stroke-linecap:round;stroke-opacity:1"
       d="M 4.4369447,2.9810658 A 0.26458336,0.26458336 0 0 1 4.1723612,3.2456498 0.26458336,0.26458336 0 0 1 3.9077778,2.9810658 0.26458336,0.26458336 0 0 1 4.1723612,2.7164828 0.26458336,0.26458336 0 0 1 4.4369447,2.9810658 Z" />
    <path
       id="path18"
       style="fill:#ffffff;stroke:none;stroke-width:0.0232644;stroke-linecap:round;stroke-opacity:1"
       inkscape:transform-center-x="-0.050497848"
       inkscape:transform-center-y="-0.16587428"
       d="m 338.67657,41.106324 -1.28294,-1.487365 -1.80974,0.763545 1.48737,-1.282937 -0.76355,-1.809747 1.28294,1.487366 1.80974,-0.763546 -1.48736,1.282938 z" />
    <path
       id="path19"
       style="fill:#ffffff;stroke:none;stroke-width:0.0337937;stroke-linecap:round;stroke-opacity:1"
       d="m 368.82946,29.603879 -2.30906,-1.292522 -1.18079,2.368149 0.51572,-2.595462 -2.61713,-0.391199 2.6278,-0.311562 -0.43668,-2.609923 1.10834,2.402906 2.34725,-1.221822 -1.94281,1.79664 z" />
    <path
       id="path20"
       style="fill:#ffffff;stroke:none;stroke-width:0.0275999;stroke-linecap:round;stroke-opacity:1"
       inkscape:transform-center-x="-0.059908615"
       inkscape:transform-center-y="-0.19678551"
       d="M 11.169493,41.2503 9.6474715,39.485753 7.5004663,40.391591 9.265013,38.86957 8.3591745,36.722565 l 1.5220215,1.764546 2.147005,-0.905838 -1.764546,1.522022 z" />
    <path
       id="path21"
       style="fill:#ffffff;stroke:none;stroke-width:0.0198168;stroke-linecap:round;stroke-opacity:1"
       d="m 29.437672,21.582085 -1.354045,-0.75794 -0.692419,1.388692 0.302421,-1.521989 -1.534694,-0.229401 1.540951,-0.182701 -0.256074,-1.530469 0.649939,1.409074 1.376432,-0.716481 -1.139266,1.053556 z" />
    <path
       id="path24"
       style="fill:#ffffff;stroke:none;stroke-width:0.0374177;stroke-linecap:round;stroke-opacity:1"
       d="M 6.0244448,7.7435657 A 0.26458336,0.26458336 0 0 1 5.7598613,8.0081497 0.26458336,0.26458336 0 0 1 5.4952779,7.7435657 0.26458336,0.26458336 0 0 1 5.7598613,7.4789827 0.26458336,0.26458336 0 0 1 6.0244448,7.7435657 Z" />
    <path
       id="path25"
       style="fill:#ffffff;stroke:none;stroke-width:0.0374177;stroke-linecap:round;stroke-opacity:1"
       d="m 14.49111,4.0393992 a 0.26458336,0.26458336 0 0 1 -0.264583,0.264584 0.26458336,0.26458336 0 0 1 -0.264584,-0.264584 0.26458336,0.26458336 0 0 1 0.264584,-0.264583 0.26458336,0.26458336 0 0 1 0.264583,0.264583 z" />
    <path
       id="path26"
       style="fill:#ffffff;stroke:none;stroke-width:0.0374177;stroke-linecap:round;stroke-opacity:1"
       d="m 25.074444,9.3310658 a 0.26458336,0.26458336 0 0 1 -0.264583,0.264584 0.26458336,0.26458336 0 0 1 -0.264584,-0.264584 0.26458336,0.26458336 0 0 1 0.264584,-0.264583 0.26458336,0.26458336 0 0 1 0.264583,0.264583 z" />
    <path
       id="path27"
       style="fill:#ffffff;stroke:none;stroke-width:0.0374177;stroke-linecap:round;stroke-opacity:1"
       d="m 22.428609,4.0393992 a 0.26458336,0.26458336 0 0 1 -0.264583,0.264584 0.26458336,0.26458336 0 0 1 -0.264584,-0.264584 0.26458336,0.26458336 0 0 1 0.264584,-0.264583 0.26458336,0.26458336 0 0 1 0.264583,0.264583 z" />
    <path
       id="path28"
       style="fill:#ffffff;stroke:none;stroke-width:0.0374177;stroke-linecap:round;stroke-opacity:1"
       d="m 29.307777,3.5102325 a 0.26458336,0.26458336 0 0 1 -0.264583,0.264584 0.26458336,0.26458336 0 0 1 -0.264584,-0.264584 0.26458336,0.26458336 0 0 1 0.264584,-0.264583 0.26458336,0.26458336 0 0 1 0.264583,0.264583 z" />
    <path
       id="path29"
       style="fill:#ffffff;stroke:none;stroke-width:0.0374177;stroke-linecap:round;stroke-opacity:1"
       d="M 16.078599,10.3894 A 0.26458336,0.26458336 0 0 1 15.814016,10.653984 0.26458336,0.26458336 0 0 1 15.549432,10.3894 0.26458336,0.26458336 0 0 1 15.814016,10.124817 0.26458336,0.26458336 0 0 1 16.078599,10.3894 Z" />
    <path
       id="path30"
       style="fill:#ffffff;stroke:none;stroke-width:0.0374177;stroke-linecap:round;stroke-opacity:1"
       d="m 8.1410982,14.622733 a 0.26458336,0.26458336 0 0 1 -0.2645827,0.264584 0.26458336,0.26458336 0 0 1 -0.264584,-0.264584 0.26458336,0.26458336 0 0 1 0.264584,-0.264583 0.26458336,0.26458336 0 0 1 0.2645827,0.264583 z" />
    <path
       id="path31"
       style="fill:#ffffff;stroke:none;stroke-width:0.0374177;stroke-linecap:round;stroke-opacity:1"
       d="M 4.4369447,18.856066 A 0.26458336,0.26458336 0 0 1 4.1723612,19.12065 0.26458336,0.26458336 0 0 1 3.9077778,18.856066 0.26458336,0.26458336 0 0 1 4.1723612,18.591483 0.26458336,0.26458336 0 0 1 4.4369447,18.856066 Z" />
    <path
       id="path32"
       style="fill:#ffffff;stroke:none;stroke-width:0.0374177;stroke-linecap:round;stroke-opacity:1"
       d="M 6.0244448,23.618566 A 0.26458336,0.26458336 0 0 1 5.7598613,23.88315 0.26458336,0.26458336 0 0 1 5.4952779,23.618566 0.26458336,0.26458336 0 0 1 5.7598613,23.353983 0.26458336,0.26458336 0 0 1 6.0244448,23.618566 Z" />
    <path
       id="path33"
       style="fill:#ffffff;stroke:none;stroke-width:0.0374177;stroke-linecap:round;stroke-opacity:1"
       d="m 14.49111,19.914399 a 0.26458336,0.26458336 0 0 1 -0.264583,0.264584 0.26458336,0.26458336 0 0 1 -0.264584,-0.264584 0.26458336,0.26458336 0 0 1 0.264584,-0.264583 0.26458336,0.26458336 0 0 1 0.264583,0.264583 z" />
    <path
       id="path34"
       style="fill:#ffffff;stroke:none;stroke-width:0.0374177;stroke-linecap:round;stroke-opacity:1"
       d="m 25.074444,25.206066 a 0.26458336,0.26458336 0 0 1 -0.264583,0.264584 0.26458336,0.26458336 0 0 1 -0.264584,-0.264584 0.26458336,0.26458336 0 0 1 0.264584,-0.264583 0.26458336,0.26458336 0 0 1 0.264583,0.264583 z" />
    <path
       id="path35"
       style="fill:#ffffff;stroke:none;stroke-width:0.0374177;stroke-linecap:round;stroke-opacity:1"
       d="m 22.428609,19.914399 a 0.26458336,0.26458336 0 0 1 -0.264583,0.264584 0.26458336,0.26458336 0 0 1 -0.264584,-0.264584 0.26458336,0.26458336 0 0 1 0.264584,-0.264583 0.26458336,0.26458336 0 0 1 0.264583,0.264583 z" />
    <path
       id="path36"
       style="fill:#ffffff;stroke:none;stroke-width:0.0374177;stroke-linecap:round;stroke-opacity:1"
       d="m 29.307777,19.385233 a 0.26458336,0.26458336 0 0 1 -0.264583,0.264584 0.26458336,0.26458336 0 0 1 -0.264584,-0.264584 0.26458336,0.26458336 0 0 1 0.264584,-0.264583 0.26458336,0.26458336 0 0 1 0.264583,0.264583 z" />
    <path
       id="path37"
       style="fill:#ffffff;stroke:none;stroke-width:0.0374177;stroke-linecap:round;stroke-opacity:1"
       d="m 16.078599,26.264401 a 0.26458336,0.26458336 0 0 1 -0.264583,0.264584 0.26458336,0.26458336 0 0 1 -0.264584,-0.264584 0.26458336,0.26458336 0 0 1 0.264584,-0.264583 0.26458336,0.26458336 0 0 1 0.264583,0.264583 z" />
    <path
       id="path38"
       style="fill:#ffffff;stroke:none;stroke-width:0.0374177;stroke-linecap:round;stroke-opacity:1"
       d="m 8.1410982,30.497734 a 0.26458336,0.26458336 0 0 1 -0.2645827,0.264584 0.26458336,0.26458336 0 0 1 -0.264584,-0.264584 0.26458336,0.26458336 0 0 1 0.264584,-0.264583 0.26458336,0.26458336 0 0 1 0.2645827,0.264583 z" />
    <path
       id="path39"
       style="fill:#ffffff;stroke:none;stroke-width:0.0374177;stroke-linecap:round;stroke-opacity:1"
       d="M 4.4369447,34.731067 A 0.26458336,0.26458336 0 0 1 4.1723612,34.995651 0.26458336,0.26458336 0 0 1 3.9077778,34.731067 0.26458336,0.26458336 0 0 1 4.1723612,34.466484 0.26458336,0.26458336 0 0 1 4.4369447,34.731067 Z" />
    <path
       id="path40"
       style="fill:#ffffff;stroke:none;stroke-width:0.0374177;stroke-linecap:round;stroke-opacity:1"
       d="M 6.0244448,39.493567 A 0.26458336,0.26458336 0 0 1 5.7598613,39.758151 0.26458336,0.26458336 0 0 1 5.4952779,39.493567 0.26458336,0.26458336 0 0 1 5.7598613,39.228984 0.26458336,0.26458336 0 0 1 6.0244448,39.493567 Z" />
    <path
       id="path41"
       style="fill:#ffffff;stroke:none;stroke-width:0.0374177;stroke-linecap:round;stroke-opacity:1"
       d="M 14.49111,35.7894 A 0.26458336,0.26458336 0 0 1 14.226527,36.053984 0.26458336,0.26458336 0 0 1 13.961943,35.7894 0.26458336,0.26458336 0 0 1 14.226527,35.524817 0.26458336,0.26458336 0 0 1 14.49111,35.7894 Z" />
    <path
       id="path42"
       style="fill:#ffffff;stroke:none;stroke-width:0.0374177;stroke-linecap:round;stroke-opacity:1"
       d="m 25.074444,41.081067 a 0.26458336,0.26458336 0 0 1 -0.264583,0.264584 0.26458336,0.26458336 0 0 1 -0.264584,-0.264584 0.26458336,0.26458336 0 0 1 0.264584,-0.264583 0.26458336,0.26458336 0 0 1 0.264583,0.264583 z" />
    <path
       id="path43"
       style="fill:#ffffff;stroke:none;stroke-width:0.0374177;stroke-linecap:round;stroke-opacity:1"
       d="M 22.428609,35.7894 A 0.26458336,0.26458336 0 0 1 22.164026,36.053984 0.26458336,0.26458336 0 0 1 21.899442,35.7894 0.26458336,0.26458336 0 0 1 22.164026,35.524817 0.26458336,0.26458336 0 0 1 22.428609,35.7894 Z" />
    <path
       id="path44"
       style="fill:#ffffff;stroke:none;stroke-width:0.0374177;stroke-linecap:round;stroke-opacity:1"
       d="m 29.307777,35.260234 a 0.26458336,0.26458336 0 0 1 -0.264583,0.264584 0.26458336,0.26458336 0 0 1 -0.264584,-0.264584 0.26458336,0.26458336 0 0 1 0.264584,-0.264583 0.26458336,0.26458336 0 0 1 0.264583,0.264583 z" />
    <path
       id="path45"
       style="fill:#ffffff;stroke:none;stroke-width:0.0374177;stroke-linecap:round;stroke-opacity:1"
       d="m 16.078599,42.139402 a 0.26458336,0.26458336 0 0 1 -0.264583,0.264584 0.26458336,0.26458336 0 0 1 -0.264584,-0.264584 0.26458336,0.26458336 0 0 1 0.264584,-0.264583 0.26458336,0.26458336 0 0 1 0.264583,0.264583 z" />
    <path
       id="path46"
       style="fill:#ffffff;stroke:none;stroke-width:0.0374177;stroke-linecap:round;stroke-opacity:1"
       d="m 8.1410982,46.372735 a 0.26458336,0.26458336 0 0 1 -0.2645827,0.264584 0.26458336,0.26458336 0 0 1 -0.264584,-0.264584 0.26458336,0.26458336 0 0 1 0.264584,-0.264583 0.26458336,0.26458336 0 0 1 0.2645827,0.264583 z" />
    <path
       id="path47"
       style="fill:#ffffff;stroke:none;stroke-width:0.0374177;stroke-linecap:round;stroke-opacity:1"
       d="m 20.311945,45.314401 a 0.26458336,0.26458336 0 0 1 -0.264584,0.264584 0.26458336,0.26458336 0 0 1 -0.264583,-0.264584 0.26458336,0.26458336 0 0 1 0.264583,-0.264583 0.26458336,0.26458336 0 0 1 0.264584,0.264583 z" />
    <path
       id="path49"
       style="fill:#ffffff;stroke:none;stroke-width:0.0374177;stroke-linecap:round;stroke-opacity:1"
       d="m 30.366111,46.372734 a 0.26458336,0.26458336 0 0 1 -0.264583,0.264584 0.26458336,0.26458336 0 0 1 -0.264584,-0.264584 0.26458336,0.26458336 0 0 1 0.264584,-0.264583 0.26458336,0.26458336 0 0 1 0.264583,0.264583 z" />
    <path
       id="path71"
       style="fill:#ffffff;stroke:none;stroke-width:0.0374177;stroke-linecap:round;stroke-opacity:1"
       d="m 379.08713,2.9810658 a 0.26458336,0.26458336 0 0 0 0.26458,0.264584 0.26458336,0.26458336 0 0 0 0.26458,-0.264584 0.26458336,0.26458336 0 0 0 -0.26458,-0.264583 0.26458336,0.26458336 0 0 0 -0.26458,0.264583 z" />
    <path
       id="path72"
       style="fill:#ffffff;stroke:none;stroke-width:0.0374177;stroke-linecap:round;stroke-opacity:1"
       d="m 377.49963,7.7435657 a 0.26458336,0.26458336 0 0 0 0.26458,0.264584 0.26458336,0.26458336 0 0 0 0.26458,-0.264584 0.26458336,0.26458336 0 0 0 -0.26458,-0.264583 0.26458336,0.26458336 0 0 0 -0.26458,0.264583 z" />
    <path
       id="path73"
       style="fill:#ffffff;stroke:none;stroke-width:0.0374177;stroke-linecap:round;stroke-opacity:1"
       d="m 369.03296,4.0393992 a 0.26458336,0.26458336 0 0 0 0.26458,0.264584 0.26458336,0.26458336 0 0 0 0.26459,-0.264584 0.26458336,0.26458336 0 0 0 -0.26459,-0.264583 0.26458336,0.26458336 0 0 0 -0.26458,0.264583 z" />
    <path
       id="path74"
       style="fill:#ffffff;stroke:none;stroke-width:0.0374177;stroke-linecap:round;stroke-opacity:1"
       d="m 358.44963,9.3310658 a 0.26458336,0.26458336 0 0 0 0.26458,0.264584 0.26458336,0.26458336 0 0 0 0.26458,-0.264584 0.26458336,0.26458336 0 0 0 -0.26458,-0.264583 0.26458336,0.26458336 0 0 0 -0.26458,0.264583 z" />
    <path
       id="path75"
       style="fill:#ffffff;stroke:none;stroke-width:0.0374177;stroke-linecap:round;stroke-opacity:1"
       d="m 361.09546,4.0393992 a 0.26458336,0.26458336 0 0 0 0.26458,0.264584 0.26458336,0.26458336 0 0 0 0.26459,-0.264584 0.26458336,0.26458336 0 0 0 -0.26459,-0.264583 0.26458336,0.26458336 0 0 0 -0.26458,0.264583 z" />
    <path
       id="path76"
       style="fill:#ffffff;stroke:none;stroke-width:0.0374177;stroke-linecap:round;stroke-opacity:1"
       d="m 354.21629,3.5102325 a 0.26458336,0.26458336 0 0 0 0.26459,0.264584 0.26458336,0.26458336 0 0 0 0.26458,-0.264584 0.26458336,0.26458336 0 0 0 -0.26458,-0.264583 0.26458336,0.26458336 0 0 0 -0.26459,0.264583 z" />
    <path
       id="path77"
       style="fill:#ffffff;stroke:none;stroke-width:0.0374177;stroke-linecap:round;stroke-opacity:1"
       d="m 367.44547,10.3894 a 0.26458336,0.26458336 0 0 0 0.26458,0.264584 0.26458336,0.26458336 0 0 0 0.26459,-0.264584 0.26458336,0.26458336 0 0 0 -0.26459,-0.264583 0.26458336,0.26458336 0 0 0 -0.26458,0.264583 z" />
    <path
       id="path78"
       style="fill:#ffffff;stroke:none;stroke-width:0.0374177;stroke-linecap:round;stroke-opacity:1"
       d="m 375.38297,14.622733 a 0.26458336,0.26458336 0 0 0 0.26458,0.264584 0.26458336,0.26458336 0 0 0 0.26459,-0.264584 0.26458336,0.26458336 0 0 0 -0.26459,-0.264583 0.26458336,0.26458336 0 0 0 -0.26458,0.264583 z" />
    <path
       id="path79"
       style="fill:#ffffff;stroke:none;stroke-width:0.0374177;stroke-linecap:round;stroke-opacity:1"
       d="m 379.08713,18.856066 a 0.26458336,0.26458336 0 0 0 0.26458,0.264584 0.26458336,0.26458336 0 0 0 0.26458,-0.264584 0.26458336,0.26458336 0 0 0 -0.26458,-0.264583 0.26458336,0.26458336 0 0 0 -0.26458,0.264583 z" />
    <path
       id="path80"
       style="fill:#ffffff;stroke:none;stroke-width:0.0374177;stroke-linecap:round;stroke-opacity:1"
       d="m 377.49963,23.618566 a 0.26458336,0.26458336 0 0 0 0.26458,0.264584 0.26458336,0.26458336 0 0 0 0.26458,-0.264584 0.26458336,0.26458336 0 0 0 -0.26458,-0.264583 0.26458336,0.26458336 0 0 0 -0.26458,0.264583 z" />
    <path
       id="path81"
       style="fill:#ffffff;stroke:none;stroke-width:0.0374177;stroke-linecap:round;stroke-opacity:1"
       d="m 369.03296,19.914399 a 0.26458336,0.26458336 0 0 0 0.26458,0.264584 0.26458336,0.26458336 0 0 0 0.26459,-0.264584 0.26458336,0.26458336 0 0 0 -0.26459,-0.264583 0.26458336,0.26458336 0 0 0 -0.26458,0.264583 z" />
    <path
       id="path82"
       style="fill:#ffffff;stroke:none;stroke-width:0.0374177;stroke-linecap:round;stroke-opacity:1"
       d="m 358.44963,25.206066 a 0.26458336,0.26458336 0 0 0 0.26458,0.264584 0.26458336,0.26458336 0 0 0 0.26458,-0.264584 0.26458336,0.26458336 0 0 0 -0.26458,-0.264583 0.26458336,0.26458336 0 0 0 -0.26458,0.264583 z" />
    <path
       id="path83"
       style="fill:#ffffff;stroke:none;stroke-width:0.0374177;stroke-linecap:round;stroke-opacity:1"
       d="m 361.09546,17.268564 a 0.26458336,0.26458336 0 0 0 0.26458,0.264584 0.26458336,0.26458336 0 0 0 0.26459,-0.264584 0.26458336,0.26458336 0 0 0 -0.26459,-0.264583 0.26458336,0.26458336 0 0 0 -0.26458,0.264583 z" />
    <path
       id="path84"
       style="fill:#ffffff;stroke:none;stroke-width:0.0374177;stroke-linecap:round;stroke-opacity:1"
       d="m 354.21629,19.385233 a 0.26458336,0.26458336 0 0 0 0.26459,0.264584 0.26458336,0.26458336 0 0 0 0.26458,-0.264584 0.26458336,0.26458336 0 0 0 -0.26458,-0.264583 0.26458336,0.26458336 0 0 0 -0.26459,0.264583 z" />
    <path
       id="path85"
       style="fill:#ffffff;stroke:none;stroke-width:0.0374177;stroke-linecap:round;stroke-opacity:1"
       d="m 372.73714,20.972734 a 0.26458336,0.26458336 0 0 0 0.26458,0.264584 0.26458336,0.26458336 0 0 0 0.26459,-0.264584 0.26458336,0.26458336 0 0 0 -0.26459,-0.264583 0.26458336,0.26458336 0 0 0 -0.26458,0.264583 z" />
    <path
       id="path86"
       style="fill:#ffffff;stroke:none;stroke-width:0.0374177;stroke-linecap:round;stroke-opacity:1"
       d="m 375.38297,30.497734 a 0.26458336,0.26458336 0 0 0 0.26458,0.264584 0.26458336,0.26458336 0 0 0 0.26459,-0.264584 0.26458336,0.26458336 0 0 0 -0.26459,-0.264583 0.26458336,0.26458336 0 0 0 -0.26458,0.264583 z" />
    <path
       id="path87"
       style="fill:#ffffff;stroke:none;stroke-width:0.0374177;stroke-linecap:round;stroke-opacity:1"
       d="m 379.08713,34.731067 a 0.26458336,0.26458336 0 0 0 0.26458,0.264584 0.26458336,0.26458336 0 0 0 0.26458,-0.264584 0.26458336,0.26458336 0 0 0 -0.26458,-0.264583 0.26458336,0.26458336 0 0 0 -0.26458,0.264583 z" />
    <path
       id="path88"
       style="fill:#ffffff;stroke:none;stroke-width:0.0374177;stroke-linecap:round;stroke-opacity:1"
       d="m 377.49963,39.493567 a 0.26458336,0.26458336 0 0 0 0.26458,0.264584 0.26458336,0.26458336 0 0 0 0.26458,-0.264584 0.26458336,0.26458336 0 0 0 -0.26458,-0.264583 0.26458336,0.26458336 0 0 0 -0.26458,0.264583 z" />
    <path
       id="path89"
       style="fill:#ffffff;stroke:none;stroke-width:0.0374177;stroke-linecap:round;stroke-opacity:1"
       d="m 369.03296,35.7894 a 0.26458336,0.26458336 0 0 0 0.26458,0.264584 0.26458336,0.26458336 0 0 0 0.26459,-0.264584 0.26458336,0.26458336 0 0 0 -0.26459,-0.264583 0.26458336,0.26458336 0 0 0 -0.26458,0.264583 z" />
    <path
       id="path90"
       style="fill:#ffffff;stroke:none;stroke-width:0.0374177;stroke-linecap:round;stroke-opacity:1"
       d="m 358.44963,41.081067 a 0.26458336,0.26458336 0 0 0 0.26458,0.264584 0.26458336,0.26458336 0 0 0 0.26458,-0.264584 0.26458336,0.26458336 0 0 0 -0.26458,-0.264583 0.26458336,0.26458336 0 0 0 -0.26458,0.264583 z" />
    <path
       id="path91"
       style="fill:#ffffff;stroke:none;stroke-width:0.0374177;stroke-linecap:round;stroke-opacity:1"
       d="m 361.09546,35.7894 a 0.26458336,0.26458336 0 0 0 0.26458,0.264584 0.26458336,0.26458336 0 0 0 0.26459,-0.264584 0.26458336,0.26458336 0 0 0 -0.26459,-0.264583 0.26458336,0.26458336 0 0 0 -0.26458,0.264583 z" />
    <path
       id="path92"
       style="fill:#ffffff;stroke:none;stroke-width:0.0374177;stroke-linecap:round;stroke-opacity:1"
       d="m 354.21629,35.260234 a 0.26458336,0.26458336 0 0 0 0.26459,0.264584 0.26458336,0.26458336 0 0 0 0.26458,-0.264584 0.26458336,0.26458336 0 0 0 -0.26458,-0.264583 0.26458336,0.26458336 0 0 0 -0.26459,0.264583 z" />
    <path
       id="path93"
       style="fill:#ffffff;stroke:none;stroke-width:0.0374177;stroke-linecap:round;stroke-opacity:1"
       d="m 367.44547,42.139402 a 0.26458336,0.26458336 0 0 0 0.26458,0.264584 0.26458336,0.26458336 0 0 0 0.26459,-0.264584 0.26458336,0.26458336 0 0 0 -0.26459,-0.264583 0.26458336,0.26458336 0 0 0 -0.26458,0.264583 z" />
    <path
       id="path94"
       style="fill:#ffffff;stroke:none;stroke-width:0.0374177;stroke-linecap:round;stroke-opacity:1"
       d="m 375.38297,46.372735 a 0.26458336,0.26458336 0 0 0 0.26458,0.264584 0.26458336,0.26458336 0 0 0 0.26459,-0.264584 0.26458336,0.26458336 0 0 0 -0.26459,-0.264583 0.26458336,0.26458336 0 0 0 -0.26458,0.264583 z" />
    <path
       id="path95"
       style="fill:#ffffff;stroke:none;stroke-width:0.0374177;stroke-linecap:round;stroke-opacity:1"
       d="m 363.21213,45.314401 a 0.26458336,0.26458336 0 0 0 0.26458,0.264584 0.26458336,0.26458336 0 0 0 0.26458,-0.264584 0.26458336,0.26458336 0 0 0 -0.26458,-0.264583 0.26458336,0.26458336 0 0 0 -0.26458,0.264583 z" />
    <path
       id="path96"
       style="fill:#ffffff;stroke:none;stroke-width:0.0374177;stroke-linecap:round;stroke-opacity:1"
       d="m 361.62462,50.076901 a 0.26458336,0.26458336 0 0 0 0.26459,0.264584 0.26458336,0.26458336 0 0 0 0.26458,-0.264584 0.26458336,0.26458336 0 0 0 -0.26458,-0.264583 0.26458336,0.26458336 0 0 0 -0.26459,0.264583 z" />
    <path
       id="path97"
       style="fill:#ffffff;stroke:none;stroke-width:0.0374177;stroke-linecap:round;stroke-opacity:1"
       d="m 353.15796,46.372734 a 0.26458336,0.26458336 0 0 0 0.26458,0.264584 0.26458336,0.26458336 0 0 0 0.26459,-0.264584 0.26458336,0.26458336 0 0 0 -0.26459,-0.264583 0.26458336,0.26458336 0 0 0 -0.26458,0.264583 z" />
    <path
       id="path98"
       style="fill:#ffffff;stroke:none;stroke-width:0.0374177;stroke-linecap:round;stroke-opacity:1"
       d="m 342.57462,51.664401 a 0.26458336,0.26458336 0 0 0 0.26459,0.264584 0.26458336,0.26458336 0 0 0 0.26458,-0.264584 0.26458336,0.26458336 0 0 0 -0.26458,-0.264583 0.26458336,0.26458336 0 0 0 -0.26459,0.264583 z" />
    <path
       id="path99"
       style="fill:#ffffff;stroke:none;stroke-width:0.0374177;stroke-linecap:round;stroke-opacity:1"
       d="m 345.22046,46.372734 a 0.26458336,0.26458336 0 0 0 0.26458,0.264584 0.26458336,0.26458336 0 0 0 0.26459,-0.264584 0.26458336,0.26458336 0 0 0 -0.26459,-0.264583 0.26458336,0.26458336 0 0 0 -0.26458,0.264583 z" />
    <path
       id="path101"
       style="fill:#ffffff;stroke:none;stroke-width:0.0374177;stroke-linecap:round;stroke-opacity:1"
       d="m 347.33712,24.147733 a 0.26458336,0.26458336 0 0 0 0.26459,0.264584 0.26458336,0.26458336 0 0 0 0.26458,-0.264584 0.26458336,0.26458336 0 0 0 -0.26458,-0.264583 0.26458336,0.26458336 0 0 0 -0.26459,0.264583 z" />
    <path
       id="path102"
       style="fill:#ffffff;stroke:none;stroke-width:0.0374177;stroke-linecap:round;stroke-opacity:1"
       d="m 345.74962,28.910233 a 0.26458336,0.26458336 0 0 0 0.26459,0.264584 0.26458336,0.26458336 0 0 0 0.26458,-0.264584 0.26458336,0.26458336 0 0 0 -0.26458,-0.264583 0.26458336,0.26458336 0 0 0 -0.26459,0.264583 z" />
    <path
       id="path107"
       style="fill:#ffffff;stroke:none;stroke-width:0.0374177;stroke-linecap:round;stroke-opacity:1"
       d="m 343.63297,35.789401 a 0.26458336,0.26458336 0 0 0 0.26458,0.264584 0.26458336,0.26458336 0 0 0 0.26459,-0.264584 0.26458336,0.26458336 0 0 0 -0.26459,-0.264583 0.26458336,0.26458336 0 0 0 -0.26458,0.264583 z" />
    <path
       id="path108"
       style="fill:#ffffff;stroke:none;stroke-width:0.0374177;stroke-linecap:round;stroke-opacity:1"
       d="m 347.33712,2.9810658 a 0.26458336,0.26458336 0 0 0 0.26459,0.264584 0.26458336,0.26458336 0 0 0 0.26458,-0.264584 0.26458336,0.26458336 0 0 0 -0.26458,-0.264583 0.26458336,0.26458336 0 0 0 -0.26459,0.264583 z" />
    <path
       id="path109"
       style="fill:#ffffff;stroke:none;stroke-width:0.0374177;stroke-linecap:round;stroke-opacity:1"
       d="m 345.74962,7.7435654 a 0.26458336,0.26458336 0 0 0 0.26459,0.264584 0.26458336,0.26458336 0 0 0 0.26458,-0.264584 0.26458336,0.26458336 0 0 0 -0.26458,-0.264583 0.26458336,0.26458336 0 0 0 -0.26459,0.264583 z" />
    <path
       id="path114"
       style="fill:#ffffff;stroke:none;stroke-width:0.0374177;stroke-linecap:round;stroke-opacity:1"
       d="m 343.63297,17.268568 a 0.26458336,0.26458336 0 0 0 0.26458,0.264584 0.26458336,0.26458336 0 0 0 0.26459,-0.264584 0.26458336,0.26458336 0 0 0 -0.26459,-0.264583 0.26458336,0.26458336 0 0 0 -0.26458,0.264583 z" />
    <path
       id="rect5"
       style="fill:#aaffff;fill-opacity:1;stroke:none;stroke-width:0.585882;stroke-linecap:round;stroke-opacity:1"
       d="M 99.519393,0.06088688 H 291.0908 V 53.765276 H 99.519393 Z" />
    <path
       id="path17"
       style="fill:#ffffff;stroke:none;stroke-width:0.022057;stroke-linecap:round;stroke-opacity:1"
       d="m 328.27214,19.921962 -1.50712,-0.843624 -0.7707,1.545681 0.33661,-1.694048 -1.70819,-0.255334 1.71515,-0.203355 -0.28502,-1.703487 0.72342,1.568368 1.53203,-0.797479 -1.26806,1.17266 z" />
    <path
       id="path51"
       style="fill:#ffffff;stroke:none;stroke-width:0.0374177;stroke-linecap:round;stroke-opacity:1"
       d="m 38.30361,49.018567 a 0.26458336,0.26458336 0 0 1 -0.264583,0.264584 0.26458336,0.26458336 0 0 1 -0.264584,-0.264584 0.26458336,0.26458336 0 0 1 0.264584,-0.264583 0.26458336,0.26458336 0 0 1 0.264583,0.264583 z" />
    <path
       id="path55"
       style="fill:#ffffff;stroke:none;stroke-width:0.0374177;stroke-linecap:round;stroke-opacity:1"
       d="m 36.186946,26.793566 a 0.26458336,0.26458336 0 0 1 -0.264584,0.264584 0.26458336,0.26458336 0 0 1 -0.264583,-0.264584 0.26458336,0.26458336 0 0 1 0.264583,-0.264583 0.26458336,0.26458336 0 0 1 0.264584,0.264583 z" />
    <path
       id="path56"
       style="fill:#ffffff;stroke:none;stroke-width:0.0374177;stroke-linecap:round;stroke-opacity:1"
       d="m 37.774446,31.556066 a 0.26458336,0.26458336 0 0 1 -0.264583,0.264584 0.26458336,0.26458336 0 0 1 -0.264584,-0.264584 0.26458336,0.26458336 0 0 1 0.264584,-0.264583 0.26458336,0.26458336 0 0 1 0.264583,0.264583 z" />
    <path
       id="path62"
       style="fill:#ffffff;stroke:none;stroke-width:0.0374177;stroke-linecap:round;stroke-opacity:1"
       d="m 39.8911,38.435234 a 0.26458336,0.26458336 0 0 1 -0.264583,0.264584 0.26458336,0.26458336 0 0 1 -0.264584,-0.264584 0.26458336,0.26458336 0 0 1 0.264584,-0.264583 0.26458336,0.26458336 0 0 1 0.264583,0.264583 z" />
    <path
       id="path63"
       style="fill:#ffffff;stroke:none;stroke-width:0.0374177;stroke-linecap:round;stroke-opacity:1"
       d="m 36.186946,5.6268992 a 0.26458336,0.26458336 0 0 1 -0.264584,0.264584 0.26458336,0.26458336 0 0 1 -0.264583,-0.264584 0.26458336,0.26458336 0 0 1 0.264583,-0.264583 0.26458336,0.26458336 0 0 1 0.264584,0.264583 z" />
    <path
       id="path64"
       style="fill:#ffffff;stroke:none;stroke-width:0.0374177;stroke-linecap:round;stroke-opacity:1"
       d="m 37.774446,10.389399 a 0.26458336,0.26458336 0 0 1 -0.264583,0.264584 0.26458336,0.26458336 0 0 1 -0.264584,-0.264584 0.26458336,0.26458336 0 0 1 0.264584,-0.264583 0.26458336,0.26458336 0 0 1 0.264583,0.264583 z" />
    <path
       id="path70"
       style="fill:#ffffff;stroke:none;stroke-width:0.0374177;stroke-linecap:round;stroke-opacity:1"
       d="m 39.8911,17.268566 a 0.26458336,0.26458336 0 0 1 -0.264583,0.264584 0.26458336,0.26458336 0 0 1 -0.264584,-0.264584 0.26458336,0.26458336 0 0 1 0.264584,-0.264583 0.26458336,0.26458336 0 0 1 0.264583,0.264583 z" />
    <path
       id="path100"
       style="fill:#ffffff;stroke:none;stroke-width:0.0374177;stroke-linecap:round;stroke-opacity:1"
       d="m 338.34129,48.489401 a 0.26458336,0.26458336 0 0 0 0.26458,0.264584 0.26458336,0.26458336 0 0 0 0.26459,-0.264584 0.26458336,0.26458336 0 0 0 -0.26459,-0.264583 0.26458336,0.26458336 0 0 0 -0.26458,0.264583 z" />
    <path
       id="path103"
       style="fill:#ffffff;stroke:none;stroke-width:0.0374177;stroke-linecap:round;stroke-opacity:1"
       d="m 337.28296,27.851899 a 0.26458336,0.26458336 0 0 0 0.26458,0.264584 0.26458336,0.26458336 0 0 0 0.26458,-0.264584 0.26458336,0.26458336 0 0 0 -0.26458,-0.264583 0.26458336,0.26458336 0 0 0 -0.26458,0.264583 z" />
    <path
       id="path104"
       style="fill:#ffffff;stroke:none;stroke-width:0.0374177;stroke-linecap:round;stroke-opacity:1"
       d="m 326.69962,33.143566 a 0.26458336,0.26458336 0 0 0 0.26459,0.264584 0.26458336,0.26458336 0 0 0 0.26458,-0.264584 0.26458336,0.26458336 0 0 0 -0.26458,-0.264583 0.26458336,0.26458336 0 0 0 -0.26459,0.264583 z" />
    <path
       id="path105"
       style="fill:#ffffff;stroke:none;stroke-width:0.0374177;stroke-linecap:round;stroke-opacity:1"
       d="m 329.34546,27.851899 a 0.26458336,0.26458336 0 0 0 0.26458,0.264584 0.26458336,0.26458336 0 0 0 0.26459,-0.264584 0.26458336,0.26458336 0 0 0 -0.26459,-0.264583 0.26458336,0.26458336 0 0 0 -0.26458,0.264583 z" />
    <path
       id="path106"
       style="fill:#ffffff;stroke:none;stroke-width:0.0374177;stroke-linecap:round;stroke-opacity:1"
       d="m 335.69547,34.201901 a 0.26458336,0.26458336 0 0 0 0.26458,0.264584 0.26458336,0.26458336 0 0 0 0.26459,-0.264584 0.26458336,0.26458336 0 0 0 -0.26459,-0.264583 0.26458336,0.26458336 0 0 0 -0.26458,0.264583 z" />
    <path
       id="path110"
       style="fill:#ffffff;stroke:none;stroke-width:0.0374177;stroke-linecap:round;stroke-opacity:1"
       d="m 358.44964,6.6852324 a 0.26458336,0.26458336 0 0 0 0.26458,0.264584 0.26458336,0.26458336 0 0 0 0.26458,-0.264584 0.26458336,0.26458336 0 0 0 -0.26458,-0.264583 0.26458336,0.26458336 0 0 0 -0.26458,0.264583 z" />
    <path
       id="path111"
       style="fill:#ffffff;stroke:none;stroke-width:0.0374177;stroke-linecap:round;stroke-opacity:1"
       d="m 347.8663,11.976899 a 0.26458336,0.26458336 0 0 0 0.26459,0.264584 0.26458336,0.26458336 0 0 0 0.26458,-0.264584 0.26458336,0.26458336 0 0 0 -0.26458,-0.264583 0.26458336,0.26458336 0 0 0 -0.26459,0.264583 z" />
    <path
       id="path112"
       style="fill:#ffffff;stroke:none;stroke-width:0.0374177;stroke-linecap:round;stroke-opacity:1"
       d="m 350.51214,6.6852324 a 0.26458336,0.26458336 0 0 0 0.26458,0.264584 0.26458336,0.26458336 0 0 0 0.26459,-0.264584 0.26458336,0.26458336 0 0 0 -0.26459,-0.264583 0.26458336,0.26458336 0 0 0 -0.26458,0.264583 z" />
    <path
       id="path113"
       style="fill:#ffffff;stroke:none;stroke-width:0.0374177;stroke-linecap:round;stroke-opacity:1"
       d="m 356.86215,13.035233 a 0.26458336,0.26458336 0 0 0 0.26458,0.264584 0.26458336,0.26458336 0 0 0 0.26459,-0.264584 0.26458336,0.26458336 0 0 0 -0.26459,-0.264583 0.26458336,0.26458336 0 0 0 -0.26458,0.264583 z" />
    <path
       id="path2"
       style="fill:#000055;stroke-width:0.204065;stroke-linecap:round"
       d="m 78.610507,55.144537 c 0,-2.703382 0.110197,-5.394858 0.32782,-8.057744 0.217625,-2.662885 0.542676,-5.297181 0.972386,-7.886204 0.42971,-2.589022 0.964078,-5.132773 1.600336,-7.614566 0.636258,-2.481793 1.374406,-4.90163 2.211674,-7.242828 l 8.26147,7.700335 8.261477,7.700336 8.26146,7.700336 8.26148,7.700335 h -9.53953 -9.539523 -9.539525 z"
       sodipodi:nodetypes="csssccccccccc" />
    <path
       id="path3"
       style="fill:#5555aa;stroke-width:0.204065;stroke-linecap:round"
       d="m 83.719456,24.147634 c 0.837268,-2.341198 1.766281,-4.583134 2.779475,-6.713594 1.013193,-2.130459 2.110567,-4.149443 3.284556,-6.04474 1.17399,-1.8952961 2.424595,-3.6669046 3.74425,-5.3026111 1.319655,-1.6357065 2.70836,-3.1355115 4.158551,-4.4872032 l 4.769762,13.3373723 4.76976,13.337374 4.76976,13.337371 4.76977,13.337374 -8.26147,-7.700337 -8.26147,-7.700335 -8.261474,-7.700336 z"
       sodipodi:nodetypes="csssccccccccc" />
    <path
       id="path4"
       style="fill:#0055aa;stroke-width:0.227391;stroke-linecap:round"
       d="m 95.669885,-4.5118791 c 1.615955,-1.5061959 3.286184,-2.8340793 4.999185,-3.9786696 1.713,-1.1445907 3.46876,-2.1058873 5.25577,-2.8789103 1.78701,-0.773023 3.60527,-1.357771 5.44326,-1.749264 1.83799,-0.391492 3.69571,-0.589729 5.56166,-0.589729 V 3.4525895 20.613632 37.774675 54.935717 l -5.31497,-14.861899 -5.31496,-14.8619 -5.31498,-14.861898 z"
       sodipodi:nodetypes="csssccccccccc" />
    <path
       style="fill:none;stroke:#0055aa;stroke-width:1.02033;stroke-linecap:round;stroke-dasharray:none;stroke-opacity:1"
       d="M 116.44741,54.625965 83.401537,23.824626"
       id="path57"
       sodipodi:nodetypes="cc" />
    <path
       style="fill:none;stroke:#55aaff;stroke-width:1.02033;stroke-linecap:round;stroke-dasharray:none;stroke-opacity:1"
       d="M 116.44741,54.377308 97.368353,1.0278212"
       id="path54"
       sodipodi:nodetypes="cc" />
    <path
       style="fill:none;stroke:#aaffff;stroke-width:1.32292;stroke-linecap:round;stroke-dasharray:none;stroke-opacity:1"
       d="M 116.65183,55.655863 V -7.2059156"
       id="path53"
       sodipodi:nodetypes="cc" />
    <path
       id="path5"
       style="fill:#55aaff;stroke-width:0.29532;stroke-linecap:round"
       d="m 116.94733,-13.959822 c 3.07911,0 6.14465,0.202628 9.17764,0.602791 3.03298,0.400163 6.0334,0.997862 8.98225,1.788004 2.94886,0.790144 5.84615,1.7727307 8.67287,2.9426705 2.82671,1.1699398 5.58287,2.5272322 8.24945,4.0667858 l -8.77055,15.1910467 -8.77056,15.191047 -8.77055,15.191047 -8.77055,15.191047 V 38.663507 21.122398 3.5812878 Z"
       sodipodi:nodetypes="csssccccccccc" />
    <path
       style="fill:none;stroke:#ffffff;stroke-width:1.53554;stroke-linecap:round;stroke-dasharray:none;stroke-opacity:1"
       d="M 116.75814,55.549551 153.2407,-7.6400677"
       id="path52"
       sodipodi:nodetypes="cc" />
    <g
       id="g1"
       transform="matrix(0.49843541,0,0,1.0013801,145.94284,-1.621958)">
      <path
         id="path65"
         style="fill:#550000;stroke-width:0.264583;stroke-linecap:round"
         d="m 354.04109,56.438774 c 0,-2.758637 -0.18154,-5.505124 -0.54005,-8.222437 -0.35852,-2.717313 -0.89401,-5.405451 -1.60192,-8.047391 -0.7079,-2.64194 -1.58822,-5.237681 -2.6364,-7.7702 -1.04817,-2.532519 -2.2642,-5.001815 -3.64352,-7.390865 l -13.60998,7.857723 -13.60997,7.857724 -13.60998,7.857723 -13.60997,7.857723 h 15.71545 15.71544 15.71545 z"
         sodipodi:nodetypes="csssccccccccc" />
      <path
         id="path66"
         style="fill:#ff5500;stroke-width:0.264583;stroke-linecap:round"
         d="m 345.6246,24.808306 c -1.37932,-2.389053 -2.90978,-4.676804 -4.57892,-6.850817 -1.66914,-2.174 -3.47696,-4.234252 -5.411,-6.168284 -1.93403,-1.9340376 -3.99428,-3.7418493 -6.16829,-5.410991 -2.17399,-1.669133 -4.46176,-3.1995945 -6.85081,-4.5789125 l -7.85772,13.6099705 -7.85773,13.609975 -7.85772,13.609984 -7.85772,13.60997 13.60998,-7.857725 13.60998,-7.857725 13.60997,-7.85772 z"
         sodipodi:nodetypes="csssccccccccc" />
      <path
         id="path67"
         style="fill:#ffaa00;stroke-width:0.264583;stroke-linecap:round"
         d="m 322.34472,1.785774 c -2.38906,-1.37932004 -4.85835,-2.59534178 -7.39087,-3.643523 -2.53252,-1.0481676 -5.12826,-1.9284897 -7.77021,-2.6363916 -2.64193,-0.7079106 -5.33007,-1.2433925 -8.04739,-1.6019106 -2.7173,-0.3585132 -5.46379,-0.5400503 -8.22243,-0.5400492 V 9.079348 l 1e-5,15.715445 -1e-5,15.715446 v 15.715445 l 7.85772,-13.609978 7.85773,-13.609974 7.85772,-13.609979 z"
         sodipodi:nodetypes="csssccccccccc" />
      <path
         style="fill:none;stroke:#000000;stroke-width:1.32292;stroke-linecap:round;stroke-dasharray:none;stroke-opacity:1"
         d="m 291.70845,55.909605 h 62.86182"
         id="path115"
         sodipodi:nodetypes="cc" />
      <path
         style="fill:none;stroke:#000000;stroke-width:1.32292;stroke-linecap:round;stroke-dasharray:none;stroke-opacity:1"
         d="m 291.70845,55.909605 54.43989,-31.43089"
         id="path116"
         sodipodi:nodetypes="cc" />
      <path
         style="fill:none;stroke:#550000;stroke-width:1.32292;stroke-linecap:round;stroke-dasharray:none;stroke-opacity:1"
         d="M 291.70845,55.655865 323.13936,1.2159624"
         id="path117"
         sodipodi:nodetypes="cc" />
    </g>
    <path
       id="path68"
       style="fill:#ffffaa;stroke-width:0.281943;stroke-linecap:round"
       d="m 291.58442,-8.9807469 c -3.02085,0 -6.02837,0.1882487 -9.00397,0.5600149 -2.97559,0.3717662 -5.91923,0.9270504 -8.81228,1.6611224 -2.89305,0.7340721 -5.73551,1.6469319 -8.50874,2.7338494 -2.77322,1.0869173 -5.47723,2.3478922 -8.09335,3.77819444 l 8.60458,14.11304476 8.6046,14.113044 8.60458,14.113046 8.60458,14.113044 V 39.908273 23.611933 7.3155929 Z"
       sodipodi:nodetypes="csssccccccccc" />
    <path
       style="fill:none;stroke:#ff5500;stroke-width:1.32292;stroke-linecap:round;stroke-dasharray:none;stroke-opacity:1"
       d="M 291.21605,55.655865 V -7.2059166"
       id="path118"
       sodipodi:nodetypes="cc" />
    <path
       id="path120"
       style="fill:none;stroke:#ffffff;stroke-width:1.5363;stroke-linecap:round;stroke-dasharray:none;stroke-opacity:1"
       d="M 263.13972,44.008049 189.3583,12.732109 M 291.10936,55.802916 217.32795,24.526971" />
    <path
       id="path61"
       style="fill:none;stroke:#ffffff;stroke-width:1.32292;stroke-linecap:round;stroke-dasharray:none;stroke-opacity:1"
       d="m 137.28934,44.05631 54.4399,-31.430888 m -75.07741,43.284181 54.4399,-31.43089" />
    <path
       id="path1"
       style="fill:#ffff00;stroke-width:0.264583;stroke-linecap:round"
       d="m 124.3592,56.438774 c 0,2.118187 -0.85856,4.035845 -2.24668,5.423957 -1.38811,1.388112 -3.30576,2.246677 -5.42395,2.246679 -2.11819,2e-6 -4.03585,-0.858563 -5.42396,-2.246675 -1.38811,-1.388113 -2.24668,-3.305773 -2.24668,-5.423961 0,-2.118188 0.85857,-4.035848 2.24668,-5.42396 1.38811,-1.388112 3.30577,-2.246677 5.42396,-2.246676 2.11819,10e-7 4.03584,0.858567 5.42395,2.246679 1.38812,1.388112 2.24668,3.30577 2.24668,5.423957 z"
       sodipodi:nodetypes="sssssssss" />
    <path
       style="fill:none;stroke:#ffffff;stroke-width:1.32292;stroke-linecap:round;stroke-dasharray:none;stroke-opacity:1"
       d="m 189.63822,13.599877 -31.43091,54.43991"
       id="path127"
       sodipodi:nodetypes="cc" />
    <path
       style="fill:none;stroke:#ffffff;stroke-width:1.32292;stroke-linecap:round;stroke-dasharray:none;stroke-opacity:1"
       d="m 190.13062,13.599877 v 62.86178"
       id="path128"
       sodipodi:nodetypes="cc" />
    <path
       style="fill:none;stroke:#ffffff;stroke-width:1.32292;stroke-linecap:round;stroke-dasharray:none;stroke-opacity:1"
       d="m 190.13062,13.599877 31.4309,54.43991"
       id="path129"
       sodipodi:nodetypes="cc" />
    <g
       id="g133"
       transform="matrix(1,0,0,-1,1.9037941e-8,24.468128)">
      <path
         style="fill:none;stroke:#ffffff;stroke-width:1.32292;stroke-linecap:round;stroke-dasharray:none;stroke-opacity:1"
         d="m 189.63822,10.700304 -54.43989,31.43089"
         id="path132"
         sodipodi:nodetypes="cc" />
      <path
         id="path133"
         style="fill:none;stroke:#ffffff;stroke-width:1.32292;stroke-linecap:round;stroke-dasharray:none;stroke-opacity:1"
         d="m 210.76813,22.553604 54.4399,31.43089 m -75.07741,-43.28419 54.4399,31.43089" />
    </g>
    <path
       style="fill:none;stroke:#ffffff;stroke-width:1.32292;stroke-linecap:round;stroke-dasharray:none;stroke-opacity:1"
       d="m 190.13062,-50.584823 v 62.86178"
       id="path134"
       sodipodi:nodetypes="cc" />
    <path
       id="circle130"
       style="fill:#ffff00;stroke-width:0.264583;stroke-linecap:round"
       transform="scale(1,-1)"
       d="m 197.83801,-12.816959 c 0,1.059094 -0.21464,2.068056 -0.6028,2.9857585 -0.38815,0.9177024 -0.94982,1.7441453 -1.64388,2.4382013 -0.69406,0.694056 -1.5205,1.2557252 -2.4382,1.6438802 -0.9177,0.388155 -1.92667,0.6027959 -2.98576,0.6027953 -1.05909,-6e-7 -2.06805,-0.2146423 -2.98576,-0.6027979 -0.9177,-0.3881555 -1.74414,-0.9498249 -2.43819,-1.6438809 -0.69406,-0.6940559 -1.25573,-1.5204985 -1.64388,-2.4382003 -0.38816,-0.9177022 -0.6028,-1.9266632 -0.6028,-2.9857562 0,-1.059093 0.21464,-2.068054 0.6028,-2.985756 0.38815,-0.917702 0.94982,-1.744145 1.64388,-2.438201 0.69405,-0.694056 1.52049,-1.255725 2.43819,-1.643881 0.91771,-0.388155 1.92667,-0.602797 2.98576,-0.602798 1.05909,-1e-6 2.06806,0.21464 2.98576,0.602795 0.9177,0.388155 1.74414,0.949824 2.4382,1.64388 0.69406,0.694057 1.25573,1.5205 1.64388,2.438202 0.38816,0.917703 0.6028,1.926665 0.6028,2.985759 z"
       sodipodi:nodetypes="sssssssssssssssss" />
    <path
       id="path135"
       style="fill:#aaaaaa;stroke:#000000;stroke-width:0.432857;stroke-linecap:round"
       d="m 43.977273,25.519815 a 4.3391299,4.3391299 0 0 0 -0.24426,0.01745 4.3391299,4.3391299 0 0 1 1.63114,3.389543 4.3391299,4.3391299 0 0 1 -4.070657,4.329638 4.3391299,4.3391299 0 0 0 2.683777,0.941805 4.3391299,4.3391299 0 0 0 4.339217,-4.339216 4.3391299,4.3391299 0 0 0 -4.339217,-4.339218 z" />
    <path
       id="path136"
       style="fill:#ffffff;stroke:none;stroke-width:0.022057;stroke-linecap:round;stroke-opacity:1"
       d="m 333.56381,5.6344614 -1.50712,-0.843624 -0.7707,1.545681 0.33661,-1.6940476 -1.70819,-0.255334 1.71515,-0.203355 -0.28502,-1.703487 0.72342,1.568368 1.53203,-0.797479 -1.26806,1.17266 z" />
    <path
       id="path137"
       style="fill:#ffffff;stroke:none;stroke-width:0.0374177;stroke-linecap:round;stroke-opacity:1"
       d="m 343.63295,5.6268994 a 0.26458336,0.26458336 0 0 0 0.26459,0.264584 0.26458336,0.26458336 0 0 0 0.26458,-0.264584 0.26458336,0.26458336 0 0 0 -0.26458,-0.264583 0.26458336,0.26458336 0 0 0 -0.26459,0.264583 z" />
    <path
       id="path138"
       style="fill:#ffffff;stroke:none;stroke-width:0.0374177;stroke-linecap:round;stroke-opacity:1"
       d="m 336.75378,5.0977324 a 0.26458336,0.26458336 0 0 0 0.26459,0.264584 0.26458336,0.26458336 0 0 0 0.26458,-0.264584 0.26458336,0.26458336 0 0 0 -0.26458,-0.264583 0.26458336,0.26458336 0 0 0 -0.26459,0.264583 z" />
    <path
       id="path139"
       style="fill:#ffffff;stroke:none;stroke-width:0.0374177;stroke-linecap:round;stroke-opacity:1"
       d="m 335.16628,9.8602324 a 0.26458336,0.26458336 0 0 0 0.26459,0.2645836 0.26458336,0.26458336 0 0 0 0.26458,-0.2645836 0.26458336,0.26458336 0 0 0 -0.26458,-0.264583 0.26458336,0.26458336 0 0 0 -0.26459,0.264583 z" />
    <path
       style="fill:none;stroke:#ffaa00;stroke-width:1.50729;stroke-linecap:round;stroke-dasharray:none;stroke-opacity:1"
       d="M 290.47521,55.563678 254.19539,-5.6625619"
       id="path119"
       sodipodi:nodetypes="cc" />
    <path
       id="circle120"
       style="fill:#ffff00;stroke-width:0.264583;stroke-linecap:round"
       d="m 283.50866,56.438774 c 0,2.118188 0.85857,4.035848 2.24668,5.42396 1.38811,1.388112 3.30577,2.246677 5.42396,2.246676 2.11819,-10e-7 4.03584,-0.858567 5.42395,-2.246679 1.38812,-1.388112 2.24668,-3.30577 2.24668,-5.423957 0,-2.118187 -0.85856,-4.035845 -2.24668,-5.423957 -1.38811,-1.388112 -3.30576,-2.246677 -5.42395,-2.246679 -2.11819,-2e-6 -4.03585,0.858563 -5.42396,2.246675 -1.38811,1.388113 -2.24668,3.305773 -2.24668,5.423961 z"
       sodipodi:nodetypes="sssssssss" />
    <path
       id="path6"
       style="fill:#ffffff;stroke:none;stroke-width:0.0198168;stroke-linecap:round;stroke-opacity:1"
       d="m 61.187674,10.998751 -1.354045,-0.75794 -0.692419,1.388692 0.302421,-1.521989 -1.534694,-0.2294006 1.540951,-0.182701 -0.256074,-1.530469 0.649939,1.409074 1.376432,-0.716481 -1.139266,1.053556 z" />
    <path
       id="path7"
       style="fill:#ffffff;stroke:none;stroke-width:0.0374177;stroke-linecap:round;stroke-opacity:1"
       d="m 46.241112,4.0393992 a 0.26458336,0.26458336 0 0 1 -0.264583,0.264584 0.26458336,0.26458336 0 0 1 -0.264584,-0.264584 0.26458336,0.26458336 0 0 1 0.264584,-0.264583 0.26458336,0.26458336 0 0 1 0.264583,0.264583 z" />
    <path
       id="path8"
       style="fill:#ffffff;stroke:none;stroke-width:0.0374177;stroke-linecap:round;stroke-opacity:1"
       d="m 56.824446,9.3310658 a 0.26458336,0.26458336 0 0 1 -0.264583,0.264584 0.26458336,0.26458336 0 0 1 -0.264584,-0.264584 0.26458336,0.26458336 0 0 1 0.264584,-0.264583 0.26458336,0.26458336 0 0 1 0.264583,0.264583 z" />
    <path
       id="path9"
       style="fill:#ffffff;stroke:none;stroke-width:0.0374177;stroke-linecap:round;stroke-opacity:1"
       d="m 54.178611,4.0393992 a 0.26458336,0.26458336 0 0 1 -0.264583,0.264584 0.26458336,0.26458336 0 0 1 -0.264584,-0.264584 0.26458336,0.26458336 0 0 1 0.264584,-0.264583 0.26458336,0.26458336 0 0 1 0.264583,0.264583 z" />
    <path
       id="path10"
       style="fill:#ffffff;stroke:none;stroke-width:0.0374177;stroke-linecap:round;stroke-opacity:1"
       d="m 61.057779,3.5102325 a 0.26458336,0.26458336 0 0 1 -0.264583,0.264584 0.26458336,0.26458336 0 0 1 -0.264584,-0.264584 0.26458336,0.26458336 0 0 1 0.264584,-0.264583 0.26458336,0.26458336 0 0 1 0.264583,0.264583 z" />
    <path
       id="path11"
       style="fill:#ffffff;stroke:none;stroke-width:0.0374177;stroke-linecap:round;stroke-opacity:1"
       d="M 47.828601,10.3894 A 0.26458336,0.26458336 0 0 1 47.564018,10.653984 0.26458336,0.26458336 0 0 1 47.299434,10.3894 0.26458336,0.26458336 0 0 1 47.564018,10.124817 0.26458336,0.26458336 0 0 1 47.828601,10.3894 Z" />
    <path
       id="path12"
       style="fill:#ffffff;stroke:none;stroke-width:0.0374177;stroke-linecap:round;stroke-opacity:1"
       d="m 46.241112,19.914399 a 0.26458336,0.26458336 0 0 1 -0.264583,0.264584 0.26458336,0.26458336 0 0 1 -0.264584,-0.264584 0.26458336,0.26458336 0 0 1 0.264584,-0.264583 0.26458336,0.26458336 0 0 1 0.264583,0.264583 z" />
    <path
       id="path13"
       style="fill:#ffffff;stroke:none;stroke-width:0.0374177;stroke-linecap:round;stroke-opacity:1"
       d="m 56.824446,25.206066 a 0.26458336,0.26458336 0 0 1 -0.264583,0.264584 0.26458336,0.26458336 0 0 1 -0.264584,-0.264584 0.26458336,0.26458336 0 0 1 0.264584,-0.264583 0.26458336,0.26458336 0 0 1 0.264583,0.264583 z" />
    <path
       id="path14"
       style="fill:#ffffff;stroke:none;stroke-width:0.0374177;stroke-linecap:round;stroke-opacity:1"
       d="m 54.178611,19.914399 a 0.26458336,0.26458336 0 0 1 -0.264583,0.264584 0.26458336,0.26458336 0 0 1 -0.264584,-0.264584 0.26458336,0.26458336 0 0 1 0.264584,-0.264583 0.26458336,0.26458336 0 0 1 0.264583,0.264583 z" />
    <path
       id="path15"
       style="fill:#ffffff;stroke:none;stroke-width:0.0374177;stroke-linecap:round;stroke-opacity:1"
       d="m 61.057779,19.385233 a 0.26458336,0.26458336 0 0 1 -0.264583,0.264584 0.26458336,0.26458336 0 0 1 -0.264584,-0.264584 0.26458336,0.26458336 0 0 1 0.264584,-0.264583 0.26458336,0.26458336 0 0 1 0.264583,0.264583 z" />
    <path
       id="path16"
       style="fill:#ffffff;stroke:none;stroke-width:0.0374177;stroke-linecap:round;stroke-opacity:1"
       d="m 47.828601,26.264401 a 0.26458336,0.26458336 0 0 1 -0.264583,0.264584 0.26458336,0.26458336 0 0 1 -0.264584,-0.264584 0.26458336,0.26458336 0 0 1 0.264584,-0.264583 0.26458336,0.26458336 0 0 1 0.264583,0.264583 z" />
    <path
       id="path22"
       style="fill:#ffffff;stroke:none;stroke-width:0.0374177;stroke-linecap:round;stroke-opacity:1"
       d="M 46.241112,35.7894 A 0.26458336,0.26458336 0 0 1 45.976529,36.053984 0.26458336,0.26458336 0 0 1 45.711945,35.7894 0.26458336,0.26458336 0 0 1 45.976529,35.524817 0.26458336,0.26458336 0 0 1 46.241112,35.7894 Z" />
    <path
       id="path48"
       style="fill:#ffffff;stroke:none;stroke-width:0.0374177;stroke-linecap:round;stroke-opacity:1"
       d="m 56.824446,41.081067 a 0.26458336,0.26458336 0 0 1 -0.264583,0.264584 0.26458336,0.26458336 0 0 1 -0.264584,-0.264584 0.26458336,0.26458336 0 0 1 0.264584,-0.264583 0.26458336,0.26458336 0 0 1 0.264583,0.264583 z" />
    <path
       id="path50"
       style="fill:#ffffff;stroke:none;stroke-width:0.0374177;stroke-linecap:round;stroke-opacity:1"
       d="M 54.178611,35.7894 A 0.26458336,0.26458336 0 0 1 53.914028,36.053984 0.26458336,0.26458336 0 0 1 53.649444,35.7894 0.26458336,0.26458336 0 0 1 53.914028,35.524817 0.26458336,0.26458336 0 0 1 54.178611,35.7894 Z" />
    <path
       id="path58"
       style="fill:#ffffff;stroke:none;stroke-width:0.0374177;stroke-linecap:round;stroke-opacity:1"
       d="m 61.057779,35.260234 a 0.26458336,0.26458336 0 0 1 -0.264583,0.264584 0.26458336,0.26458336 0 0 1 -0.264584,-0.264584 0.26458336,0.26458336 0 0 1 0.264584,-0.264583 0.26458336,0.26458336 0 0 1 0.264583,0.264583 z" />
    <path
       id="path59"
       style="fill:#ffffff;stroke:none;stroke-width:0.0374177;stroke-linecap:round;stroke-opacity:1"
       d="m 47.828601,42.139402 a 0.26458336,0.26458336 0 0 1 -0.264583,0.264584 0.26458336,0.26458336 0 0 1 -0.264584,-0.264584 0.26458336,0.26458336 0 0 1 0.264584,-0.264583 0.26458336,0.26458336 0 0 1 0.264583,0.264583 z" />
    <path
       id="path60"
       style="fill:#ffffff;stroke:none;stroke-width:0.0374177;stroke-linecap:round;stroke-opacity:1"
       d="m 52.061947,45.314401 a 0.26458336,0.26458336 0 0 1 -0.264584,0.264584 0.26458336,0.26458336 0 0 1 -0.264583,-0.264584 0.26458336,0.26458336 0 0 1 0.264583,-0.264583 0.26458336,0.26458336 0 0 1 0.264584,0.264583 z" />
    <path
       id="path69"
       style="fill:#ffffff;stroke:none;stroke-width:0.0374177;stroke-linecap:round;stroke-opacity:1"
       d="m 62.116113,46.372734 a 0.26458336,0.26458336 0 0 1 -0.264583,0.264584 0.26458336,0.26458336 0 0 1 -0.264584,-0.264584 0.26458336,0.26458336 0 0 1 0.264584,-0.264583 0.26458336,0.26458336 0 0 1 0.264583,0.264583 z" />
    <path
       id="path121"
       style="fill:#ffffff;stroke:none;stroke-width:0.0374177;stroke-linecap:round;stroke-opacity:1"
       d="m 70.053612,49.018567 a 0.26458336,0.26458336 0 0 1 -0.264583,0.264584 0.26458336,0.26458336 0 0 1 -0.264584,-0.264584 0.26458336,0.26458336 0 0 1 0.264584,-0.264583 0.26458336,0.26458336 0 0 1 0.264583,0.264583 z" />
    <path
       id="path122"
       style="fill:#ffffff;stroke:none;stroke-width:0.0374177;stroke-linecap:round;stroke-opacity:1"
       d="m 67.936948,26.793566 a 0.26458336,0.26458336 0 0 1 -0.264584,0.264584 0.26458336,0.26458336 0 0 1 -0.264583,-0.264584 0.26458336,0.26458336 0 0 1 0.264583,-0.264583 0.26458336,0.26458336 0 0 1 0.264584,0.264583 z" />
    <path
       id="path123"
       style="fill:#ffffff;stroke:none;stroke-width:0.0374177;stroke-linecap:round;stroke-opacity:1"
       d="m 69.524448,31.556066 a 0.26458336,0.26458336 0 0 1 -0.264583,0.264584 0.26458336,0.26458336 0 0 1 -0.264584,-0.264584 0.26458336,0.26458336 0 0 1 0.264584,-0.264583 0.26458336,0.26458336 0 0 1 0.264583,0.264583 z" />
    <path
       id="path124"
       style="fill:#ffffff;stroke:none;stroke-width:0.0374177;stroke-linecap:round;stroke-opacity:1"
       d="m 67.936948,5.6268992 a 0.26458336,0.26458336 0 0 1 -0.264584,0.264584 0.26458336,0.26458336 0 0 1 -0.264583,-0.264584 0.26458336,0.26458336 0 0 1 0.264583,-0.264583 0.26458336,0.26458336 0 0 1 0.264584,0.264583 z" />
    <path
       id="path125"
       style="fill:#ffffff;stroke:none;stroke-width:0.0374177;stroke-linecap:round;stroke-opacity:1"
       d="m 69.524448,10.389399 a 0.26458336,0.26458336 0 0 1 -0.264583,0.264584 0.26458336,0.26458336 0 0 1 -0.264584,-0.264584 0.26458336,0.26458336 0 0 1 0.264584,-0.264583 0.26458336,0.26458336 0 0 1 0.264583,0.264583 z" />
    <path
       id="path126"
       style="fill:#ffffff;stroke:none;stroke-width:0.0374177;stroke-linecap:round;stroke-opacity:1"
       d="m 72.170278,2.9810658 a 0.26458336,0.26458336 0 0 1 -0.264584,0.264584 0.26458336,0.26458336 0 0 1 -0.264583,-0.264584 0.26458336,0.26458336 0 0 1 0.264583,-0.264583 0.26458336,0.26458336 0 0 1 0.264584,0.264583 z" />
    <path
       id="path130"
       style="fill:#ffffff;stroke:none;stroke-width:0.0275999;stroke-linecap:round;stroke-opacity:1"
       inkscape:transform-center-x="-0.059908615"
       inkscape:transform-center-y="-0.19678551"
       d="m 78.902827,41.2503 -1.522022,-1.764547 -2.147005,0.905838 1.764547,-1.522021 -0.905839,-2.147005 1.522022,1.764546 2.147005,-0.905838 -1.764546,1.522022 z" />
    <path
       id="path131"
       style="fill:#ffffff;stroke:none;stroke-width:0.0374177;stroke-linecap:round;stroke-opacity:1"
       d="m 73.757778,7.7435657 a 0.26458336,0.26458336 0 0 1 -0.264583,0.264584 0.26458336,0.26458336 0 0 1 -0.264584,-0.264584 0.26458336,0.26458336 0 0 1 0.264584,-0.264583 0.26458336,0.26458336 0 0 1 0.264583,0.264583 z" />
    <path
       id="path140"
       style="fill:#ffffff;stroke:none;stroke-width:0.0374177;stroke-linecap:round;stroke-opacity:1"
       d="m 82.224444,4.0393992 a 0.26458336,0.26458336 0 0 1 -0.264583,0.264584 0.26458336,0.26458336 0 0 1 -0.264584,-0.264584 0.26458336,0.26458336 0 0 1 0.264584,-0.264583 0.26458336,0.26458336 0 0 1 0.264583,0.264583 z" />
    <path
       id="path141"
       style="fill:#ffffff;stroke:none;stroke-width:0.0374177;stroke-linecap:round;stroke-opacity:1"
       d="m 90.161943,4.0393992 a 0.26458336,0.26458336 0 0 1 -0.264583,0.264584 0.26458336,0.26458336 0 0 1 -0.264584,-0.264584 0.26458336,0.26458336 0 0 1 0.264584,-0.264583 0.26458336,0.26458336 0 0 1 0.264583,0.264583 z" />
    <path
       id="path142"
       style="fill:#ffffff;stroke:none;stroke-width:0.0374177;stroke-linecap:round;stroke-opacity:1"
       d="M 83.811933,10.3894 A 0.26458336,0.26458336 0 0 1 83.54735,10.653984 0.26458336,0.26458336 0 0 1 83.282766,10.3894 0.26458336,0.26458336 0 0 1 83.54735,10.124817 0.26458336,0.26458336 0 0 1 83.811933,10.3894 Z" />
    <path
       id="path143"
       style="fill:#ffffff;stroke:none;stroke-width:0.0374177;stroke-linecap:round;stroke-opacity:1"
       d="m 75.874432,14.622733 a 0.26458336,0.26458336 0 0 1 -0.264583,0.264584 0.26458336,0.26458336 0 0 1 -0.264584,-0.264584 0.26458336,0.26458336 0 0 1 0.264584,-0.264583 0.26458336,0.26458336 0 0 1 0.264583,0.264583 z" />
    <path
       id="path144"
       style="fill:#ffffff;stroke:none;stroke-width:0.0374177;stroke-linecap:round;stroke-opacity:1"
       d="m 72.170278,18.856066 a 0.26458336,0.26458336 0 0 1 -0.264584,0.264584 0.26458336,0.26458336 0 0 1 -0.264583,-0.264584 0.26458336,0.26458336 0 0 1 0.264583,-0.264583 0.26458336,0.26458336 0 0 1 0.264584,0.264583 z" />
    <path
       id="path145"
       style="fill:#ffffff;stroke:none;stroke-width:0.0374177;stroke-linecap:round;stroke-opacity:1"
       d="m 73.757778,23.618566 a 0.26458336,0.26458336 0 0 1 -0.264583,0.264584 0.26458336,0.26458336 0 0 1 -0.264584,-0.264584 0.26458336,0.26458336 0 0 1 0.264584,-0.264583 0.26458336,0.26458336 0 0 1 0.264583,0.264583 z" />
    <path
       id="path146"
       style="fill:#ffffff;stroke:none;stroke-width:0.0374177;stroke-linecap:round;stroke-opacity:1"
       d="m 82.224444,19.914399 a 0.26458336,0.26458336 0 0 1 -0.264583,0.264584 0.26458336,0.26458336 0 0 1 -0.264584,-0.264584 0.26458336,0.26458336 0 0 1 0.264584,-0.264583 0.26458336,0.26458336 0 0 1 0.264583,0.264583 z" />
    <path
       id="path149"
       style="fill:#ffffff;stroke:none;stroke-width:0.0374177;stroke-linecap:round;stroke-opacity:1"
       d="m 75.874432,30.497734 a 0.26458336,0.26458336 0 0 1 -0.264583,0.264584 0.26458336,0.26458336 0 0 1 -0.264584,-0.264584 0.26458336,0.26458336 0 0 1 0.264584,-0.264583 0.26458336,0.26458336 0 0 1 0.264583,0.264583 z" />
    <path
       id="path150"
       style="fill:#ffffff;stroke:none;stroke-width:0.0374177;stroke-linecap:round;stroke-opacity:1"
       d="m 72.170278,34.731067 a 0.26458336,0.26458336 0 0 1 -0.264584,0.264584 0.26458336,0.26458336 0 0 1 -0.264583,-0.264584 0.26458336,0.26458336 0 0 1 0.264583,-0.264583 0.26458336,0.26458336 0 0 1 0.264584,0.264583 z" />
    <path
       id="path151"
       style="fill:#ffffff;stroke:none;stroke-width:0.0374177;stroke-linecap:round;stroke-opacity:1"
       d="m 73.757778,39.493567 a 0.26458336,0.26458336 0 0 1 -0.264583,0.264584 0.26458336,0.26458336 0 0 1 -0.264584,-0.264584 0.26458336,0.26458336 0 0 1 0.264584,-0.264583 0.26458336,0.26458336 0 0 1 0.264583,0.264583 z" />
    <path
       id="path155"
       style="fill:#ffffff;stroke:none;stroke-width:0.0374177;stroke-linecap:round;stroke-opacity:1"
       d="m 75.874432,46.372735 a 0.26458336,0.26458336 0 0 1 -0.264583,0.264584 0.26458336,0.26458336 0 0 1 -0.264584,-0.264584 0.26458336,0.26458336 0 0 1 0.264584,-0.264583 0.26458336,0.26458336 0 0 1 0.264583,0.264583 z" />
    <path
       id="path156"
       style="fill:#aaaaaa;stroke:#000000;stroke-width:0.432857;stroke-linecap:round"
       d="m 350.8941,4.3531478 a 4.3391299,4.3391299 0 0 0 -0.24426,0.01745 4.3391299,4.3391299 0 0 1 1.63114,3.3895426 4.3391299,4.3391299 0 0 1 -4.07066,4.3296376 4.3391299,4.3391299 0 0 0 2.68378,0.941805 4.3391299,4.3391299 0 0 0 4.33922,-4.3392156 4.3391299,4.3391299 0 0 0 -4.33922,-4.3392176 z" />
  </g>
</svg>
