<?xml version="1.0" encoding="UTF-8" standalone="no"?>
<!-- Created with Inkscape (http://www.inkscape.org/) -->

<svg
   width="1440"
   height="205"
   viewBox="0 0 380.99999 54.239583"
   version="1.1"
   id="svg1"
   inkscape:version="1.4 (e7c3feb100, 2024-10-09)"
   sodipodi:docname="sky-roll.svg"
   inkscape:export-filename="sky-roll.png"
   inkscape:export-xdpi="96.343193"
   inkscape:export-ydpi="96.343193"
   xmlns:inkscape="http://www.inkscape.org/namespaces/inkscape"
   xmlns:sodipodi="http://sodipodi.sourceforge.net/DTD/sodipodi-0.dtd"
   xmlns="http://www.w3.org/2000/svg"
   xmlns:svg="http://www.w3.org/2000/svg">
  <sodipodi:namedview
     id="namedview1"
     pagecolor="#ffffff"
     bordercolor="#cccccc"
     borderopacity="1"
     inkscape:showpageshadow="0"
     inkscape:pageopacity="1"
     inkscape:pagecheckerboard="0"
     inkscape:deskcolor="#d1d1d1"
     inkscape:document-units="px"
     showguides="true"
     inkscape:zoom="0.25"
     inkscape:cx="364"
     inkscape:cy="880"
     inkscape:window-width="1360"
     inkscape:window-height="1070"
     inkscape:window-x="26"
     inkscape:window-y="23"
     inkscape:window-maximized="0"
     inkscape:current-layer="layer1">
    <sodipodi:guide
       position="92.795978,40.956287"
       orientation="0,-1"
       id="guide1"
       inkscape:locked="false" />
    <sodipodi:guide
       position="190.73767,53.169847"
       orientation="1,0"
       id="guide10"
       inkscape:locked="false" />
    <sodipodi:guide
       position="95.30164,35.408657"
       orientation="1,0"
       id="guide11"
       inkscape:locked="false" />
    <sodipodi:guide
       position="275.4219,38.309772"
       orientation="1,0"
       id="guide12"
       inkscape:locked="false" />
    <sodipodi:guide
       position="47.636333,49.390232"
       orientation="1,0"
       id="guide13"
       inkscape:locked="false" />
    <sodipodi:guide
       position="142.91217,59.849542"
       orientation="1,0"
       id="guide14"
       inkscape:locked="false" />
    <sodipodi:guide
       position="232.88083,52.357493"
       orientation="1,0"
       id="guide15"
       inkscape:locked="false" />
    <sodipodi:guide
       position="322.40853,-15.11555"
       orientation="1,0"
       id="guide16"
       inkscape:locked="false" />
  </sodipodi:namedview>
  <defs
     id="defs1" />
  <g
     inkscape:label="Layer 1"
     inkscape:groupmode="layer"
     id="layer1"
     transform="translate(-0.13232601,-0.06088688)">
    <path
       id="rect9"
       style="stroke:none;stroke-width:0.338562;stroke-linecap:round;stroke-opacity:1"
       d="m 317.3489,0.13232601 h 63.65103 V 54.107256 H 317.3489 Z" />
    <path
       id="rect1"
       style="stroke:none;stroke-width:0.294066;stroke-linecap:round;stroke-opacity:1"
       d="M 0.13232601,0.13232601 H 48.152123 V 54.107256 H 0.13232601 Z" />
    <path
       id="path23"
       style="fill:#ffffff;stroke:none;stroke-width:0.0374177;stroke-linecap:round;stroke-opacity:1"
       d="M 4.4369447,2.9810658 A 0.26458336,0.26458336 0 0 1 4.1723612,3.2456498 0.26458336,0.26458336 0 0 1 3.9077778,2.9810658 0.26458336,0.26458336 0 0 1 4.1723612,2.7164828 0.26458336,0.26458336 0 0 1 4.4369447,2.9810658 Z" />
    <path
       id="rect5"
       style="fill:#aaffff;fill-opacity:1;stroke:none;stroke-width:0.560989;stroke-linecap:round;stroke-opacity:1"
       d="M 99.519393,0.2675961 H 275.15775 V 53.971986 H 99.519393 Z" />
    <path
       id="path17"
       style="fill:#ffffff;stroke:none;stroke-width:0.022057;stroke-linecap:round;stroke-opacity:1"
       d="m 327.2138,17.276129 -1.50712,-0.843624 -0.7707,1.545681 0.33661,-1.694048 -1.70819,-0.255334 1.71515,-0.203355 -0.28502,-1.703487 0.72342,1.568368 1.53203,-0.797479 -1.26806,1.17266 z" />
    <path
       id="path18"
       style="fill:#ffffff;stroke:none;stroke-width:0.0547413;stroke-linecap:round;stroke-opacity:1"
       inkscape:transform-center-x="-0.11882293"
       inkscape:transform-center-y="-0.39030267"
       d="m 342.86099,41.106324 -3.01876,-3.49978 -4.25834,1.796628 3.49978,-3.018759 -1.79663,-4.258345 3.01876,3.499781 4.25834,-1.796629 -3.49978,3.01876 z" />
    <path
       id="path19"
       style="fill:#ffffff;stroke:none;stroke-width:0.0337937;stroke-linecap:round;stroke-opacity:1"
       d="m 370.41697,26.428877 -2.30906,-1.292522 -1.18079,2.368149 0.51572,-2.595462 -2.61713,-0.391199 2.6278,-0.311562 -0.43668,-2.609923 1.10834,2.402906 2.34725,-1.221822 -1.94281,1.79664 z" />
    <path
       id="path20"
       style="fill:#ffffff;stroke:none;stroke-width:0.0275999;stroke-linecap:round;stroke-opacity:1"
       inkscape:transform-center-x="-0.059908615"
       inkscape:transform-center-y="-0.19678551"
       d="M 11.169493,41.2503 9.6474715,39.485753 7.5004663,40.391591 9.265013,38.86957 8.3591745,36.722565 l 1.5220215,1.764546 2.147005,-0.905838 -1.764546,1.522022 z" />
    <path
       id="path21"
       style="fill:#ffffff;stroke:none;stroke-width:0.0198168;stroke-linecap:round;stroke-opacity:1"
       d="m 29.437672,21.582085 -1.354045,-0.75794 -0.692419,1.388692 0.302421,-1.521989 -1.534694,-0.229401 1.540951,-0.182701 -0.256074,-1.530469 0.649939,1.409074 1.376432,-0.716481 -1.139266,1.053556 z" />
    <path
       id="path24"
       style="fill:#ffffff;stroke:none;stroke-width:0.0374177;stroke-linecap:round;stroke-opacity:1"
       d="M 6.0244448,7.7435657 A 0.26458336,0.26458336 0 0 1 5.7598613,8.0081497 0.26458336,0.26458336 0 0 1 5.4952779,7.7435657 0.26458336,0.26458336 0 0 1 5.7598613,7.4789827 0.26458336,0.26458336 0 0 1 6.0244448,7.7435657 Z" />
    <path
       id="path25"
       style="fill:#ffffff;stroke:none;stroke-width:0.0374177;stroke-linecap:round;stroke-opacity:1"
       d="m 14.49111,4.0393992 a 0.26458336,0.26458336 0 0 1 -0.264583,0.264584 0.26458336,0.26458336 0 0 1 -0.264584,-0.264584 0.26458336,0.26458336 0 0 1 0.264584,-0.264583 0.26458336,0.26458336 0 0 1 0.264583,0.264583 z" />
    <path
       id="path26"
       style="fill:#ffffff;stroke:none;stroke-width:0.0374177;stroke-linecap:round;stroke-opacity:1"
       d="m 25.074444,9.3310658 a 0.26458336,0.26458336 0 0 1 -0.264583,0.264584 0.26458336,0.26458336 0 0 1 -0.264584,-0.264584 0.26458336,0.26458336 0 0 1 0.264584,-0.264583 0.26458336,0.26458336 0 0 1 0.264583,0.264583 z" />
    <path
       id="path27"
       style="fill:#ffffff;stroke:none;stroke-width:0.0374177;stroke-linecap:round;stroke-opacity:1"
       d="m 22.428609,4.0393992 a 0.26458336,0.26458336 0 0 1 -0.264583,0.264584 0.26458336,0.26458336 0 0 1 -0.264584,-0.264584 0.26458336,0.26458336 0 0 1 0.264584,-0.264583 0.26458336,0.26458336 0 0 1 0.264583,0.264583 z" />
    <path
       id="path28"
       style="fill:#ffffff;stroke:none;stroke-width:0.0374177;stroke-linecap:round;stroke-opacity:1"
       d="m 29.307777,3.5102325 a 0.26458336,0.26458336 0 0 1 -0.264583,0.264584 0.26458336,0.26458336 0 0 1 -0.264584,-0.264584 0.26458336,0.26458336 0 0 1 0.264584,-0.264583 0.26458336,0.26458336 0 0 1 0.264583,0.264583 z" />
    <path
       id="path29"
       style="fill:#ffffff;stroke:none;stroke-width:0.0374177;stroke-linecap:round;stroke-opacity:1"
       d="M 16.078599,10.3894 A 0.26458336,0.26458336 0 0 1 15.814016,10.653984 0.26458336,0.26458336 0 0 1 15.549432,10.3894 0.26458336,0.26458336 0 0 1 15.814016,10.124817 0.26458336,0.26458336 0 0 1 16.078599,10.3894 Z" />
    <path
       id="path30"
       style="fill:#ffffff;stroke:none;stroke-width:0.0374177;stroke-linecap:round;stroke-opacity:1"
       d="m 8.1410982,14.622733 a 0.26458336,0.26458336 0 0 1 -0.2645827,0.264584 0.26458336,0.26458336 0 0 1 -0.264584,-0.264584 0.26458336,0.26458336 0 0 1 0.264584,-0.264583 0.26458336,0.26458336 0 0 1 0.2645827,0.264583 z" />
    <path
       id="path31"
       style="fill:#ffffff;stroke:none;stroke-width:0.0374177;stroke-linecap:round;stroke-opacity:1"
       d="M 4.4369447,18.856066 A 0.26458336,0.26458336 0 0 1 4.1723612,19.12065 0.26458336,0.26458336 0 0 1 3.9077778,18.856066 0.26458336,0.26458336 0 0 1 4.1723612,18.591483 0.26458336,0.26458336 0 0 1 4.4369447,18.856066 Z" />
    <path
       id="path32"
       style="fill:#ffffff;stroke:none;stroke-width:0.0374177;stroke-linecap:round;stroke-opacity:1"
       d="M 6.0244448,23.618566 A 0.26458336,0.26458336 0 0 1 5.7598613,23.88315 0.26458336,0.26458336 0 0 1 5.4952779,23.618566 0.26458336,0.26458336 0 0 1 5.7598613,23.353983 0.26458336,0.26458336 0 0 1 6.0244448,23.618566 Z" />
    <path
       id="path33"
       style="fill:#ffffff;stroke:none;stroke-width:0.0374177;stroke-linecap:round;stroke-opacity:1"
       d="m 14.49111,19.914399 a 0.26458336,0.26458336 0 0 1 -0.264583,0.264584 0.26458336,0.26458336 0 0 1 -0.264584,-0.264584 0.26458336,0.26458336 0 0 1 0.264584,-0.264583 0.26458336,0.26458336 0 0 1 0.264583,0.264583 z" />
    <path
       id="path34"
       style="fill:#ffffff;stroke:none;stroke-width:0.0374177;stroke-linecap:round;stroke-opacity:1"
       d="m 25.074444,25.206066 a 0.26458336,0.26458336 0 0 1 -0.264583,0.264584 0.26458336,0.26458336 0 0 1 -0.264584,-0.264584 0.26458336,0.26458336 0 0 1 0.264584,-0.264583 0.26458336,0.26458336 0 0 1 0.264583,0.264583 z" />
    <path
       id="path35"
       style="fill:#ffffff;stroke:none;stroke-width:0.0374177;stroke-linecap:round;stroke-opacity:1"
       d="m 22.428609,19.914399 a 0.26458336,0.26458336 0 0 1 -0.264583,0.264584 0.26458336,0.26458336 0 0 1 -0.264584,-0.264584 0.26458336,0.26458336 0 0 1 0.264584,-0.264583 0.26458336,0.26458336 0 0 1 0.264583,0.264583 z" />
    <path
       id="path36"
       style="fill:#ffffff;stroke:none;stroke-width:0.0374177;stroke-linecap:round;stroke-opacity:1"
       d="m 29.307777,19.385233 a 0.26458336,0.26458336 0 0 1 -0.264583,0.264584 0.26458336,0.26458336 0 0 1 -0.264584,-0.264584 0.26458336,0.26458336 0 0 1 0.264584,-0.264583 0.26458336,0.26458336 0 0 1 0.264583,0.264583 z" />
    <path
       id="path37"
       style="fill:#ffffff;stroke:none;stroke-width:0.0374177;stroke-linecap:round;stroke-opacity:1"
       d="m 16.078599,26.264401 a 0.26458336,0.26458336 0 0 1 -0.264583,0.264584 0.26458336,0.26458336 0 0 1 -0.264584,-0.264584 0.26458336,0.26458336 0 0 1 0.264584,-0.264583 0.26458336,0.26458336 0 0 1 0.264583,0.264583 z" />
    <path
       id="path38"
       style="fill:#ffffff;stroke:none;stroke-width:0.0374177;stroke-linecap:round;stroke-opacity:1"
       d="m 8.1410982,30.497734 a 0.26458336,0.26458336 0 0 1 -0.2645827,0.264584 0.26458336,0.26458336 0 0 1 -0.264584,-0.264584 0.26458336,0.26458336 0 0 1 0.264584,-0.264583 0.26458336,0.26458336 0 0 1 0.2645827,0.264583 z" />
    <path
       id="path39"
       style="fill:#ffffff;stroke:none;stroke-width:0.0374177;stroke-linecap:round;stroke-opacity:1"
       d="M 4.4369447,34.731067 A 0.26458336,0.26458336 0 0 1 4.1723612,34.995651 0.26458336,0.26458336 0 0 1 3.9077778,34.731067 0.26458336,0.26458336 0 0 1 4.1723612,34.466484 0.26458336,0.26458336 0 0 1 4.4369447,34.731067 Z" />
    <path
       id="path40"
       style="fill:#ffffff;stroke:none;stroke-width:0.0374177;stroke-linecap:round;stroke-opacity:1"
       d="M 6.0244448,39.493567 A 0.26458336,0.26458336 0 0 1 5.7598613,39.758151 0.26458336,0.26458336 0 0 1 5.4952779,39.493567 0.26458336,0.26458336 0 0 1 5.7598613,39.228984 0.26458336,0.26458336 0 0 1 6.0244448,39.493567 Z" />
    <path
       id="path41"
       style="fill:#ffffff;stroke:none;stroke-width:0.0374177;stroke-linecap:round;stroke-opacity:1"
       d="M 14.49111,35.7894 A 0.26458336,0.26458336 0 0 1 14.226527,36.053984 0.26458336,0.26458336 0 0 1 13.961943,35.7894 0.26458336,0.26458336 0 0 1 14.226527,35.524817 0.26458336,0.26458336 0 0 1 14.49111,35.7894 Z" />
    <path
       id="path42"
       style="fill:#ffffff;stroke:none;stroke-width:0.0374177;stroke-linecap:round;stroke-opacity:1"
       d="m 25.074444,41.081067 a 0.26458336,0.26458336 0 0 1 -0.264583,0.264584 0.26458336,0.26458336 0 0 1 -0.264584,-0.264584 0.26458336,0.26458336 0 0 1 0.264584,-0.264583 0.26458336,0.26458336 0 0 1 0.264583,0.264583 z" />
    <path
       id="path43"
       style="fill:#ffffff;stroke:none;stroke-width:0.0374177;stroke-linecap:round;stroke-opacity:1"
       d="M 22.428609,35.7894 A 0.26458336,0.26458336 0 0 1 22.164026,36.053984 0.26458336,0.26458336 0 0 1 21.899442,35.7894 0.26458336,0.26458336 0 0 1 22.164026,35.524817 0.26458336,0.26458336 0 0 1 22.428609,35.7894 Z" />
    <path
       id="path44"
       style="fill:#ffffff;stroke:none;stroke-width:0.0374177;stroke-linecap:round;stroke-opacity:1"
       d="m 29.307777,35.260234 a 0.26458336,0.26458336 0 0 1 -0.264583,0.264584 0.26458336,0.26458336 0 0 1 -0.264584,-0.264584 0.26458336,0.26458336 0 0 1 0.264584,-0.264583 0.26458336,0.26458336 0 0 1 0.264583,0.264583 z" />
    <path
       id="path45"
       style="fill:#ffffff;stroke:none;stroke-width:0.0374177;stroke-linecap:round;stroke-opacity:1"
       d="m 16.078599,42.139402 a 0.26458336,0.26458336 0 0 1 -0.264583,0.264584 0.26458336,0.26458336 0 0 1 -0.264584,-0.264584 0.26458336,0.26458336 0 0 1 0.264584,-0.264583 0.26458336,0.26458336 0 0 1 0.264583,0.264583 z" />
    <path
       id="path46"
       style="fill:#ffffff;stroke:none;stroke-width:0.0374177;stroke-linecap:round;stroke-opacity:1"
       d="m 8.1410982,46.372735 a 0.26458336,0.26458336 0 0 1 -0.2645827,0.264584 0.26458336,0.26458336 0 0 1 -0.264584,-0.264584 0.26458336,0.26458336 0 0 1 0.264584,-0.264583 0.26458336,0.26458336 0 0 1 0.2645827,0.264583 z" />
    <path
       id="path47"
       style="fill:#ffffff;stroke:none;stroke-width:0.0374177;stroke-linecap:round;stroke-opacity:1"
       d="m 20.311945,45.314401 a 0.26458336,0.26458336 0 0 1 -0.264584,0.264584 0.26458336,0.26458336 0 0 1 -0.264583,-0.264584 0.26458336,0.26458336 0 0 1 0.264583,-0.264583 0.26458336,0.26458336 0 0 1 0.264584,0.264583 z" />
    <path
       id="path49"
       style="fill:#ffffff;stroke:none;stroke-width:0.0374177;stroke-linecap:round;stroke-opacity:1"
       d="m 30.366111,46.372734 a 0.26458336,0.26458336 0 0 1 -0.264583,0.264584 0.26458336,0.26458336 0 0 1 -0.264584,-0.264584 0.26458336,0.26458336 0 0 1 0.264584,-0.264583 0.26458336,0.26458336 0 0 1 0.264583,0.264583 z" />
    <path
       id="path51"
       style="fill:#ffffff;stroke:none;stroke-width:0.0374177;stroke-linecap:round;stroke-opacity:1"
       d="m 38.30361,46.372734 a 0.26458336,0.26458336 0 0 1 -0.264583,0.264584 0.26458336,0.26458336 0 0 1 -0.264584,-0.264584 0.26458336,0.26458336 0 0 1 0.264584,-0.264583 0.26458336,0.26458336 0 0 1 0.264583,0.264583 z" />
    <path
       id="path55"
       style="fill:#ffffff;stroke:none;stroke-width:0.0374177;stroke-linecap:round;stroke-opacity:1"
       d="m 36.186946,24.147733 a 0.26458336,0.26458336 0 0 1 -0.264584,0.264584 0.26458336,0.26458336 0 0 1 -0.264583,-0.264584 0.26458336,0.26458336 0 0 1 0.264583,-0.264583 0.26458336,0.26458336 0 0 1 0.264584,0.264583 z" />
    <path
       id="path56"
       style="fill:#ffffff;stroke:none;stroke-width:0.0374177;stroke-linecap:round;stroke-opacity:1"
       d="m 37.774446,28.910233 a 0.26458336,0.26458336 0 0 1 -0.264583,0.264584 0.26458336,0.26458336 0 0 1 -0.264584,-0.264584 0.26458336,0.26458336 0 0 1 0.264584,-0.264583 0.26458336,0.26458336 0 0 1 0.264583,0.264583 z" />
    <path
       id="path62"
       style="fill:#ffffff;stroke:none;stroke-width:0.0374177;stroke-linecap:round;stroke-opacity:1"
       d="m 39.8911,35.789401 a 0.26458336,0.26458336 0 0 1 -0.264583,0.264584 0.26458336,0.26458336 0 0 1 -0.264584,-0.264584 0.26458336,0.26458336 0 0 1 0.264584,-0.264583 0.26458336,0.26458336 0 0 1 0.264583,0.264583 z" />
    <path
       id="path63"
       style="fill:#ffffff;stroke:none;stroke-width:0.0374177;stroke-linecap:round;stroke-opacity:1"
       d="m 36.186946,2.9810658 a 0.26458336,0.26458336 0 0 1 -0.264584,0.264584 0.26458336,0.26458336 0 0 1 -0.264583,-0.264584 0.26458336,0.26458336 0 0 1 0.264583,-0.264583 0.26458336,0.26458336 0 0 1 0.264584,0.264583 z" />
    <path
       id="path64"
       style="fill:#ffffff;stroke:none;stroke-width:0.0374177;stroke-linecap:round;stroke-opacity:1"
       d="m 37.774446,7.7435654 a 0.26458336,0.26458336 0 0 1 -0.264583,0.264584 0.26458336,0.26458336 0 0 1 -0.264584,-0.264584 0.26458336,0.26458336 0 0 1 0.264584,-0.264583 0.26458336,0.26458336 0 0 1 0.264583,0.264583 z" />
    <path
       id="path70"
       style="fill:#ffffff;stroke:none;stroke-width:0.0374177;stroke-linecap:round;stroke-opacity:1"
       d="m 39.8911,14.622733 a 0.26458336,0.26458336 0 0 1 -0.264583,0.264584 0.26458336,0.26458336 0 0 1 -0.264584,-0.264584 0.26458336,0.26458336 0 0 1 0.264584,-0.264583 0.26458336,0.26458336 0 0 1 0.264583,0.264583 z" />
    <path
       id="path71"
       style="fill:#ffffff;stroke:none;stroke-width:0.0374177;stroke-linecap:round;stroke-opacity:1"
       d="m 379.08713,2.9810658 a 0.26458336,0.26458336 0 0 0 0.26458,0.264584 0.26458336,0.26458336 0 0 0 0.26458,-0.264584 0.26458336,0.26458336 0 0 0 -0.26458,-0.264583 0.26458336,0.26458336 0 0 0 -0.26458,0.264583 z" />
    <path
       id="path72"
       style="fill:#ffffff;stroke:none;stroke-width:0.0374177;stroke-linecap:round;stroke-opacity:1"
       d="m 377.49963,7.7435657 a 0.26458336,0.26458336 0 0 0 0.26458,0.264584 0.26458336,0.26458336 0 0 0 0.26458,-0.264584 0.26458336,0.26458336 0 0 0 -0.26458,-0.264583 0.26458336,0.26458336 0 0 0 -0.26458,0.264583 z" />
    <path
       id="path73"
       style="fill:#ffffff;stroke:none;stroke-width:0.0374177;stroke-linecap:round;stroke-opacity:1"
       d="m 369.03296,4.0393992 a 0.26458336,0.26458336 0 0 0 0.26458,0.264584 0.26458336,0.26458336 0 0 0 0.26459,-0.264584 0.26458336,0.26458336 0 0 0 -0.26459,-0.264583 0.26458336,0.26458336 0 0 0 -0.26458,0.264583 z" />
    <path
       id="path74"
       style="fill:#ffffff;stroke:none;stroke-width:0.0374177;stroke-linecap:round;stroke-opacity:1"
       d="m 358.44963,9.3310658 a 0.26458336,0.26458336 0 0 0 0.26458,0.264584 0.26458336,0.26458336 0 0 0 0.26458,-0.264584 0.26458336,0.26458336 0 0 0 -0.26458,-0.264583 0.26458336,0.26458336 0 0 0 -0.26458,0.264583 z" />
    <path
       id="path75"
       style="fill:#ffffff;stroke:none;stroke-width:0.0374177;stroke-linecap:round;stroke-opacity:1"
       d="m 361.09546,4.0393992 a 0.26458336,0.26458336 0 0 0 0.26458,0.264584 0.26458336,0.26458336 0 0 0 0.26459,-0.264584 0.26458336,0.26458336 0 0 0 -0.26459,-0.264583 0.26458336,0.26458336 0 0 0 -0.26458,0.264583 z" />
    <path
       id="path76"
       style="fill:#ffffff;stroke:none;stroke-width:0.0374177;stroke-linecap:round;stroke-opacity:1"
       d="m 354.21629,3.5102325 a 0.26458336,0.26458336 0 0 0 0.26459,0.264584 0.26458336,0.26458336 0 0 0 0.26458,-0.264584 0.26458336,0.26458336 0 0 0 -0.26458,-0.264583 0.26458336,0.26458336 0 0 0 -0.26459,0.264583 z" />
    <path
       id="path77"
       style="fill:#ffffff;stroke:none;stroke-width:0.0374177;stroke-linecap:round;stroke-opacity:1"
       d="m 367.44547,10.3894 a 0.26458336,0.26458336 0 0 0 0.26458,0.264584 0.26458336,0.26458336 0 0 0 0.26459,-0.264584 0.26458336,0.26458336 0 0 0 -0.26459,-0.264583 0.26458336,0.26458336 0 0 0 -0.26458,0.264583 z" />
    <path
       id="path78"
       style="fill:#ffffff;stroke:none;stroke-width:0.0374177;stroke-linecap:round;stroke-opacity:1"
       d="m 375.38297,14.622733 a 0.26458336,0.26458336 0 0 0 0.26458,0.264584 0.26458336,0.26458336 0 0 0 0.26459,-0.264584 0.26458336,0.26458336 0 0 0 -0.26459,-0.264583 0.26458336,0.26458336 0 0 0 -0.26458,0.264583 z" />
    <path
       id="path79"
       style="fill:#ffffff;stroke:none;stroke-width:0.0374177;stroke-linecap:round;stroke-opacity:1"
       d="m 379.08713,18.856066 a 0.26458336,0.26458336 0 0 0 0.26458,0.264584 0.26458336,0.26458336 0 0 0 0.26458,-0.264584 0.26458336,0.26458336 0 0 0 -0.26458,-0.264583 0.26458336,0.26458336 0 0 0 -0.26458,0.264583 z" />
    <path
       id="path80"
       style="fill:#ffffff;stroke:none;stroke-width:0.0374177;stroke-linecap:round;stroke-opacity:1"
       d="m 377.49963,23.618566 a 0.26458336,0.26458336 0 0 0 0.26458,0.264584 0.26458336,0.26458336 0 0 0 0.26458,-0.264584 0.26458336,0.26458336 0 0 0 -0.26458,-0.264583 0.26458336,0.26458336 0 0 0 -0.26458,0.264583 z" />
    <path
       id="path81"
       style="fill:#ffffff;stroke:none;stroke-width:0.0374177;stroke-linecap:round;stroke-opacity:1"
       d="m 369.03296,19.914399 a 0.26458336,0.26458336 0 0 0 0.26458,0.264584 0.26458336,0.26458336 0 0 0 0.26459,-0.264584 0.26458336,0.26458336 0 0 0 -0.26459,-0.264583 0.26458336,0.26458336 0 0 0 -0.26458,0.264583 z" />
    <path
       id="path82"
       style="fill:#ffffff;stroke:none;stroke-width:0.0374177;stroke-linecap:round;stroke-opacity:1"
       d="m 358.44963,25.206066 a 0.26458336,0.26458336 0 0 0 0.26458,0.264584 0.26458336,0.26458336 0 0 0 0.26458,-0.264584 0.26458336,0.26458336 0 0 0 -0.26458,-0.264583 0.26458336,0.26458336 0 0 0 -0.26458,0.264583 z" />
    <path
       id="path83"
       style="fill:#ffffff;stroke:none;stroke-width:0.0374177;stroke-linecap:round;stroke-opacity:1"
       d="m 361.09546,19.914399 a 0.26458336,0.26458336 0 0 0 0.26458,0.264584 0.26458336,0.26458336 0 0 0 0.26459,-0.264584 0.26458336,0.26458336 0 0 0 -0.26459,-0.264583 0.26458336,0.26458336 0 0 0 -0.26458,0.264583 z" />
    <path
       id="path84"
       style="fill:#ffffff;stroke:none;stroke-width:0.0374177;stroke-linecap:round;stroke-opacity:1"
       d="m 354.21629,19.385233 a 0.26458336,0.26458336 0 0 0 0.26459,0.264584 0.26458336,0.26458336 0 0 0 0.26458,-0.264584 0.26458336,0.26458336 0 0 0 -0.26458,-0.264583 0.26458336,0.26458336 0 0 0 -0.26459,0.264583 z" />
    <path
       id="path85"
       style="fill:#ffffff;stroke:none;stroke-width:0.0374177;stroke-linecap:round;stroke-opacity:1"
       d="m 367.44547,26.264401 a 0.26458336,0.26458336 0 0 0 0.26458,0.264584 0.26458336,0.26458336 0 0 0 0.26459,-0.264584 0.26458336,0.26458336 0 0 0 -0.26459,-0.264583 0.26458336,0.26458336 0 0 0 -0.26458,0.264583 z" />
    <path
       id="path86"
       style="fill:#ffffff;stroke:none;stroke-width:0.0374177;stroke-linecap:round;stroke-opacity:1"
       d="m 375.38297,30.497734 a 0.26458336,0.26458336 0 0 0 0.26458,0.264584 0.26458336,0.26458336 0 0 0 0.26459,-0.264584 0.26458336,0.26458336 0 0 0 -0.26459,-0.264583 0.26458336,0.26458336 0 0 0 -0.26458,0.264583 z" />
    <path
       id="path87"
       style="fill:#ffffff;stroke:none;stroke-width:0.0374177;stroke-linecap:round;stroke-opacity:1"
       d="m 379.08713,34.731067 a 0.26458336,0.26458336 0 0 0 0.26458,0.264584 0.26458336,0.26458336 0 0 0 0.26458,-0.264584 0.26458336,0.26458336 0 0 0 -0.26458,-0.264583 0.26458336,0.26458336 0 0 0 -0.26458,0.264583 z" />
    <path
       id="path88"
       style="fill:#ffffff;stroke:none;stroke-width:0.0374177;stroke-linecap:round;stroke-opacity:1"
       d="m 377.49963,39.493567 a 0.26458336,0.26458336 0 0 0 0.26458,0.264584 0.26458336,0.26458336 0 0 0 0.26458,-0.264584 0.26458336,0.26458336 0 0 0 -0.26458,-0.264583 0.26458336,0.26458336 0 0 0 -0.26458,0.264583 z" />
    <path
       id="path89"
       style="fill:#ffffff;stroke:none;stroke-width:0.0374177;stroke-linecap:round;stroke-opacity:1"
       d="m 369.03296,35.7894 a 0.26458336,0.26458336 0 0 0 0.26458,0.264584 0.26458336,0.26458336 0 0 0 0.26459,-0.264584 0.26458336,0.26458336 0 0 0 -0.26459,-0.264583 0.26458336,0.26458336 0 0 0 -0.26458,0.264583 z" />
    <path
       id="path90"
       style="fill:#ffffff;stroke:none;stroke-width:0.0374177;stroke-linecap:round;stroke-opacity:1"
       d="m 358.44963,41.081067 a 0.26458336,0.26458336 0 0 0 0.26458,0.264584 0.26458336,0.26458336 0 0 0 0.26458,-0.264584 0.26458336,0.26458336 0 0 0 -0.26458,-0.264583 0.26458336,0.26458336 0 0 0 -0.26458,0.264583 z" />
    <path
       id="path91"
       style="fill:#ffffff;stroke:none;stroke-width:0.0374177;stroke-linecap:round;stroke-opacity:1"
       d="m 361.09546,35.7894 a 0.26458336,0.26458336 0 0 0 0.26458,0.264584 0.26458336,0.26458336 0 0 0 0.26459,-0.264584 0.26458336,0.26458336 0 0 0 -0.26459,-0.264583 0.26458336,0.26458336 0 0 0 -0.26458,0.264583 z" />
    <path
       id="path92"
       style="fill:#ffffff;stroke:none;stroke-width:0.0374177;stroke-linecap:round;stroke-opacity:1"
       d="m 354.21629,35.260234 a 0.26458336,0.26458336 0 0 0 0.26459,0.264584 0.26458336,0.26458336 0 0 0 0.26458,-0.264584 0.26458336,0.26458336 0 0 0 -0.26458,-0.264583 0.26458336,0.26458336 0 0 0 -0.26459,0.264583 z" />
    <path
       id="path93"
       style="fill:#ffffff;stroke:none;stroke-width:0.0374177;stroke-linecap:round;stroke-opacity:1"
       d="m 367.44547,42.139402 a 0.26458336,0.26458336 0 0 0 0.26458,0.264584 0.26458336,0.26458336 0 0 0 0.26459,-0.264584 0.26458336,0.26458336 0 0 0 -0.26459,-0.264583 0.26458336,0.26458336 0 0 0 -0.26458,0.264583 z" />
    <path
       id="path94"
       style="fill:#ffffff;stroke:none;stroke-width:0.0374177;stroke-linecap:round;stroke-opacity:1"
       d="m 375.38297,46.372735 a 0.26458336,0.26458336 0 0 0 0.26458,0.264584 0.26458336,0.26458336 0 0 0 0.26459,-0.264584 0.26458336,0.26458336 0 0 0 -0.26459,-0.264583 0.26458336,0.26458336 0 0 0 -0.26458,0.264583 z" />
    <path
       id="path95"
       style="fill:#ffffff;stroke:none;stroke-width:0.0374177;stroke-linecap:round;stroke-opacity:1"
       d="m 363.21213,45.314401 a 0.26458336,0.26458336 0 0 0 0.26458,0.264584 0.26458336,0.26458336 0 0 0 0.26458,-0.264584 0.26458336,0.26458336 0 0 0 -0.26458,-0.264583 0.26458336,0.26458336 0 0 0 -0.26458,0.264583 z" />
    <path
       id="path96"
       style="fill:#ffffff;stroke:none;stroke-width:0.0374177;stroke-linecap:round;stroke-opacity:1"
       d="m 361.62462,50.076901 a 0.26458336,0.26458336 0 0 0 0.26459,0.264584 0.26458336,0.26458336 0 0 0 0.26458,-0.264584 0.26458336,0.26458336 0 0 0 -0.26458,-0.264583 0.26458336,0.26458336 0 0 0 -0.26459,0.264583 z" />
    <path
       id="path97"
       style="fill:#ffffff;stroke:none;stroke-width:0.0374177;stroke-linecap:round;stroke-opacity:1"
       d="m 353.15796,46.372734 a 0.26458336,0.26458336 0 0 0 0.26458,0.264584 0.26458336,0.26458336 0 0 0 0.26459,-0.264584 0.26458336,0.26458336 0 0 0 -0.26459,-0.264583 0.26458336,0.26458336 0 0 0 -0.26458,0.264583 z" />
    <path
       id="path98"
       style="fill:#ffffff;stroke:none;stroke-width:0.0374177;stroke-linecap:round;stroke-opacity:1"
       d="m 342.57462,51.664401 a 0.26458336,0.26458336 0 0 0 0.26459,0.264584 0.26458336,0.26458336 0 0 0 0.26458,-0.264584 0.26458336,0.26458336 0 0 0 -0.26458,-0.264583 0.26458336,0.26458336 0 0 0 -0.26459,0.264583 z" />
    <path
       id="path99"
       style="fill:#ffffff;stroke:none;stroke-width:0.0374177;stroke-linecap:round;stroke-opacity:1"
       d="m 345.22046,46.372734 a 0.26458336,0.26458336 0 0 0 0.26458,0.264584 0.26458336,0.26458336 0 0 0 0.26459,-0.264584 0.26458336,0.26458336 0 0 0 -0.26459,-0.264583 0.26458336,0.26458336 0 0 0 -0.26458,0.264583 z" />
    <path
       id="path100"
       style="fill:#ffffff;stroke:none;stroke-width:0.0374177;stroke-linecap:round;stroke-opacity:1"
       d="m 338.34129,45.843568 a 0.26458336,0.26458336 0 0 0 0.26458,0.264584 0.26458336,0.26458336 0 0 0 0.26459,-0.264584 0.26458336,0.26458336 0 0 0 -0.26459,-0.264583 0.26458336,0.26458336 0 0 0 -0.26458,0.264583 z" />
    <path
       id="path101"
       style="fill:#ffffff;stroke:none;stroke-width:0.0374177;stroke-linecap:round;stroke-opacity:1"
       d="m 347.33712,24.147733 a 0.26458336,0.26458336 0 0 0 0.26459,0.264584 0.26458336,0.26458336 0 0 0 0.26458,-0.264584 0.26458336,0.26458336 0 0 0 -0.26458,-0.264583 0.26458336,0.26458336 0 0 0 -0.26459,0.264583 z" />
    <path
       id="path102"
       style="fill:#ffffff;stroke:none;stroke-width:0.0374177;stroke-linecap:round;stroke-opacity:1"
       d="m 345.74962,28.910233 a 0.26458336,0.26458336 0 0 0 0.26459,0.264584 0.26458336,0.26458336 0 0 0 0.26458,-0.264584 0.26458336,0.26458336 0 0 0 -0.26458,-0.264583 0.26458336,0.26458336 0 0 0 -0.26459,0.264583 z" />
    <path
       id="path103"
       style="fill:#ffffff;stroke:none;stroke-width:0.0374177;stroke-linecap:round;stroke-opacity:1"
       d="m 337.28296,25.206066 a 0.26458336,0.26458336 0 0 0 0.26458,0.264584 0.26458336,0.26458336 0 0 0 0.26458,-0.264584 0.26458336,0.26458336 0 0 0 -0.26458,-0.264583 0.26458336,0.26458336 0 0 0 -0.26458,0.264583 z" />
    <path
       id="path104"
       style="fill:#ffffff;stroke:none;stroke-width:0.0374177;stroke-linecap:round;stroke-opacity:1"
       d="m 326.69962,30.497733 a 0.26458336,0.26458336 0 0 0 0.26459,0.264584 0.26458336,0.26458336 0 0 0 0.26458,-0.264584 0.26458336,0.26458336 0 0 0 -0.26458,-0.264583 0.26458336,0.26458336 0 0 0 -0.26459,0.264583 z" />
    <path
       id="path105"
       style="fill:#ffffff;stroke:none;stroke-width:0.0374177;stroke-linecap:round;stroke-opacity:1"
       d="m 329.34546,25.206066 a 0.26458336,0.26458336 0 0 0 0.26458,0.264584 0.26458336,0.26458336 0 0 0 0.26459,-0.264584 0.26458336,0.26458336 0 0 0 -0.26459,-0.264583 0.26458336,0.26458336 0 0 0 -0.26458,0.264583 z" />
    <path
       id="path106"
       style="fill:#ffffff;stroke:none;stroke-width:0.0374177;stroke-linecap:round;stroke-opacity:1"
       d="m 335.69547,31.556068 a 0.26458336,0.26458336 0 0 0 0.26458,0.264584 0.26458336,0.26458336 0 0 0 0.26459,-0.264584 0.26458336,0.26458336 0 0 0 -0.26459,-0.264583 0.26458336,0.26458336 0 0 0 -0.26458,0.264583 z" />
    <path
       id="path107"
       style="fill:#ffffff;stroke:none;stroke-width:0.0374177;stroke-linecap:round;stroke-opacity:1"
       d="m 343.63297,35.789401 a 0.26458336,0.26458336 0 0 0 0.26458,0.264584 0.26458336,0.26458336 0 0 0 0.26459,-0.264584 0.26458336,0.26458336 0 0 0 -0.26459,-0.264583 0.26458336,0.26458336 0 0 0 -0.26458,0.264583 z" />
    <path
       id="path108"
       style="fill:#ffffff;stroke:none;stroke-width:0.0374177;stroke-linecap:round;stroke-opacity:1"
       d="m 347.33712,2.9810658 a 0.26458336,0.26458336 0 0 0 0.26459,0.264584 0.26458336,0.26458336 0 0 0 0.26458,-0.264584 0.26458336,0.26458336 0 0 0 -0.26458,-0.264583 0.26458336,0.26458336 0 0 0 -0.26459,0.264583 z" />
    <path
       id="path109"
       style="fill:#ffffff;stroke:none;stroke-width:0.0374177;stroke-linecap:round;stroke-opacity:1"
       d="m 345.74962,7.7435654 a 0.26458336,0.26458336 0 0 0 0.26459,0.264584 0.26458336,0.26458336 0 0 0 0.26458,-0.264584 0.26458336,0.26458336 0 0 0 -0.26458,-0.264583 0.26458336,0.26458336 0 0 0 -0.26459,0.264583 z" />
    <path
       id="path110"
       style="fill:#ffffff;stroke:none;stroke-width:0.0374177;stroke-linecap:round;stroke-opacity:1"
       d="m 337.28296,4.0393988 a 0.26458336,0.26458336 0 0 0 0.26458,0.264584 0.26458336,0.26458336 0 0 0 0.26458,-0.264584 0.26458336,0.26458336 0 0 0 -0.26458,-0.264583 0.26458336,0.26458336 0 0 0 -0.26458,0.264583 z" />
    <path
       id="path111"
       style="fill:#ffffff;stroke:none;stroke-width:0.0374177;stroke-linecap:round;stroke-opacity:1"
       d="m 326.69962,9.3310654 a 0.26458336,0.26458336 0 0 0 0.26459,0.264584 0.26458336,0.26458336 0 0 0 0.26458,-0.264584 0.26458336,0.26458336 0 0 0 -0.26458,-0.264583 0.26458336,0.26458336 0 0 0 -0.26459,0.264583 z" />
    <path
       id="path112"
       style="fill:#ffffff;stroke:none;stroke-width:0.0374177;stroke-linecap:round;stroke-opacity:1"
       d="m 329.34546,4.0393988 a 0.26458336,0.26458336 0 0 0 0.26458,0.264584 0.26458336,0.26458336 0 0 0 0.26459,-0.264584 0.26458336,0.26458336 0 0 0 -0.26459,-0.264583 0.26458336,0.26458336 0 0 0 -0.26458,0.264583 z" />
    <path
       id="path113"
       style="fill:#ffffff;stroke:none;stroke-width:0.0374177;stroke-linecap:round;stroke-opacity:1"
       d="m 335.69547,10.3894 a 0.26458336,0.26458336 0 0 0 0.26458,0.264584 0.26458336,0.26458336 0 0 0 0.26459,-0.264584 0.26458336,0.26458336 0 0 0 -0.26459,-0.264583 0.26458336,0.26458336 0 0 0 -0.26458,0.264583 z" />
    <path
       id="path114"
       style="fill:#ffffff;stroke:none;stroke-width:0.0374177;stroke-linecap:round;stroke-opacity:1"
       d="m 343.63297,14.622733 a 0.26458336,0.26458336 0 0 0 0.26458,0.264584 0.26458336,0.26458336 0 0 0 0.26459,-0.264584 0.26458336,0.26458336 0 0 0 -0.26459,-0.264583 0.26458336,0.26458336 0 0 0 -0.26458,0.264583 z" />
    <g
       id="g294">
      <path
         id="path194"
         style="fill:#000055;fill-opacity:1;stroke:none;stroke-width:0.154347;stroke-linecap:round;stroke-opacity:1"
         d="M 48.152123,0.13232822 H 61.381289 V 54.107257 H 48.152123 Z" />
      <path
         id="path195"
         style="fill:#0000aa;fill-opacity:1;stroke:none;stroke-width:0.154347;stroke-linecap:round;stroke-opacity:1"
         d="M 61.381289,0.13232818 H 74.610455 V 54.107257 H 61.381289 Z" />
      <path
         id="path196"
         style="fill:#0000ff;fill-opacity:1;stroke:none;stroke-width:0.154347;stroke-linecap:round;stroke-opacity:1"
         d="M 74.610455,0.13232822 H 87.839621 V 54.107257 H 74.610455 Z" />
      <path
         id="path197"
         style="fill:#55aaff;fill-opacity:1;stroke:none;stroke-width:0.154347;stroke-linecap:round;stroke-opacity:1"
         d="M 87.839621,0.13232822 H 101.06879 V 54.107257 H 87.839621 Z" />
      <g
         id="g197"
         transform="matrix(0.13361025,0,0,1,42.185943,58.208337)">
        <path
           id="path166"
           style="fill:#ffffff;stroke:none;stroke-width:0.0374177;stroke-linecap:round;stroke-opacity:1"
           d="m 45.182778,-12.364772 a 0.26458336,0.26458336 0 0 1 -0.264583,0.26459 0.26458336,0.26458336 0 0 1 -0.264584,-0.26459 0.26458336,0.26458336 0 0 1 0.264584,-0.26458 0.26458336,0.26458336 0 0 1 0.264583,0.26458 z" />
        <path
           id="path171"
           style="fill:#ffffff;stroke:none;stroke-width:0.0374177;stroke-linecap:round;stroke-opacity:1"
           d="m 46.241112,-54.168937 a 0.26458336,0.26458336 0 0 1 -0.264583,0.264584 0.26458336,0.26458336 0 0 1 -0.264584,-0.264584 0.26458336,0.26458336 0 0 1 0.264584,-0.264583 0.26458336,0.26458336 0 0 1 0.264583,0.264583 z" />
        <path
           id="path172"
           style="fill:#ffffff;stroke:none;stroke-width:0.0374177;stroke-linecap:round;stroke-opacity:1"
           d="m 56.824446,-48.87727 a 0.26458336,0.26458336 0 0 1 -0.264583,0.264584 0.26458336,0.26458336 0 0 1 -0.264584,-0.264584 0.26458336,0.26458336 0 0 1 0.264584,-0.264583 0.26458336,0.26458336 0 0 1 0.264583,0.264583 z" />
        <path
           id="path173"
           style="fill:#ffffff;stroke:none;stroke-width:0.0374177;stroke-linecap:round;stroke-opacity:1"
           d="m 54.178611,-54.168937 a 0.26458336,0.26458336 0 0 1 -0.264583,0.264584 0.26458336,0.26458336 0 0 1 -0.264584,-0.264584 0.26458336,0.26458336 0 0 1 0.264584,-0.264583 0.26458336,0.26458336 0 0 1 0.264583,0.264583 z" />
        <path
           id="path174"
           style="fill:#ffffff;stroke:none;stroke-width:0.0374177;stroke-linecap:round;stroke-opacity:1"
           d="m 47.828601,-47.818935 a 0.26458336,0.26458336 0 0 1 -0.264583,0.264584 0.26458336,0.26458336 0 0 1 -0.264584,-0.264584 0.26458336,0.26458336 0 0 1 0.264584,-0.264583 0.26458336,0.26458336 0 0 1 0.264583,0.264583 z" />
        <path
           id="path175"
           style="fill:#000000;fill-opacity:1;stroke:none;stroke-width:0.0951467;stroke-linecap:round;stroke-opacity:1"
           d="m 48.152123,-58.076008 h 5.027083 v 53.9749292 h -5.027083 z" />
        <path
           id="path176"
           style="fill:#000000;fill-opacity:1;stroke:none;stroke-width:0.092609;stroke-linecap:round;stroke-opacity:1"
           d="m 53.44379,-58.076008 h 4.7625 v 53.9749292 h -4.7625 z" />
        <path
           id="path177"
           style="fill:#000000;fill-opacity:1;stroke:none;stroke-width:0.0899998;stroke-linecap:round;stroke-opacity:1"
           d="m 58.735457,-58.076008 h 4.49792 v 53.9749292 h -4.49792 z" />
        <path
           id="path178"
           style="fill:#000000;fill-opacity:1;stroke:none;stroke-width:0.0873126;stroke-linecap:round;stroke-opacity:1"
           d="m 64.027127,-58.076008 h 4.23333 v 53.9749292 h -4.23333 z" />
        <path
           id="path179"
           style="fill:#000000;fill-opacity:1;stroke:none;stroke-width:0.0845402;stroke-linecap:round;stroke-opacity:1"
           d="m 69.318797,-58.076008 h 3.96875 v 53.9749292 h -3.96875 z" />
        <path
           id="path180"
           style="fill:#000000;fill-opacity:1;stroke:none;stroke-width:0.0816735;stroke-linecap:round;stroke-opacity:1"
           d="m 74.610457,-58.076008 h 3.70417 v 53.9749292 h -3.70417 z" />
        <path
           id="path181"
           style="fill:#000000;fill-opacity:1;stroke:none;stroke-width:0.0787025;stroke-linecap:round;stroke-opacity:1"
           d="m 79.902127,-58.076008 h 3.43958 v 53.9749292 h -3.43958 z" />
        <path
           id="path182"
           style="fill:#000000;fill-opacity:1;stroke:none;stroke-width:0.075615;stroke-linecap:round;stroke-opacity:1"
           d="m 85.193797,-58.076008 h 3.175 v 53.9749292 h -3.175 z" />
        <path
           id="path183"
           style="fill:#000000;fill-opacity:1;stroke:none;stroke-width:0.0723958;stroke-linecap:round;stroke-opacity:1"
           d="m 90.485457,-58.076008 h 2.91042 v 53.9749292 h -2.91042 z" />
        <path
           id="path184"
           style="fill:#000000;fill-opacity:1;stroke:none;stroke-width:0.0690267;stroke-linecap:round;stroke-opacity:1"
           d="m 95.777127,-58.076008 h 2.64583 v 53.9749292 h -2.64583 z" />
        <path
           id="path185"
           style="fill:#000000;fill-opacity:1;stroke:none;stroke-width:0.0218282;stroke-linecap:round;stroke-opacity:1"
           d="m 143.66672,-58.07601 h -0.26458 v 53.9749312 h 0.26458 z" />
        <path
           id="path186"
           style="fill:#000000;fill-opacity:1;stroke:none;stroke-width:0.0308697;stroke-linecap:round;stroke-opacity:1"
           d="m 138.63965,-58.07601 h -0.52917 v 53.9749312 h 0.52917 z" />
        <path
           id="path187"
           style="fill:#000000;fill-opacity:1;stroke:none;stroke-width:0.0378075;stroke-linecap:round;stroke-opacity:1"
           d="m 133.61256,-58.07601 h -0.79375 v 53.9749312 h 0.79375 z" />
        <path
           id="path188"
           style="fill:#000000;fill-opacity:1;stroke:none;stroke-width:0.0436563;stroke-linecap:round;stroke-opacity:1"
           d="m 128.58547,-58.07601 h -1.05833 v 53.9749312 h 1.05833 z" />
        <path
           id="path189"
           style="fill:#000000;fill-opacity:1;stroke:none;stroke-width:0.0488092;stroke-linecap:round;stroke-opacity:1"
           d="m 123.55839,-58.07601 h -1.32292 v 53.9749312 h 1.32292 z" />
        <path
           id="path190"
           style="fill:#000000;fill-opacity:1;stroke:none;stroke-width:0.0534678;stroke-linecap:round;stroke-opacity:1"
           d="m 118.5313,-58.07601 h -1.5875 v 53.9749312 h 1.5875 z" />
        <path
           id="path191"
           style="fill:#000000;fill-opacity:1;stroke:none;stroke-width:0.0577519;stroke-linecap:round;stroke-opacity:1"
           d="m 113.50422,-58.07601 h -1.85208 v 53.9749312 h 1.85208 z" />
        <path
           id="path192"
           style="fill:#000000;fill-opacity:1;stroke:none;stroke-width:0.0617393;stroke-linecap:round;stroke-opacity:1"
           d="m 108.47714,-58.07601 h -2.11667 v 53.9749312 h 2.11667 z" />
        <path
           id="path193"
           style="fill:#000000;fill-opacity:1;stroke:none;stroke-width:0.0654845;stroke-linecap:round;stroke-opacity:1"
           d="m 103.45005,-58.07601 h -2.38125 v 53.9749312 h 2.38125 z" />
      </g>
      <g
         id="g221"
         transform="matrix(0.13361025,0,0,1,54.885942,58.208337)"
         style="fill:#000055;fill-opacity:1">
        <path
           id="path198"
           style="fill:#000055;fill-opacity:1;stroke:none;stroke-width:0.0374177;stroke-linecap:round;stroke-opacity:1"
           d="m 45.182778,-12.364772 a 0.26458336,0.26458336 0 0 1 -0.264583,0.26459 0.26458336,0.26458336 0 0 1 -0.264584,-0.26459 0.26458336,0.26458336 0 0 1 0.264584,-0.26458 0.26458336,0.26458336 0 0 1 0.264583,0.26458 z" />
        <path
           id="path199"
           style="fill:#000055;fill-opacity:1;stroke:none;stroke-width:0.0374177;stroke-linecap:round;stroke-opacity:1"
           d="m 46.241112,-54.168937 a 0.26458336,0.26458336 0 0 1 -0.264583,0.264584 0.26458336,0.26458336 0 0 1 -0.264584,-0.264584 0.26458336,0.26458336 0 0 1 0.264584,-0.264583 0.26458336,0.26458336 0 0 1 0.264583,0.264583 z" />
        <path
           id="path200"
           style="fill:#000055;fill-opacity:1;stroke:none;stroke-width:0.0374177;stroke-linecap:round;stroke-opacity:1"
           d="m 56.824446,-48.87727 a 0.26458336,0.26458336 0 0 1 -0.264583,0.264584 0.26458336,0.26458336 0 0 1 -0.264584,-0.264584 0.26458336,0.26458336 0 0 1 0.264584,-0.264583 0.26458336,0.26458336 0 0 1 0.264583,0.264583 z" />
        <path
           id="path201"
           style="fill:#000055;fill-opacity:1;stroke:none;stroke-width:0.0374177;stroke-linecap:round;stroke-opacity:1"
           d="m 54.178611,-54.168937 a 0.26458336,0.26458336 0 0 1 -0.264583,0.264584 0.26458336,0.26458336 0 0 1 -0.264584,-0.264584 0.26458336,0.26458336 0 0 1 0.264584,-0.264583 0.26458336,0.26458336 0 0 1 0.264583,0.264583 z" />
        <path
           id="path202"
           style="fill:#000055;fill-opacity:1;stroke:none;stroke-width:0.0374177;stroke-linecap:round;stroke-opacity:1"
           d="m 47.828601,-47.818935 a 0.26458336,0.26458336 0 0 1 -0.264583,0.264584 0.26458336,0.26458336 0 0 1 -0.264584,-0.264584 0.26458336,0.26458336 0 0 1 0.264584,-0.264583 0.26458336,0.26458336 0 0 1 0.264583,0.264583 z" />
        <path
           id="path203"
           style="fill:#000055;fill-opacity:1;stroke:none;stroke-width:0.0951467;stroke-linecap:round;stroke-opacity:1"
           d="m 48.152123,-58.076008 h 5.027083 v 53.9749292 h -5.027083 z" />
        <path
           id="path204"
           style="fill:#000055;fill-opacity:1;stroke:none;stroke-width:0.092609;stroke-linecap:round;stroke-opacity:1"
           d="m 53.44379,-58.076008 h 4.7625 v 53.9749292 h -4.7625 z" />
        <path
           id="path205"
           style="fill:#000055;fill-opacity:1;stroke:none;stroke-width:0.0899998;stroke-linecap:round;stroke-opacity:1"
           d="m 58.735457,-58.076008 h 4.49792 v 53.9749292 h -4.49792 z" />
        <path
           id="path206"
           style="fill:#000055;fill-opacity:1;stroke:none;stroke-width:0.0873126;stroke-linecap:round;stroke-opacity:1"
           d="m 64.027127,-58.076008 h 4.23333 v 53.9749292 h -4.23333 z" />
        <path
           id="path207"
           style="fill:#000055;fill-opacity:1;stroke:none;stroke-width:0.0845402;stroke-linecap:round;stroke-opacity:1"
           d="m 69.318797,-58.076008 h 3.96875 v 53.9749292 h -3.96875 z" />
        <path
           id="path208"
           style="fill:#000055;fill-opacity:1;stroke:none;stroke-width:0.0816735;stroke-linecap:round;stroke-opacity:1"
           d="m 74.610457,-58.076008 h 3.70417 v 53.9749292 h -3.70417 z" />
        <path
           id="path209"
           style="fill:#000055;fill-opacity:1;stroke:none;stroke-width:0.0787025;stroke-linecap:round;stroke-opacity:1"
           d="m 79.902127,-58.076008 h 3.43958 v 53.9749292 h -3.43958 z" />
        <path
           id="path210"
           style="fill:#000055;fill-opacity:1;stroke:none;stroke-width:0.075615;stroke-linecap:round;stroke-opacity:1"
           d="m 85.193797,-58.076008 h 3.175 v 53.9749292 h -3.175 z" />
        <path
           id="path211"
           style="fill:#000055;fill-opacity:1;stroke:none;stroke-width:0.0723958;stroke-linecap:round;stroke-opacity:1"
           d="m 90.485457,-58.076008 h 2.91042 v 53.9749292 h -2.91042 z" />
        <path
           id="path212"
           style="fill:#000055;fill-opacity:1;stroke:none;stroke-width:0.0690267;stroke-linecap:round;stroke-opacity:1"
           d="m 95.777127,-58.076008 h 2.64583 v 53.9749292 h -2.64583 z" />
        <path
           id="path213"
           style="fill:#000055;fill-opacity:1;stroke:none;stroke-width:0.0218282;stroke-linecap:round;stroke-opacity:1"
           d="m 143.66672,-58.07601 h -0.26458 v 53.9749312 h 0.26458 z" />
        <path
           id="path214"
           style="fill:#000055;fill-opacity:1;stroke:none;stroke-width:0.0308697;stroke-linecap:round;stroke-opacity:1"
           d="m 138.63965,-58.07601 h -0.52917 v 53.9749312 h 0.52917 z" />
        <path
           id="path215"
           style="fill:#000055;fill-opacity:1;stroke:none;stroke-width:0.0378075;stroke-linecap:round;stroke-opacity:1"
           d="m 133.61256,-58.07601 h -0.79375 v 53.9749312 h 0.79375 z" />
        <path
           id="path216"
           style="fill:#000055;fill-opacity:1;stroke:none;stroke-width:0.0436563;stroke-linecap:round;stroke-opacity:1"
           d="m 128.58547,-58.07601 h -1.05833 v 53.9749312 h 1.05833 z" />
        <path
           id="path217"
           style="fill:#000055;fill-opacity:1;stroke:none;stroke-width:0.0488092;stroke-linecap:round;stroke-opacity:1"
           d="m 123.55839,-58.07601 h -1.32292 v 53.9749312 h 1.32292 z" />
        <path
           id="path218"
           style="fill:#000055;fill-opacity:1;stroke:none;stroke-width:0.0534678;stroke-linecap:round;stroke-opacity:1"
           d="m 118.5313,-58.07601 h -1.5875 v 53.9749312 h 1.5875 z" />
        <path
           id="path219"
           style="fill:#000055;fill-opacity:1;stroke:none;stroke-width:0.0577519;stroke-linecap:round;stroke-opacity:1"
           d="m 113.50422,-58.07601 h -1.85208 v 53.9749312 h 1.85208 z" />
        <path
           id="path220"
           style="fill:#000055;fill-opacity:1;stroke:none;stroke-width:0.0617393;stroke-linecap:round;stroke-opacity:1"
           d="m 108.47714,-58.07601 h -2.11667 v 53.9749312 h 2.11667 z" />
        <path
           id="path221"
           style="fill:#000055;fill-opacity:1;stroke:none;stroke-width:0.0654845;stroke-linecap:round;stroke-opacity:1"
           d="m 103.45005,-58.07601 h -2.38125 v 53.9749312 h 2.38125 z" />
      </g>
      <g
         id="g245"
         transform="matrix(0.13361025,0,0,1,68.115108,58.208336)"
         style="fill:#0000aa;fill-opacity:1">
        <path
           id="path222"
           style="fill:#0000aa;fill-opacity:1;stroke:none;stroke-width:0.0374177;stroke-linecap:round;stroke-opacity:1"
           d="m 45.182778,-12.364772 a 0.26458336,0.26458336 0 0 1 -0.264583,0.26459 0.26458336,0.26458336 0 0 1 -0.264584,-0.26459 0.26458336,0.26458336 0 0 1 0.264584,-0.26458 0.26458336,0.26458336 0 0 1 0.264583,0.26458 z" />
        <path
           id="path223"
           style="fill:#0000aa;fill-opacity:1;stroke:none;stroke-width:0.0374177;stroke-linecap:round;stroke-opacity:1"
           d="m 46.241112,-54.168937 a 0.26458336,0.26458336 0 0 1 -0.264583,0.264584 0.26458336,0.26458336 0 0 1 -0.264584,-0.264584 0.26458336,0.26458336 0 0 1 0.264584,-0.264583 0.26458336,0.26458336 0 0 1 0.264583,0.264583 z" />
        <path
           id="path224"
           style="fill:#0000aa;fill-opacity:1;stroke:none;stroke-width:0.0374177;stroke-linecap:round;stroke-opacity:1"
           d="m 56.824446,-48.87727 a 0.26458336,0.26458336 0 0 1 -0.264583,0.264584 0.26458336,0.26458336 0 0 1 -0.264584,-0.264584 0.26458336,0.26458336 0 0 1 0.264584,-0.264583 0.26458336,0.26458336 0 0 1 0.264583,0.264583 z" />
        <path
           id="path225"
           style="fill:#0000aa;fill-opacity:1;stroke:none;stroke-width:0.0374177;stroke-linecap:round;stroke-opacity:1"
           d="m 54.178611,-54.168937 a 0.26458336,0.26458336 0 0 1 -0.264583,0.264584 0.26458336,0.26458336 0 0 1 -0.264584,-0.264584 0.26458336,0.26458336 0 0 1 0.264584,-0.264583 0.26458336,0.26458336 0 0 1 0.264583,0.264583 z" />
        <path
           id="path226"
           style="fill:#0000aa;fill-opacity:1;stroke:none;stroke-width:0.0374177;stroke-linecap:round;stroke-opacity:1"
           d="m 47.828601,-47.818935 a 0.26458336,0.26458336 0 0 1 -0.264583,0.264584 0.26458336,0.26458336 0 0 1 -0.264584,-0.264584 0.26458336,0.26458336 0 0 1 0.264584,-0.264583 0.26458336,0.26458336 0 0 1 0.264583,0.264583 z" />
        <path
           id="path227"
           style="fill:#0000aa;fill-opacity:1;stroke:none;stroke-width:0.0951467;stroke-linecap:round;stroke-opacity:1"
           d="m 48.152123,-58.076008 h 5.027083 v 53.9749292 h -5.027083 z" />
        <path
           id="path228"
           style="fill:#0000aa;fill-opacity:1;stroke:none;stroke-width:0.092609;stroke-linecap:round;stroke-opacity:1"
           d="m 53.44379,-58.076008 h 4.7625 v 53.9749292 h -4.7625 z" />
        <path
           id="path229"
           style="fill:#0000aa;fill-opacity:1;stroke:none;stroke-width:0.0899998;stroke-linecap:round;stroke-opacity:1"
           d="m 58.735457,-58.076008 h 4.49792 v 53.9749292 h -4.49792 z" />
        <path
           id="path230"
           style="fill:#0000aa;fill-opacity:1;stroke:none;stroke-width:0.0873126;stroke-linecap:round;stroke-opacity:1"
           d="m 64.027127,-58.076008 h 4.23333 v 53.9749292 h -4.23333 z" />
        <path
           id="path231"
           style="fill:#0000aa;fill-opacity:1;stroke:none;stroke-width:0.0845402;stroke-linecap:round;stroke-opacity:1"
           d="m 69.318797,-58.076008 h 3.96875 v 53.9749292 h -3.96875 z" />
        <path
           id="path232"
           style="fill:#0000aa;fill-opacity:1;stroke:none;stroke-width:0.0816735;stroke-linecap:round;stroke-opacity:1"
           d="m 74.610457,-58.076008 h 3.70417 v 53.9749292 h -3.70417 z" />
        <path
           id="path233"
           style="fill:#0000aa;fill-opacity:1;stroke:none;stroke-width:0.0787025;stroke-linecap:round;stroke-opacity:1"
           d="m 79.902127,-58.076008 h 3.43958 v 53.9749292 h -3.43958 z" />
        <path
           id="path234"
           style="fill:#0000aa;fill-opacity:1;stroke:none;stroke-width:0.075615;stroke-linecap:round;stroke-opacity:1"
           d="m 85.193797,-58.076008 h 3.175 v 53.9749292 h -3.175 z" />
        <path
           id="path235"
           style="fill:#0000aa;fill-opacity:1;stroke:none;stroke-width:0.0723958;stroke-linecap:round;stroke-opacity:1"
           d="m 90.485457,-58.076008 h 2.91042 v 53.9749292 h -2.91042 z" />
        <path
           id="path236"
           style="fill:#0000aa;fill-opacity:1;stroke:none;stroke-width:0.0690267;stroke-linecap:round;stroke-opacity:1"
           d="m 95.777127,-58.076008 h 2.64583 v 53.9749292 h -2.64583 z" />
        <path
           id="path237"
           style="fill:#0000aa;fill-opacity:1;stroke:none;stroke-width:0.0218282;stroke-linecap:round;stroke-opacity:1"
           d="m 143.66672,-58.07601 h -0.26458 v 53.9749312 h 0.26458 z" />
        <path
           id="path238"
           style="fill:#0000aa;fill-opacity:1;stroke:none;stroke-width:0.0308697;stroke-linecap:round;stroke-opacity:1"
           d="m 138.63965,-58.07601 h -0.52917 v 53.9749312 h 0.52917 z" />
        <path
           id="path239"
           style="fill:#0000aa;fill-opacity:1;stroke:none;stroke-width:0.0378075;stroke-linecap:round;stroke-opacity:1"
           d="m 133.61256,-58.07601 h -0.79375 v 53.9749312 h 0.79375 z" />
        <path
           id="path240"
           style="fill:#0000aa;fill-opacity:1;stroke:none;stroke-width:0.0436563;stroke-linecap:round;stroke-opacity:1"
           d="m 128.58547,-58.07601 h -1.05833 v 53.9749312 h 1.05833 z" />
        <path
           id="path241"
           style="fill:#0000aa;fill-opacity:1;stroke:none;stroke-width:0.0488092;stroke-linecap:round;stroke-opacity:1"
           d="m 123.55839,-58.07601 h -1.32292 v 53.9749312 h 1.32292 z" />
        <path
           id="path242"
           style="fill:#0000aa;fill-opacity:1;stroke:none;stroke-width:0.0534678;stroke-linecap:round;stroke-opacity:1"
           d="m 118.5313,-58.07601 h -1.5875 v 53.9749312 h 1.5875 z" />
        <path
           id="path243"
           style="fill:#0000aa;fill-opacity:1;stroke:none;stroke-width:0.0577519;stroke-linecap:round;stroke-opacity:1"
           d="m 113.50422,-58.07601 h -1.85208 v 53.9749312 h 1.85208 z" />
        <path
           id="path244"
           style="fill:#0000aa;fill-opacity:1;stroke:none;stroke-width:0.0617393;stroke-linecap:round;stroke-opacity:1"
           d="m 108.47714,-58.07601 h -2.11667 v 53.9749312 h 2.11667 z" />
        <path
           id="path245"
           style="fill:#0000aa;fill-opacity:1;stroke:none;stroke-width:0.0654845;stroke-linecap:round;stroke-opacity:1"
           d="m 103.45005,-58.07601 h -2.38125 v 53.9749312 h 2.38125 z" />
      </g>
      <g
         id="g269"
         transform="matrix(0.13361025,0,0,1,81.344275,58.208337)"
         style="fill:#0000ff;fill-opacity:1">
        <path
           id="path246"
           style="fill:#0000ff;fill-opacity:1;stroke:none;stroke-width:0.0374177;stroke-linecap:round;stroke-opacity:1"
           d="m 45.182778,-12.364772 a 0.26458336,0.26458336 0 0 1 -0.264583,0.26459 0.26458336,0.26458336 0 0 1 -0.264584,-0.26459 0.26458336,0.26458336 0 0 1 0.264584,-0.26458 0.26458336,0.26458336 0 0 1 0.264583,0.26458 z" />
        <path
           id="path247"
           style="fill:#0000ff;fill-opacity:1;stroke:none;stroke-width:0.0374177;stroke-linecap:round;stroke-opacity:1"
           d="m 46.241112,-54.168937 a 0.26458336,0.26458336 0 0 1 -0.264583,0.264584 0.26458336,0.26458336 0 0 1 -0.264584,-0.264584 0.26458336,0.26458336 0 0 1 0.264584,-0.264583 0.26458336,0.26458336 0 0 1 0.264583,0.264583 z" />
        <path
           id="path248"
           style="fill:#0000ff;fill-opacity:1;stroke:none;stroke-width:0.0374177;stroke-linecap:round;stroke-opacity:1"
           d="m 56.824446,-48.87727 a 0.26458336,0.26458336 0 0 1 -0.264583,0.264584 0.26458336,0.26458336 0 0 1 -0.264584,-0.264584 0.26458336,0.26458336 0 0 1 0.264584,-0.264583 0.26458336,0.26458336 0 0 1 0.264583,0.264583 z" />
        <path
           id="path249"
           style="fill:#0000ff;fill-opacity:1;stroke:none;stroke-width:0.0374177;stroke-linecap:round;stroke-opacity:1"
           d="m 54.178611,-54.168937 a 0.26458336,0.26458336 0 0 1 -0.264583,0.264584 0.26458336,0.26458336 0 0 1 -0.264584,-0.264584 0.26458336,0.26458336 0 0 1 0.264584,-0.264583 0.26458336,0.26458336 0 0 1 0.264583,0.264583 z" />
        <path
           id="path250"
           style="fill:#0000ff;fill-opacity:1;stroke:none;stroke-width:0.0374177;stroke-linecap:round;stroke-opacity:1"
           d="m 47.828601,-47.818935 a 0.26458336,0.26458336 0 0 1 -0.264583,0.264584 0.26458336,0.26458336 0 0 1 -0.264584,-0.264584 0.26458336,0.26458336 0 0 1 0.264584,-0.264583 0.26458336,0.26458336 0 0 1 0.264583,0.264583 z" />
        <path
           id="path251"
           style="fill:#0000ff;fill-opacity:1;stroke:none;stroke-width:0.0951467;stroke-linecap:round;stroke-opacity:1"
           d="m 48.152123,-58.076008 h 5.027083 v 53.9749292 h -5.027083 z" />
        <path
           id="path252"
           style="fill:#0000ff;fill-opacity:1;stroke:none;stroke-width:0.092609;stroke-linecap:round;stroke-opacity:1"
           d="m 53.44379,-58.076008 h 4.7625 v 53.9749292 h -4.7625 z" />
        <path
           id="path253"
           style="fill:#0000ff;fill-opacity:1;stroke:none;stroke-width:0.0899998;stroke-linecap:round;stroke-opacity:1"
           d="m 58.735457,-58.076008 h 4.49792 v 53.9749292 h -4.49792 z" />
        <path
           id="path254"
           style="fill:#0000ff;fill-opacity:1;stroke:none;stroke-width:0.0873126;stroke-linecap:round;stroke-opacity:1"
           d="m 64.027127,-58.076008 h 4.23333 v 53.9749292 h -4.23333 z" />
        <path
           id="path255"
           style="fill:#0000ff;fill-opacity:1;stroke:none;stroke-width:0.0845402;stroke-linecap:round;stroke-opacity:1"
           d="m 69.318797,-58.076008 h 3.96875 v 53.9749292 h -3.96875 z" />
        <path
           id="path256"
           style="fill:#0000ff;fill-opacity:1;stroke:none;stroke-width:0.0816735;stroke-linecap:round;stroke-opacity:1"
           d="m 74.610457,-58.076008 h 3.70417 v 53.9749292 h -3.70417 z" />
        <path
           id="path257"
           style="fill:#0000ff;fill-opacity:1;stroke:none;stroke-width:0.0787025;stroke-linecap:round;stroke-opacity:1"
           d="m 79.902127,-58.076008 h 3.43958 v 53.9749292 h -3.43958 z" />
        <path
           id="path258"
           style="fill:#0000ff;fill-opacity:1;stroke:none;stroke-width:0.075615;stroke-linecap:round;stroke-opacity:1"
           d="m 85.193797,-58.076008 h 3.175 v 53.9749292 h -3.175 z" />
        <path
           id="path259"
           style="fill:#0000ff;fill-opacity:1;stroke:none;stroke-width:0.0723958;stroke-linecap:round;stroke-opacity:1"
           d="m 90.485457,-58.076008 h 2.91042 v 53.9749292 h -2.91042 z" />
        <path
           id="path260"
           style="fill:#0000ff;fill-opacity:1;stroke:none;stroke-width:0.0690267;stroke-linecap:round;stroke-opacity:1"
           d="m 95.777127,-58.076008 h 2.64583 v 53.9749292 h -2.64583 z" />
        <path
           id="path261"
           style="fill:#0000ff;fill-opacity:1;stroke:none;stroke-width:0.0218282;stroke-linecap:round;stroke-opacity:1"
           d="m 143.66672,-58.07601 h -0.26458 v 53.9749312 h 0.26458 z" />
        <path
           id="path262"
           style="fill:#0000ff;fill-opacity:1;stroke:none;stroke-width:0.0308697;stroke-linecap:round;stroke-opacity:1"
           d="m 138.63965,-58.07601 h -0.52917 v 53.9749312 h 0.52917 z" />
        <path
           id="path263"
           style="fill:#0000ff;fill-opacity:1;stroke:none;stroke-width:0.0378075;stroke-linecap:round;stroke-opacity:1"
           d="m 133.61256,-58.07601 h -0.79375 v 53.9749312 h 0.79375 z" />
        <path
           id="path264"
           style="fill:#0000ff;fill-opacity:1;stroke:none;stroke-width:0.0436563;stroke-linecap:round;stroke-opacity:1"
           d="m 128.58547,-58.07601 h -1.05833 v 53.9749312 h 1.05833 z" />
        <path
           id="path265"
           style="fill:#0000ff;fill-opacity:1;stroke:none;stroke-width:0.0488092;stroke-linecap:round;stroke-opacity:1"
           d="m 123.55839,-58.07601 h -1.32292 v 53.9749312 h 1.32292 z" />
        <path
           id="path266"
           style="fill:#0000ff;fill-opacity:1;stroke:none;stroke-width:0.0534678;stroke-linecap:round;stroke-opacity:1"
           d="m 118.5313,-58.07601 h -1.5875 v 53.9749312 h 1.5875 z" />
        <path
           id="path267"
           style="fill:#0000ff;fill-opacity:1;stroke:none;stroke-width:0.0577519;stroke-linecap:round;stroke-opacity:1"
           d="m 113.50422,-58.07601 h -1.85208 v 53.9749312 h 1.85208 z" />
        <path
           id="path268"
           style="fill:#0000ff;fill-opacity:1;stroke:none;stroke-width:0.0617393;stroke-linecap:round;stroke-opacity:1"
           d="m 108.47714,-58.07601 h -2.11667 v 53.9749312 h 2.11667 z" />
        <path
           id="path269"
           style="fill:#0000ff;fill-opacity:1;stroke:none;stroke-width:0.0654845;stroke-linecap:round;stroke-opacity:1"
           d="m 103.45005,-58.07601 h -2.38125 v 53.9749312 h 2.38125 z" />
      </g>
      <g
         id="g293"
         transform="matrix(0.13361025,0,0,1,94.573443,58.208337)"
         style="fill:#55aaff;fill-opacity:1">
        <path
           id="path270"
           style="fill:#55aaff;fill-opacity:1;stroke:none;stroke-width:0.0374177;stroke-linecap:round;stroke-opacity:1"
           d="m 45.182778,-12.364772 a 0.26458336,0.26458336 0 0 1 -0.264583,0.26459 0.26458336,0.26458336 0 0 1 -0.264584,-0.26459 0.26458336,0.26458336 0 0 1 0.264584,-0.26458 0.26458336,0.26458336 0 0 1 0.264583,0.26458 z" />
        <path
           id="path271"
           style="fill:#55aaff;fill-opacity:1;stroke:none;stroke-width:0.0374177;stroke-linecap:round;stroke-opacity:1"
           d="m 46.241112,-54.168937 a 0.26458336,0.26458336 0 0 1 -0.264583,0.264584 0.26458336,0.26458336 0 0 1 -0.264584,-0.264584 0.26458336,0.26458336 0 0 1 0.264584,-0.264583 0.26458336,0.26458336 0 0 1 0.264583,0.264583 z" />
        <path
           id="path272"
           style="fill:#55aaff;fill-opacity:1;stroke:none;stroke-width:0.0374177;stroke-linecap:round;stroke-opacity:1"
           d="m 56.824446,-48.87727 a 0.26458336,0.26458336 0 0 1 -0.264583,0.264584 0.26458336,0.26458336 0 0 1 -0.264584,-0.264584 0.26458336,0.26458336 0 0 1 0.264584,-0.264583 0.26458336,0.26458336 0 0 1 0.264583,0.264583 z" />
        <path
           id="path273"
           style="fill:#55aaff;fill-opacity:1;stroke:none;stroke-width:0.0374177;stroke-linecap:round;stroke-opacity:1"
           d="m 54.178611,-54.168937 a 0.26458336,0.26458336 0 0 1 -0.264583,0.264584 0.26458336,0.26458336 0 0 1 -0.264584,-0.264584 0.26458336,0.26458336 0 0 1 0.264584,-0.264583 0.26458336,0.26458336 0 0 1 0.264583,0.264583 z" />
        <path
           id="path274"
           style="fill:#55aaff;fill-opacity:1;stroke:none;stroke-width:0.0374177;stroke-linecap:round;stroke-opacity:1"
           d="m 47.828601,-47.818935 a 0.26458336,0.26458336 0 0 1 -0.264583,0.264584 0.26458336,0.26458336 0 0 1 -0.264584,-0.264584 0.26458336,0.26458336 0 0 1 0.264584,-0.264583 0.26458336,0.26458336 0 0 1 0.264583,0.264583 z" />
        <path
           id="path275"
           style="fill:#55aaff;fill-opacity:1;stroke:none;stroke-width:0.0951467;stroke-linecap:round;stroke-opacity:1"
           d="m 48.152123,-58.076008 h 5.027083 v 53.9749292 h -5.027083 z" />
        <path
           id="path276"
           style="fill:#55aaff;fill-opacity:1;stroke:none;stroke-width:0.092609;stroke-linecap:round;stroke-opacity:1"
           d="m 53.44379,-58.076008 h 4.7625 v 53.9749292 h -4.7625 z" />
        <path
           id="path277"
           style="fill:#55aaff;fill-opacity:1;stroke:none;stroke-width:0.0899998;stroke-linecap:round;stroke-opacity:1"
           d="m 58.735457,-58.076008 h 4.49792 v 53.9749292 h -4.49792 z" />
        <path
           id="path278"
           style="fill:#55aaff;fill-opacity:1;stroke:none;stroke-width:0.0873126;stroke-linecap:round;stroke-opacity:1"
           d="m 64.027127,-58.076008 h 4.23333 v 53.9749292 h -4.23333 z" />
        <path
           id="path279"
           style="fill:#55aaff;fill-opacity:1;stroke:none;stroke-width:0.0845402;stroke-linecap:round;stroke-opacity:1"
           d="m 69.318797,-58.076008 h 3.96875 v 53.9749292 h -3.96875 z" />
        <path
           id="path280"
           style="fill:#55aaff;fill-opacity:1;stroke:none;stroke-width:0.0816735;stroke-linecap:round;stroke-opacity:1"
           d="m 74.610457,-58.076008 h 3.70417 v 53.9749292 h -3.70417 z" />
        <path
           id="path281"
           style="fill:#55aaff;fill-opacity:1;stroke:none;stroke-width:0.0787025;stroke-linecap:round;stroke-opacity:1"
           d="m 79.902127,-58.076008 h 3.43958 v 53.9749292 h -3.43958 z" />
        <path
           id="path282"
           style="fill:#55aaff;fill-opacity:1;stroke:none;stroke-width:0.075615;stroke-linecap:round;stroke-opacity:1"
           d="m 85.193797,-58.076008 h 3.175 v 53.9749292 h -3.175 z" />
        <path
           id="path283"
           style="fill:#55aaff;fill-opacity:1;stroke:none;stroke-width:0.0723958;stroke-linecap:round;stroke-opacity:1"
           d="m 90.485457,-58.076008 h 2.91042 v 53.9749292 h -2.91042 z" />
        <path
           id="path284"
           style="fill:#55aaff;fill-opacity:1;stroke:none;stroke-width:0.0690267;stroke-linecap:round;stroke-opacity:1"
           d="m 95.777127,-58.076008 h 2.64583 v 53.9749292 h -2.64583 z" />
        <path
           id="path285"
           style="fill:#55aaff;fill-opacity:1;stroke:none;stroke-width:0.0218282;stroke-linecap:round;stroke-opacity:1"
           d="m 143.66672,-58.07601 h -0.26458 v 53.9749312 h 0.26458 z" />
        <path
           id="path286"
           style="fill:#55aaff;fill-opacity:1;stroke:none;stroke-width:0.0308697;stroke-linecap:round;stroke-opacity:1"
           d="m 138.63965,-58.07601 h -0.52917 v 53.9749312 h 0.52917 z" />
        <path
           id="path287"
           style="fill:#55aaff;fill-opacity:1;stroke:none;stroke-width:0.0378075;stroke-linecap:round;stroke-opacity:1"
           d="m 133.61256,-58.07601 h -0.79375 v 53.9749312 h 0.79375 z" />
        <path
           id="path288"
           style="fill:#55aaff;fill-opacity:1;stroke:none;stroke-width:0.0436563;stroke-linecap:round;stroke-opacity:1"
           d="m 128.58547,-58.07601 h -1.05833 v 53.9749312 h 1.05833 z" />
        <path
           id="path289"
           style="fill:#55aaff;fill-opacity:1;stroke:none;stroke-width:0.0488092;stroke-linecap:round;stroke-opacity:1"
           d="m 123.55839,-58.07601 h -1.32292 v 53.9749312 h 1.32292 z" />
        <path
           id="path290"
           style="fill:#55aaff;fill-opacity:1;stroke:none;stroke-width:0.0534678;stroke-linecap:round;stroke-opacity:1"
           d="m 118.5313,-58.07601 h -1.5875 v 53.9749312 h 1.5875 z" />
        <path
           id="path291"
           style="fill:#55aaff;fill-opacity:1;stroke:none;stroke-width:0.0577519;stroke-linecap:round;stroke-opacity:1"
           d="m 113.50422,-58.07601 h -1.85208 v 53.9749312 h 1.85208 z" />
        <path
           id="path292"
           style="fill:#55aaff;fill-opacity:1;stroke:none;stroke-width:0.0617393;stroke-linecap:round;stroke-opacity:1"
           d="m 108.47714,-58.07601 h -2.11667 v 53.9749312 h 2.11667 z" />
        <path
           id="path293"
           style="fill:#55aaff;fill-opacity:1;stroke:none;stroke-width:0.0654845;stroke-linecap:round;stroke-opacity:1"
           d="m 103.45005,-58.07601 h -2.38125 v 53.9749312 h 2.38125 z" />
      </g>
    </g>
    <g
       id="g418"
       transform="matrix(-1,0,0,1,366.03019,-1.095e-6)">
      <path
         id="path294"
         style="fill:#000055;fill-opacity:1;stroke:none;stroke-width:0.154347;stroke-linecap:round;stroke-opacity:1"
         d="M 48.152123,0.13232822 H 61.381289 V 54.107257 H 48.152123 Z" />
      <path
         id="path295"
         style="fill:#0000aa;fill-opacity:1;stroke:none;stroke-width:0.154347;stroke-linecap:round;stroke-opacity:1"
         d="M 61.381289,0.13232818 H 74.610455 V 54.107257 H 61.381289 Z" />
      <path
         id="path296"
         style="fill:#0000ff;fill-opacity:1;stroke:none;stroke-width:0.154347;stroke-linecap:round;stroke-opacity:1"
         d="M 74.610455,0.13232822 H 87.839621 V 54.107257 H 74.610455 Z" />
      <path
         id="path297"
         style="fill:#55aaff;fill-opacity:1;stroke:none;stroke-width:0.154347;stroke-linecap:round;stroke-opacity:1"
         d="M 87.839621,0.13232822 H 101.06879 V 54.107257 H 87.839621 Z" />
      <g
         id="g321"
         transform="matrix(0.13361025,0,0,1,42.185943,58.208337)">
        <path
           id="path298"
           style="fill:#ffffff;stroke:none;stroke-width:0.0374177;stroke-linecap:round;stroke-opacity:1"
           d="m 45.182778,-12.364772 a 0.26458336,0.26458336 0 0 1 -0.264583,0.26459 0.26458336,0.26458336 0 0 1 -0.264584,-0.26459 0.26458336,0.26458336 0 0 1 0.264584,-0.26458 0.26458336,0.26458336 0 0 1 0.264583,0.26458 z" />
        <path
           id="path299"
           style="fill:#ffffff;stroke:none;stroke-width:0.0374177;stroke-linecap:round;stroke-opacity:1"
           d="m 46.241112,-54.168937 a 0.26458336,0.26458336 0 0 1 -0.264583,0.264584 0.26458336,0.26458336 0 0 1 -0.264584,-0.264584 0.26458336,0.26458336 0 0 1 0.264584,-0.264583 0.26458336,0.26458336 0 0 1 0.264583,0.264583 z" />
        <path
           id="path300"
           style="fill:#ffffff;stroke:none;stroke-width:0.0374177;stroke-linecap:round;stroke-opacity:1"
           d="m 56.824446,-48.87727 a 0.26458336,0.26458336 0 0 1 -0.264583,0.264584 0.26458336,0.26458336 0 0 1 -0.264584,-0.264584 0.26458336,0.26458336 0 0 1 0.264584,-0.264583 0.26458336,0.26458336 0 0 1 0.264583,0.264583 z" />
        <path
           id="path301"
           style="fill:#ffffff;stroke:none;stroke-width:0.0374177;stroke-linecap:round;stroke-opacity:1"
           d="m 54.178611,-54.168937 a 0.26458336,0.26458336 0 0 1 -0.264583,0.264584 0.26458336,0.26458336 0 0 1 -0.264584,-0.264584 0.26458336,0.26458336 0 0 1 0.264584,-0.264583 0.26458336,0.26458336 0 0 1 0.264583,0.264583 z" />
        <path
           id="path302"
           style="fill:#ffffff;stroke:none;stroke-width:0.0374177;stroke-linecap:round;stroke-opacity:1"
           d="m 47.828601,-47.818935 a 0.26458336,0.26458336 0 0 1 -0.264583,0.264584 0.26458336,0.26458336 0 0 1 -0.264584,-0.264584 0.26458336,0.26458336 0 0 1 0.264584,-0.264583 0.26458336,0.26458336 0 0 1 0.264583,0.264583 z" />
        <path
           id="path303"
           style="fill:#000000;fill-opacity:1;stroke:none;stroke-width:0.0951467;stroke-linecap:round;stroke-opacity:1"
           d="m 48.152123,-58.076008 h 5.027083 v 53.9749292 h -5.027083 z" />
        <path
           id="path304"
           style="fill:#000000;fill-opacity:1;stroke:none;stroke-width:0.092609;stroke-linecap:round;stroke-opacity:1"
           d="m 53.44379,-58.076008 h 4.7625 v 53.9749292 h -4.7625 z" />
        <path
           id="path305"
           style="fill:#000000;fill-opacity:1;stroke:none;stroke-width:0.0899998;stroke-linecap:round;stroke-opacity:1"
           d="m 58.735457,-58.076008 h 4.49792 v 53.9749292 h -4.49792 z" />
        <path
           id="path306"
           style="fill:#000000;fill-opacity:1;stroke:none;stroke-width:0.0873126;stroke-linecap:round;stroke-opacity:1"
           d="m 64.027127,-58.076008 h 4.23333 v 53.9749292 h -4.23333 z" />
        <path
           id="path307"
           style="fill:#000000;fill-opacity:1;stroke:none;stroke-width:0.0845402;stroke-linecap:round;stroke-opacity:1"
           d="m 69.318797,-58.076008 h 3.96875 v 53.9749292 h -3.96875 z" />
        <path
           id="path308"
           style="fill:#000000;fill-opacity:1;stroke:none;stroke-width:0.0816735;stroke-linecap:round;stroke-opacity:1"
           d="m 74.610457,-58.076008 h 3.70417 v 53.9749292 h -3.70417 z" />
        <path
           id="path309"
           style="fill:#000000;fill-opacity:1;stroke:none;stroke-width:0.0787025;stroke-linecap:round;stroke-opacity:1"
           d="m 79.902127,-58.076008 h 3.43958 v 53.9749292 h -3.43958 z" />
        <path
           id="path310"
           style="fill:#000000;fill-opacity:1;stroke:none;stroke-width:0.075615;stroke-linecap:round;stroke-opacity:1"
           d="m 85.193797,-58.076008 h 3.175 v 53.9749292 h -3.175 z" />
        <path
           id="path311"
           style="fill:#000000;fill-opacity:1;stroke:none;stroke-width:0.0723958;stroke-linecap:round;stroke-opacity:1"
           d="m 90.485457,-58.076008 h 2.91042 v 53.9749292 h -2.91042 z" />
        <path
           id="path312"
           style="fill:#000000;fill-opacity:1;stroke:none;stroke-width:0.0690267;stroke-linecap:round;stroke-opacity:1"
           d="m 95.777127,-58.076008 h 2.64583 v 53.9749292 h -2.64583 z" />
        <path
           id="path313"
           style="fill:#000000;fill-opacity:1;stroke:none;stroke-width:0.0218282;stroke-linecap:round;stroke-opacity:1"
           d="m 143.66672,-58.07601 h -0.26458 v 53.9749312 h 0.26458 z" />
        <path
           id="path314"
           style="fill:#000000;fill-opacity:1;stroke:none;stroke-width:0.0308697;stroke-linecap:round;stroke-opacity:1"
           d="m 138.63965,-58.07601 h -0.52917 v 53.9749312 h 0.52917 z" />
        <path
           id="path315"
           style="fill:#000000;fill-opacity:1;stroke:none;stroke-width:0.0378075;stroke-linecap:round;stroke-opacity:1"
           d="m 133.61256,-58.07601 h -0.79375 v 53.9749312 h 0.79375 z" />
        <path
           id="path316"
           style="fill:#000000;fill-opacity:1;stroke:none;stroke-width:0.0436563;stroke-linecap:round;stroke-opacity:1"
           d="m 128.58547,-58.07601 h -1.05833 v 53.9749312 h 1.05833 z" />
        <path
           id="path317"
           style="fill:#000000;fill-opacity:1;stroke:none;stroke-width:0.0488092;stroke-linecap:round;stroke-opacity:1"
           d="m 123.55839,-58.07601 h -1.32292 v 53.9749312 h 1.32292 z" />
        <path
           id="path318"
           style="fill:#000000;fill-opacity:1;stroke:none;stroke-width:0.0534678;stroke-linecap:round;stroke-opacity:1"
           d="m 118.5313,-58.07601 h -1.5875 v 53.9749312 h 1.5875 z" />
        <path
           id="path319"
           style="fill:#000000;fill-opacity:1;stroke:none;stroke-width:0.0577519;stroke-linecap:round;stroke-opacity:1"
           d="m 113.50422,-58.07601 h -1.85208 v 53.9749312 h 1.85208 z" />
        <path
           id="path320"
           style="fill:#000000;fill-opacity:1;stroke:none;stroke-width:0.0617393;stroke-linecap:round;stroke-opacity:1"
           d="m 108.47714,-58.07601 h -2.11667 v 53.9749312 h 2.11667 z" />
        <path
           id="path321"
           style="fill:#000000;fill-opacity:1;stroke:none;stroke-width:0.0654845;stroke-linecap:round;stroke-opacity:1"
           d="m 103.45005,-58.07601 h -2.38125 v 53.9749312 h 2.38125 z" />
      </g>
      <g
         id="g345"
         transform="matrix(0.13361025,0,0,1,54.885942,58.208337)"
         style="fill:#000055;fill-opacity:1">
        <path
           id="path322"
           style="fill:#000055;fill-opacity:1;stroke:none;stroke-width:0.0374177;stroke-linecap:round;stroke-opacity:1"
           d="m 45.182778,-12.364772 a 0.26458336,0.26458336 0 0 1 -0.264583,0.26459 0.26458336,0.26458336 0 0 1 -0.264584,-0.26459 0.26458336,0.26458336 0 0 1 0.264584,-0.26458 0.26458336,0.26458336 0 0 1 0.264583,0.26458 z" />
        <path
           id="path323"
           style="fill:#000055;fill-opacity:1;stroke:none;stroke-width:0.0374177;stroke-linecap:round;stroke-opacity:1"
           d="m 46.241112,-54.168937 a 0.26458336,0.26458336 0 0 1 -0.264583,0.264584 0.26458336,0.26458336 0 0 1 -0.264584,-0.264584 0.26458336,0.26458336 0 0 1 0.264584,-0.264583 0.26458336,0.26458336 0 0 1 0.264583,0.264583 z" />
        <path
           id="path324"
           style="fill:#000055;fill-opacity:1;stroke:none;stroke-width:0.0374177;stroke-linecap:round;stroke-opacity:1"
           d="m 56.824446,-48.87727 a 0.26458336,0.26458336 0 0 1 -0.264583,0.264584 0.26458336,0.26458336 0 0 1 -0.264584,-0.264584 0.26458336,0.26458336 0 0 1 0.264584,-0.264583 0.26458336,0.26458336 0 0 1 0.264583,0.264583 z" />
        <path
           id="path325"
           style="fill:#000055;fill-opacity:1;stroke:none;stroke-width:0.0374177;stroke-linecap:round;stroke-opacity:1"
           d="m 54.178611,-54.168937 a 0.26458336,0.26458336 0 0 1 -0.264583,0.264584 0.26458336,0.26458336 0 0 1 -0.264584,-0.264584 0.26458336,0.26458336 0 0 1 0.264584,-0.264583 0.26458336,0.26458336 0 0 1 0.264583,0.264583 z" />
        <path
           id="path326"
           style="fill:#000055;fill-opacity:1;stroke:none;stroke-width:0.0374177;stroke-linecap:round;stroke-opacity:1"
           d="m 47.828601,-47.818935 a 0.26458336,0.26458336 0 0 1 -0.264583,0.264584 0.26458336,0.26458336 0 0 1 -0.264584,-0.264584 0.26458336,0.26458336 0 0 1 0.264584,-0.264583 0.26458336,0.26458336 0 0 1 0.264583,0.264583 z" />
        <path
           id="path327"
           style="fill:#000055;fill-opacity:1;stroke:none;stroke-width:0.0951467;stroke-linecap:round;stroke-opacity:1"
           d="m 48.152123,-58.076008 h 5.027083 v 53.9749292 h -5.027083 z" />
        <path
           id="path328"
           style="fill:#000055;fill-opacity:1;stroke:none;stroke-width:0.092609;stroke-linecap:round;stroke-opacity:1"
           d="m 53.44379,-58.076008 h 4.7625 v 53.9749292 h -4.7625 z" />
        <path
           id="path329"
           style="fill:#000055;fill-opacity:1;stroke:none;stroke-width:0.0899998;stroke-linecap:round;stroke-opacity:1"
           d="m 58.735457,-58.076008 h 4.49792 v 53.9749292 h -4.49792 z" />
        <path
           id="path330"
           style="fill:#000055;fill-opacity:1;stroke:none;stroke-width:0.0873126;stroke-linecap:round;stroke-opacity:1"
           d="m 64.027127,-58.076008 h 4.23333 v 53.9749292 h -4.23333 z" />
        <path
           id="path331"
           style="fill:#000055;fill-opacity:1;stroke:none;stroke-width:0.0845402;stroke-linecap:round;stroke-opacity:1"
           d="m 69.318797,-58.076008 h 3.96875 v 53.9749292 h -3.96875 z" />
        <path
           id="path332"
           style="fill:#000055;fill-opacity:1;stroke:none;stroke-width:0.0816735;stroke-linecap:round;stroke-opacity:1"
           d="m 74.610457,-58.076008 h 3.70417 v 53.9749292 h -3.70417 z" />
        <path
           id="path333"
           style="fill:#000055;fill-opacity:1;stroke:none;stroke-width:0.0787025;stroke-linecap:round;stroke-opacity:1"
           d="m 79.902127,-58.076008 h 3.43958 v 53.9749292 h -3.43958 z" />
        <path
           id="path334"
           style="fill:#000055;fill-opacity:1;stroke:none;stroke-width:0.075615;stroke-linecap:round;stroke-opacity:1"
           d="m 85.193797,-58.076008 h 3.175 v 53.9749292 h -3.175 z" />
        <path
           id="path335"
           style="fill:#000055;fill-opacity:1;stroke:none;stroke-width:0.0723958;stroke-linecap:round;stroke-opacity:1"
           d="m 90.485457,-58.076008 h 2.91042 v 53.9749292 h -2.91042 z" />
        <path
           id="path336"
           style="fill:#000055;fill-opacity:1;stroke:none;stroke-width:0.0690267;stroke-linecap:round;stroke-opacity:1"
           d="m 95.777127,-58.076008 h 2.64583 v 53.9749292 h -2.64583 z" />
        <path
           id="path337"
           style="fill:#000055;fill-opacity:1;stroke:none;stroke-width:0.0218282;stroke-linecap:round;stroke-opacity:1"
           d="m 143.66672,-58.07601 h -0.26458 v 53.9749312 h 0.26458 z" />
        <path
           id="path338"
           style="fill:#000055;fill-opacity:1;stroke:none;stroke-width:0.0308697;stroke-linecap:round;stroke-opacity:1"
           d="m 138.63965,-58.07601 h -0.52917 v 53.9749312 h 0.52917 z" />
        <path
           id="path339"
           style="fill:#000055;fill-opacity:1;stroke:none;stroke-width:0.0378075;stroke-linecap:round;stroke-opacity:1"
           d="m 133.61256,-58.07601 h -0.79375 v 53.9749312 h 0.79375 z" />
        <path
           id="path340"
           style="fill:#000055;fill-opacity:1;stroke:none;stroke-width:0.0436563;stroke-linecap:round;stroke-opacity:1"
           d="m 128.58547,-58.07601 h -1.05833 v 53.9749312 h 1.05833 z" />
        <path
           id="path341"
           style="fill:#000055;fill-opacity:1;stroke:none;stroke-width:0.0488092;stroke-linecap:round;stroke-opacity:1"
           d="m 123.55839,-58.07601 h -1.32292 v 53.9749312 h 1.32292 z" />
        <path
           id="path342"
           style="fill:#000055;fill-opacity:1;stroke:none;stroke-width:0.0534678;stroke-linecap:round;stroke-opacity:1"
           d="m 118.5313,-58.07601 h -1.5875 v 53.9749312 h 1.5875 z" />
        <path
           id="path343"
           style="fill:#000055;fill-opacity:1;stroke:none;stroke-width:0.0577519;stroke-linecap:round;stroke-opacity:1"
           d="m 113.50422,-58.07601 h -1.85208 v 53.9749312 h 1.85208 z" />
        <path
           id="path344"
           style="fill:#000055;fill-opacity:1;stroke:none;stroke-width:0.0617393;stroke-linecap:round;stroke-opacity:1"
           d="m 108.47714,-58.07601 h -2.11667 v 53.9749312 h 2.11667 z" />
        <path
           id="path345"
           style="fill:#000055;fill-opacity:1;stroke:none;stroke-width:0.0654845;stroke-linecap:round;stroke-opacity:1"
           d="m 103.45005,-58.07601 h -2.38125 v 53.9749312 h 2.38125 z" />
      </g>
      <g
         id="g369"
         transform="matrix(0.13361025,0,0,1,68.115108,58.208336)"
         style="fill:#0000aa;fill-opacity:1">
        <path
           id="path346"
           style="fill:#0000aa;fill-opacity:1;stroke:none;stroke-width:0.0374177;stroke-linecap:round;stroke-opacity:1"
           d="m 45.182778,-12.364772 a 0.26458336,0.26458336 0 0 1 -0.264583,0.26459 0.26458336,0.26458336 0 0 1 -0.264584,-0.26459 0.26458336,0.26458336 0 0 1 0.264584,-0.26458 0.26458336,0.26458336 0 0 1 0.264583,0.26458 z" />
        <path
           id="path347"
           style="fill:#0000aa;fill-opacity:1;stroke:none;stroke-width:0.0374177;stroke-linecap:round;stroke-opacity:1"
           d="m 46.241112,-54.168937 a 0.26458336,0.26458336 0 0 1 -0.264583,0.264584 0.26458336,0.26458336 0 0 1 -0.264584,-0.264584 0.26458336,0.26458336 0 0 1 0.264584,-0.264583 0.26458336,0.26458336 0 0 1 0.264583,0.264583 z" />
        <path
           id="path348"
           style="fill:#0000aa;fill-opacity:1;stroke:none;stroke-width:0.0374177;stroke-linecap:round;stroke-opacity:1"
           d="m 56.824446,-48.87727 a 0.26458336,0.26458336 0 0 1 -0.264583,0.264584 0.26458336,0.26458336 0 0 1 -0.264584,-0.264584 0.26458336,0.26458336 0 0 1 0.264584,-0.264583 0.26458336,0.26458336 0 0 1 0.264583,0.264583 z" />
        <path
           id="path349"
           style="fill:#0000aa;fill-opacity:1;stroke:none;stroke-width:0.0374177;stroke-linecap:round;stroke-opacity:1"
           d="m 54.178611,-54.168937 a 0.26458336,0.26458336 0 0 1 -0.264583,0.264584 0.26458336,0.26458336 0 0 1 -0.264584,-0.264584 0.26458336,0.26458336 0 0 1 0.264584,-0.264583 0.26458336,0.26458336 0 0 1 0.264583,0.264583 z" />
        <path
           id="path350"
           style="fill:#0000aa;fill-opacity:1;stroke:none;stroke-width:0.0374177;stroke-linecap:round;stroke-opacity:1"
           d="m 47.828601,-47.818935 a 0.26458336,0.26458336 0 0 1 -0.264583,0.264584 0.26458336,0.26458336 0 0 1 -0.264584,-0.264584 0.26458336,0.26458336 0 0 1 0.264584,-0.264583 0.26458336,0.26458336 0 0 1 0.264583,0.264583 z" />
        <path
           id="path351"
           style="fill:#0000aa;fill-opacity:1;stroke:none;stroke-width:0.0951467;stroke-linecap:round;stroke-opacity:1"
           d="m 48.152123,-58.076008 h 5.027083 v 53.9749292 h -5.027083 z" />
        <path
           id="path352"
           style="fill:#0000aa;fill-opacity:1;stroke:none;stroke-width:0.092609;stroke-linecap:round;stroke-opacity:1"
           d="m 53.44379,-58.076008 h 4.7625 v 53.9749292 h -4.7625 z" />
        <path
           id="path353"
           style="fill:#0000aa;fill-opacity:1;stroke:none;stroke-width:0.0899998;stroke-linecap:round;stroke-opacity:1"
           d="m 58.735457,-58.076008 h 4.49792 v 53.9749292 h -4.49792 z" />
        <path
           id="path354"
           style="fill:#0000aa;fill-opacity:1;stroke:none;stroke-width:0.0873126;stroke-linecap:round;stroke-opacity:1"
           d="m 64.027127,-58.076008 h 4.23333 v 53.9749292 h -4.23333 z" />
        <path
           id="path355"
           style="fill:#0000aa;fill-opacity:1;stroke:none;stroke-width:0.0845402;stroke-linecap:round;stroke-opacity:1"
           d="m 69.318797,-58.076008 h 3.96875 v 53.9749292 h -3.96875 z" />
        <path
           id="path356"
           style="fill:#0000aa;fill-opacity:1;stroke:none;stroke-width:0.0816735;stroke-linecap:round;stroke-opacity:1"
           d="m 74.610457,-58.076008 h 3.70417 v 53.9749292 h -3.70417 z" />
        <path
           id="path357"
           style="fill:#0000aa;fill-opacity:1;stroke:none;stroke-width:0.0787025;stroke-linecap:round;stroke-opacity:1"
           d="m 79.902127,-58.076008 h 3.43958 v 53.9749292 h -3.43958 z" />
        <path
           id="path358"
           style="fill:#0000aa;fill-opacity:1;stroke:none;stroke-width:0.075615;stroke-linecap:round;stroke-opacity:1"
           d="m 85.193797,-58.076008 h 3.175 v 53.9749292 h -3.175 z" />
        <path
           id="path359"
           style="fill:#0000aa;fill-opacity:1;stroke:none;stroke-width:0.0723958;stroke-linecap:round;stroke-opacity:1"
           d="m 90.485457,-58.076008 h 2.91042 v 53.9749292 h -2.91042 z" />
        <path
           id="path360"
           style="fill:#0000aa;fill-opacity:1;stroke:none;stroke-width:0.0690267;stroke-linecap:round;stroke-opacity:1"
           d="m 95.777127,-58.076008 h 2.64583 v 53.9749292 h -2.64583 z" />
        <path
           id="path361"
           style="fill:#0000aa;fill-opacity:1;stroke:none;stroke-width:0.0218282;stroke-linecap:round;stroke-opacity:1"
           d="m 143.66672,-58.07601 h -0.26458 v 53.9749312 h 0.26458 z" />
        <path
           id="path362"
           style="fill:#0000aa;fill-opacity:1;stroke:none;stroke-width:0.0308697;stroke-linecap:round;stroke-opacity:1"
           d="m 138.63965,-58.07601 h -0.52917 v 53.9749312 h 0.52917 z" />
        <path
           id="path363"
           style="fill:#0000aa;fill-opacity:1;stroke:none;stroke-width:0.0378075;stroke-linecap:round;stroke-opacity:1"
           d="m 133.61256,-58.07601 h -0.79375 v 53.9749312 h 0.79375 z" />
        <path
           id="path364"
           style="fill:#0000aa;fill-opacity:1;stroke:none;stroke-width:0.0436563;stroke-linecap:round;stroke-opacity:1"
           d="m 128.58547,-58.07601 h -1.05833 v 53.9749312 h 1.05833 z" />
        <path
           id="path365"
           style="fill:#0000aa;fill-opacity:1;stroke:none;stroke-width:0.0488092;stroke-linecap:round;stroke-opacity:1"
           d="m 123.55839,-58.07601 h -1.32292 v 53.9749312 h 1.32292 z" />
        <path
           id="path366"
           style="fill:#0000aa;fill-opacity:1;stroke:none;stroke-width:0.0534678;stroke-linecap:round;stroke-opacity:1"
           d="m 118.5313,-58.07601 h -1.5875 v 53.9749312 h 1.5875 z" />
        <path
           id="path367"
           style="fill:#0000aa;fill-opacity:1;stroke:none;stroke-width:0.0577519;stroke-linecap:round;stroke-opacity:1"
           d="m 113.50422,-58.07601 h -1.85208 v 53.9749312 h 1.85208 z" />
        <path
           id="path368"
           style="fill:#0000aa;fill-opacity:1;stroke:none;stroke-width:0.0617393;stroke-linecap:round;stroke-opacity:1"
           d="m 108.47714,-58.07601 h -2.11667 v 53.9749312 h 2.11667 z" />
        <path
           id="path369"
           style="fill:#0000aa;fill-opacity:1;stroke:none;stroke-width:0.0654845;stroke-linecap:round;stroke-opacity:1"
           d="m 103.45005,-58.07601 h -2.38125 v 53.9749312 h 2.38125 z" />
      </g>
      <g
         id="g393"
         transform="matrix(0.13361025,0,0,1,81.344275,58.208337)"
         style="fill:#0000ff;fill-opacity:1">
        <path
           id="path370"
           style="fill:#0000ff;fill-opacity:1;stroke:none;stroke-width:0.0374177;stroke-linecap:round;stroke-opacity:1"
           d="m 45.182778,-12.364772 a 0.26458336,0.26458336 0 0 1 -0.264583,0.26459 0.26458336,0.26458336 0 0 1 -0.264584,-0.26459 0.26458336,0.26458336 0 0 1 0.264584,-0.26458 0.26458336,0.26458336 0 0 1 0.264583,0.26458 z" />
        <path
           id="path371"
           style="fill:#0000ff;fill-opacity:1;stroke:none;stroke-width:0.0374177;stroke-linecap:round;stroke-opacity:1"
           d="m 46.241112,-54.168937 a 0.26458336,0.26458336 0 0 1 -0.264583,0.264584 0.26458336,0.26458336 0 0 1 -0.264584,-0.264584 0.26458336,0.26458336 0 0 1 0.264584,-0.264583 0.26458336,0.26458336 0 0 1 0.264583,0.264583 z" />
        <path
           id="path372"
           style="fill:#0000ff;fill-opacity:1;stroke:none;stroke-width:0.0374177;stroke-linecap:round;stroke-opacity:1"
           d="m 56.824446,-48.87727 a 0.26458336,0.26458336 0 0 1 -0.264583,0.264584 0.26458336,0.26458336 0 0 1 -0.264584,-0.264584 0.26458336,0.26458336 0 0 1 0.264584,-0.264583 0.26458336,0.26458336 0 0 1 0.264583,0.264583 z" />
        <path
           id="path373"
           style="fill:#0000ff;fill-opacity:1;stroke:none;stroke-width:0.0374177;stroke-linecap:round;stroke-opacity:1"
           d="m 54.178611,-54.168937 a 0.26458336,0.26458336 0 0 1 -0.264583,0.264584 0.26458336,0.26458336 0 0 1 -0.264584,-0.264584 0.26458336,0.26458336 0 0 1 0.264584,-0.264583 0.26458336,0.26458336 0 0 1 0.264583,0.264583 z" />
        <path
           id="path374"
           style="fill:#0000ff;fill-opacity:1;stroke:none;stroke-width:0.0374177;stroke-linecap:round;stroke-opacity:1"
           d="m 47.828601,-47.818935 a 0.26458336,0.26458336 0 0 1 -0.264583,0.264584 0.26458336,0.26458336 0 0 1 -0.264584,-0.264584 0.26458336,0.26458336 0 0 1 0.264584,-0.264583 0.26458336,0.26458336 0 0 1 0.264583,0.264583 z" />
        <path
           id="path375"
           style="fill:#0000ff;fill-opacity:1;stroke:none;stroke-width:0.0951467;stroke-linecap:round;stroke-opacity:1"
           d="m 48.152123,-58.076008 h 5.027083 v 53.9749292 h -5.027083 z" />
        <path
           id="path376"
           style="fill:#0000ff;fill-opacity:1;stroke:none;stroke-width:0.092609;stroke-linecap:round;stroke-opacity:1"
           d="m 53.44379,-58.076008 h 4.7625 v 53.9749292 h -4.7625 z" />
        <path
           id="path377"
           style="fill:#0000ff;fill-opacity:1;stroke:none;stroke-width:0.0899998;stroke-linecap:round;stroke-opacity:1"
           d="m 58.735457,-58.076008 h 4.49792 v 53.9749292 h -4.49792 z" />
        <path
           id="path378"
           style="fill:#0000ff;fill-opacity:1;stroke:none;stroke-width:0.0873126;stroke-linecap:round;stroke-opacity:1"
           d="m 64.027127,-58.076008 h 4.23333 v 53.9749292 h -4.23333 z" />
        <path
           id="path379"
           style="fill:#0000ff;fill-opacity:1;stroke:none;stroke-width:0.0845402;stroke-linecap:round;stroke-opacity:1"
           d="m 69.318797,-58.076008 h 3.96875 v 53.9749292 h -3.96875 z" />
        <path
           id="path380"
           style="fill:#0000ff;fill-opacity:1;stroke:none;stroke-width:0.0816735;stroke-linecap:round;stroke-opacity:1"
           d="m 74.610457,-58.076008 h 3.70417 v 53.9749292 h -3.70417 z" />
        <path
           id="path381"
           style="fill:#0000ff;fill-opacity:1;stroke:none;stroke-width:0.0787025;stroke-linecap:round;stroke-opacity:1"
           d="m 79.902127,-58.076008 h 3.43958 v 53.9749292 h -3.43958 z" />
        <path
           id="path382"
           style="fill:#0000ff;fill-opacity:1;stroke:none;stroke-width:0.075615;stroke-linecap:round;stroke-opacity:1"
           d="m 85.193797,-58.076008 h 3.175 v 53.9749292 h -3.175 z" />
        <path
           id="path383"
           style="fill:#0000ff;fill-opacity:1;stroke:none;stroke-width:0.0723958;stroke-linecap:round;stroke-opacity:1"
           d="m 90.485457,-58.076008 h 2.91042 v 53.9749292 h -2.91042 z" />
        <path
           id="path384"
           style="fill:#0000ff;fill-opacity:1;stroke:none;stroke-width:0.0690267;stroke-linecap:round;stroke-opacity:1"
           d="m 95.777127,-58.076008 h 2.64583 v 53.9749292 h -2.64583 z" />
        <path
           id="path385"
           style="fill:#0000ff;fill-opacity:1;stroke:none;stroke-width:0.0218282;stroke-linecap:round;stroke-opacity:1"
           d="m 143.66672,-58.07601 h -0.26458 v 53.9749312 h 0.26458 z" />
        <path
           id="path386"
           style="fill:#0000ff;fill-opacity:1;stroke:none;stroke-width:0.0308697;stroke-linecap:round;stroke-opacity:1"
           d="m 138.63965,-58.07601 h -0.52917 v 53.9749312 h 0.52917 z" />
        <path
           id="path387"
           style="fill:#0000ff;fill-opacity:1;stroke:none;stroke-width:0.0378075;stroke-linecap:round;stroke-opacity:1"
           d="m 133.61256,-58.07601 h -0.79375 v 53.9749312 h 0.79375 z" />
        <path
           id="path388"
           style="fill:#0000ff;fill-opacity:1;stroke:none;stroke-width:0.0436563;stroke-linecap:round;stroke-opacity:1"
           d="m 128.58547,-58.07601 h -1.05833 v 53.9749312 h 1.05833 z" />
        <path
           id="path389"
           style="fill:#0000ff;fill-opacity:1;stroke:none;stroke-width:0.0488092;stroke-linecap:round;stroke-opacity:1"
           d="m 123.55839,-58.07601 h -1.32292 v 53.9749312 h 1.32292 z" />
        <path
           id="path390"
           style="fill:#0000ff;fill-opacity:1;stroke:none;stroke-width:0.0534678;stroke-linecap:round;stroke-opacity:1"
           d="m 118.5313,-58.07601 h -1.5875 v 53.9749312 h 1.5875 z" />
        <path
           id="path391"
           style="fill:#0000ff;fill-opacity:1;stroke:none;stroke-width:0.0577519;stroke-linecap:round;stroke-opacity:1"
           d="m 113.50422,-58.07601 h -1.85208 v 53.9749312 h 1.85208 z" />
        <path
           id="path392"
           style="fill:#0000ff;fill-opacity:1;stroke:none;stroke-width:0.0617393;stroke-linecap:round;stroke-opacity:1"
           d="m 108.47714,-58.07601 h -2.11667 v 53.9749312 h 2.11667 z" />
        <path
           id="path393"
           style="fill:#0000ff;fill-opacity:1;stroke:none;stroke-width:0.0654845;stroke-linecap:round;stroke-opacity:1"
           d="m 103.45005,-58.07601 h -2.38125 v 53.9749312 h 2.38125 z" />
      </g>
      <g
         id="g417"
         transform="matrix(0.13361025,0,0,1,94.573443,58.208337)"
         style="fill:#55aaff;fill-opacity:1">
        <path
           id="path394"
           style="fill:#55aaff;fill-opacity:1;stroke:none;stroke-width:0.0374177;stroke-linecap:round;stroke-opacity:1"
           d="m 45.182778,-12.364772 a 0.26458336,0.26458336 0 0 1 -0.264583,0.26459 0.26458336,0.26458336 0 0 1 -0.264584,-0.26459 0.26458336,0.26458336 0 0 1 0.264584,-0.26458 0.26458336,0.26458336 0 0 1 0.264583,0.26458 z" />
        <path
           id="path395"
           style="fill:#55aaff;fill-opacity:1;stroke:none;stroke-width:0.0374177;stroke-linecap:round;stroke-opacity:1"
           d="m 46.241112,-54.168937 a 0.26458336,0.26458336 0 0 1 -0.264583,0.264584 0.26458336,0.26458336 0 0 1 -0.264584,-0.264584 0.26458336,0.26458336 0 0 1 0.264584,-0.264583 0.26458336,0.26458336 0 0 1 0.264583,0.264583 z" />
        <path
           id="path396"
           style="fill:#55aaff;fill-opacity:1;stroke:none;stroke-width:0.0374177;stroke-linecap:round;stroke-opacity:1"
           d="m 56.824446,-48.87727 a 0.26458336,0.26458336 0 0 1 -0.264583,0.264584 0.26458336,0.26458336 0 0 1 -0.264584,-0.264584 0.26458336,0.26458336 0 0 1 0.264584,-0.264583 0.26458336,0.26458336 0 0 1 0.264583,0.264583 z" />
        <path
           id="path397"
           style="fill:#55aaff;fill-opacity:1;stroke:none;stroke-width:0.0374177;stroke-linecap:round;stroke-opacity:1"
           d="m 54.178611,-54.168937 a 0.26458336,0.26458336 0 0 1 -0.264583,0.264584 0.26458336,0.26458336 0 0 1 -0.264584,-0.264584 0.26458336,0.26458336 0 0 1 0.264584,-0.264583 0.26458336,0.26458336 0 0 1 0.264583,0.264583 z" />
        <path
           id="path398"
           style="fill:#55aaff;fill-opacity:1;stroke:none;stroke-width:0.0374177;stroke-linecap:round;stroke-opacity:1"
           d="m 47.828601,-47.818935 a 0.26458336,0.26458336 0 0 1 -0.264583,0.264584 0.26458336,0.26458336 0 0 1 -0.264584,-0.264584 0.26458336,0.26458336 0 0 1 0.264584,-0.264583 0.26458336,0.26458336 0 0 1 0.264583,0.264583 z" />
        <path
           id="path399"
           style="fill:#55aaff;fill-opacity:1;stroke:none;stroke-width:0.0951467;stroke-linecap:round;stroke-opacity:1"
           d="m 48.152123,-58.076008 h 5.027083 v 53.9749292 h -5.027083 z" />
        <path
           id="path400"
           style="fill:#55aaff;fill-opacity:1;stroke:none;stroke-width:0.092609;stroke-linecap:round;stroke-opacity:1"
           d="m 53.44379,-58.076008 h 4.7625 v 53.9749292 h -4.7625 z" />
        <path
           id="path401"
           style="fill:#55aaff;fill-opacity:1;stroke:none;stroke-width:0.0899998;stroke-linecap:round;stroke-opacity:1"
           d="m 58.735457,-58.076008 h 4.49792 v 53.9749292 h -4.49792 z" />
        <path
           id="path402"
           style="fill:#55aaff;fill-opacity:1;stroke:none;stroke-width:0.0873126;stroke-linecap:round;stroke-opacity:1"
           d="m 64.027127,-58.076008 h 4.23333 v 53.9749292 h -4.23333 z" />
        <path
           id="path403"
           style="fill:#55aaff;fill-opacity:1;stroke:none;stroke-width:0.0845402;stroke-linecap:round;stroke-opacity:1"
           d="m 69.318797,-58.076008 h 3.96875 v 53.9749292 h -3.96875 z" />
        <path
           id="path404"
           style="fill:#55aaff;fill-opacity:1;stroke:none;stroke-width:0.0816735;stroke-linecap:round;stroke-opacity:1"
           d="m 74.610457,-58.076008 h 3.70417 v 53.9749292 h -3.70417 z" />
        <path
           id="path405"
           style="fill:#55aaff;fill-opacity:1;stroke:none;stroke-width:0.0787025;stroke-linecap:round;stroke-opacity:1"
           d="m 79.902127,-58.076008 h 3.43958 v 53.9749292 h -3.43958 z" />
        <path
           id="path406"
           style="fill:#55aaff;fill-opacity:1;stroke:none;stroke-width:0.075615;stroke-linecap:round;stroke-opacity:1"
           d="m 85.193797,-58.076008 h 3.175 v 53.9749292 h -3.175 z" />
        <path
           id="path407"
           style="fill:#55aaff;fill-opacity:1;stroke:none;stroke-width:0.0723958;stroke-linecap:round;stroke-opacity:1"
           d="m 90.485457,-58.076008 h 2.91042 v 53.9749292 h -2.91042 z" />
        <path
           id="path408"
           style="fill:#55aaff;fill-opacity:1;stroke:none;stroke-width:0.0690267;stroke-linecap:round;stroke-opacity:1"
           d="m 95.777127,-58.076008 h 2.64583 v 53.9749292 h -2.64583 z" />
        <path
           id="path409"
           style="fill:#55aaff;fill-opacity:1;stroke:none;stroke-width:0.0218282;stroke-linecap:round;stroke-opacity:1"
           d="m 143.66672,-58.07601 h -0.26458 v 53.9749312 h 0.26458 z" />
        <path
           id="path410"
           style="fill:#55aaff;fill-opacity:1;stroke:none;stroke-width:0.0308697;stroke-linecap:round;stroke-opacity:1"
           d="m 138.63965,-58.07601 h -0.52917 v 53.9749312 h 0.52917 z" />
        <path
           id="path411"
           style="fill:#55aaff;fill-opacity:1;stroke:none;stroke-width:0.0378075;stroke-linecap:round;stroke-opacity:1"
           d="m 133.61256,-58.07601 h -0.79375 v 53.9749312 h 0.79375 z" />
        <path
           id="path412"
           style="fill:#55aaff;fill-opacity:1;stroke:none;stroke-width:0.0436563;stroke-linecap:round;stroke-opacity:1"
           d="m 128.58547,-58.07601 h -1.05833 v 53.9749312 h 1.05833 z" />
        <path
           id="path413"
           style="fill:#55aaff;fill-opacity:1;stroke:none;stroke-width:0.0488092;stroke-linecap:round;stroke-opacity:1"
           d="m 123.55839,-58.07601 h -1.32292 v 53.9749312 h 1.32292 z" />
        <path
           id="path414"
           style="fill:#55aaff;fill-opacity:1;stroke:none;stroke-width:0.0534678;stroke-linecap:round;stroke-opacity:1"
           d="m 118.5313,-58.07601 h -1.5875 v 53.9749312 h 1.5875 z" />
        <path
           id="path415"
           style="fill:#55aaff;fill-opacity:1;stroke:none;stroke-width:0.0577519;stroke-linecap:round;stroke-opacity:1"
           d="m 113.50422,-58.07601 h -1.85208 v 53.9749312 h 1.85208 z" />
        <path
           id="path416"
           style="fill:#55aaff;fill-opacity:1;stroke:none;stroke-width:0.0617393;stroke-linecap:round;stroke-opacity:1"
           d="m 108.47714,-58.07601 h -2.11667 v 53.9749312 h 2.11667 z" />
        <path
           id="path417"
           style="fill:#55aaff;fill-opacity:1;stroke:none;stroke-width:0.0654845;stroke-linecap:round;stroke-opacity:1"
           d="m 103.45005,-58.07601 h -2.38125 v 53.9749312 h 2.38125 z" />
      </g>
    </g>
  </g>
</svg>
